<?xml version="1.0" encoding="UTF-8"?>
<svg width="103px" height="28px" viewBox="0 0 103 28" version="1.1" xmlns="http://www.w3.org/2000/svg" xmlns:xlink="http://www.w3.org/1999/xlink">
    <!-- Generator: Sketch 49.3 (51167) - http://www.bohemiancoding.com/sketch -->
    <title>Page 1</title>
    <desc>Created with Sketch.</desc>
    <defs>
        <polygon id="path-1" points="0 27.9224167 102.4205 27.9224167 102.4205 0.000583333333 0 0.000583333333"></polygon>
    </defs>
    <g id="Page-1" stroke="none" stroke-width="1" fill="none" fill-rule="evenodd">
        <g id="header" transform="translate(-360.000000, -1467.000000)">
            <g id="Group-Copy" transform="translate(320.000000, 1447.000000)">
                <g id="Page-1" transform="translate(40.000000, 20.000000)">
                    <path d="M40.77955,5.10066667 C40.8168833,5.04116667 40.8203833,4.96416667 40.7912167,4.90116667 L40.50655,4.2735 C40.4738833,4.19883333 40.4003833,4.15216667 40.31755,4.15216667 L34.73155,4.15216667 C34.6207167,4.15216667 34.53205,4.2385 34.5227167,4.34933333 L34.47955,17.5653333 C34.4748833,17.6225 34.4958833,17.6785 34.5367167,17.7216667 C34.5763833,17.7636667 34.6288833,17.787 34.6872167,17.787 L36.50255,17.787 C36.6133833,17.787 36.7043833,17.7006667 36.7113833,17.5886667 L36.7102167,5.1975 L40.6033833,5.1975 C40.6733833,5.1975 40.7387167,5.16133333 40.77955,5.10066667" id="Fill-1" fill="#020800"></path>
                    <mask id="mask-2" fill="white">
                        <use xlink:href="#path-1"></use>
                    </mask>
                    <g id="Clip-4"></g>
                    <path d="M40.0283333,13.5980833 L42.4118333,13.5980833 L42.4118333,12.9855833 L40.0283333,12.9855833 L40.0283333,13.5980833 Z M44.7941667,13.5980833 L47.1263333,13.5980833 L47.1263333,12.9855833 L44.7941667,12.9855833 L44.7941667,13.5980833 Z M44.7941667,11.9390833 L47.1263333,11.9390833 L47.1263333,11.3265833 L44.7941667,11.3265833 L44.7941667,11.9390833 Z M47.047,14.64925 L49.2998333,14.64925 C49.4141667,14.64925 49.5086667,14.5559167 49.5086667,14.4380833 L49.5086667,10.4900833 C49.5086667,10.3745833 49.4141667,10.2800833 49.2998333,10.2800833 L42.5868333,10.2800833 C42.518,10.2800833 42.4176667,10.3080833 42.4176667,10.4200833 L42.4118333,11.9390833 L40.0283333,11.9390833 L40.0283333,11.3265833 L41.398,11.3265833 C41.5123333,11.3265833 41.5893333,11.2554167 41.5893333,11.12825 L41.5893333,10.46325 C41.5893333,10.3629167 41.5135,10.2800833 41.412,10.2800833 L37.8571667,10.2800833 C37.7405,10.2800833 37.6471667,10.3745833 37.6471667,10.4900833 L37.6471667,14.4345833 C37.6471667,14.55125 37.7405,14.64575 37.8571667,14.64575 L39.732,14.64575 L37.5666667,17.4574167 C37.5235,17.52275 37.5176667,17.6055833 37.555,17.6744167 C37.5923333,17.7444167 37.6611667,17.7875833 37.7381667,17.7875833 L39.4788333,17.7875833 C39.6106667,17.7875833 39.7366667,17.7339167 39.8346667,17.65575 C39.9011667,17.5974167 42.259,14.64575 42.259,14.64575 L42.609,14.64575 C42.609,14.64575 42.6008333,17.1750833 42.6008333,17.41425 C42.6008333,17.65575 42.7455,17.7875833 42.9531667,17.7875833 L49.7513333,17.7875833 C49.8633333,17.7875833 49.9578333,17.6919167 49.9578333,17.5775833 L49.9578333,15.7354167 C49.9578333,15.6199167 49.8633333,15.5254167 49.7513333,15.5254167 L47.7866667,15.5254167 C47.67,15.5254167 47.5778333,15.6199167 47.5778333,15.7354167 L47.5778333,16.7410833 L44.7066667,16.7410833 L44.702,14.64575 L45.3098333,14.64575 L47.047,14.64925 Z" id="Fill-3" fill="#020800" mask="url(#mask-2)"></path>
                    <path d="M49.3000667,6.5254 L47.2852333,6.5254 L47.2852333,6.1964 C47.2852333,6.0809 47.1919,5.9864 47.0775667,5.9864 L45.1129,5.9864 C44.9997333,5.9864 44.9052333,6.0809 44.9052333,6.1964 L44.9052333,6.5254 L42.2510667,6.5254 L42.2510667,6.1964 C42.2510667,6.0809 42.1554,5.9864 42.0422333,5.9864 L40.0810667,5.9864 C39.9620667,5.9864 39.8710667,6.0809 39.8710667,6.1964 L39.8710667,6.5254 L37.8562333,6.5254 C37.7407333,6.5254 37.6474,6.61873333 37.6474,6.73423333 L37.6474,7.36073333 C37.6474,7.47623333 37.7407333,7.5719 37.8562333,7.5719 L38.1397333,7.5719 L37.7115667,9.08623333 C37.6917333,9.14923333 37.7057333,9.21806667 37.7454,9.2694 C37.7850667,9.32306667 37.8469,9.3534 37.9110667,9.3534 L38.9984,9.3534 C39.0905667,9.3534 39.1722333,9.29156667 39.1967333,9.20173333 L39.6599,7.5719 L39.8710667,7.5719 L39.8710667,9.1434 C39.8710667,9.26006667 39.9620667,9.3534 40.0810667,9.3534 L42.0422333,9.3534 C42.1554,9.3534 42.2510667,9.26006667 42.2510667,9.1434 L42.2510667,7.5719 L42.8040667,7.5719 L42.8040667,9.1434 C42.8040667,9.26006667 42.8962333,9.3534 43.0117333,9.3534 L44.1142333,9.3534 C44.2309,9.3534 44.3230667,9.26006667 44.3230667,9.1434 L44.3230667,7.5719 L44.9052333,7.5719 L44.9052333,9.1434 C44.9052333,9.26006667 44.9997333,9.3534 45.1129,9.3534 L47.0775667,9.3534 C47.1919,9.3534 47.2852333,9.26006667 47.2852333,9.1434 L47.2852333,7.5719 L47.4987333,7.5719 L47.9572333,9.20173333 C47.9840667,9.29156667 48.0669,9.3534 48.1579,9.3534 L49.2464,9.3534 C49.3105667,9.3534 49.3712333,9.32306667 49.4109,9.2694 C49.4505667,9.21806667 49.4645667,9.14923333 49.4470667,9.08623333 L49.0165667,7.5719 L49.3000667,7.5719 C49.4144,7.5719 49.5089,7.47623333 49.5089,7.36073333 L49.5089,6.73423333 C49.5089,6.61873333 49.4144,6.5254 49.3000667,6.5254" id="Fill-5" fill="#020800" mask="url(#mask-2)"></path>
                    <path d="M49.3000667,4.1517 L43.6860667,4.1517 L43.1190667,2.89636667 C43.0852333,2.8217 43.0117333,2.77386667 42.9324,2.77386667 L41.0085667,2.77386667 C40.9362333,2.77386667 40.8709,2.8112 40.8324,2.8707 C40.7950667,2.93136667 40.7915667,3.0072 40.8184,3.07253333 L41.7225667,5.0757 C41.7575667,5.1492 41.8310667,5.1982 41.9115667,5.1982 L49.3000667,5.1982 C49.4144,5.1982 49.5089,5.1037 49.5089,4.98703333 L49.5089,4.3617 C49.5089,4.24503333 49.4144,4.1517 49.3000667,4.1517" id="Fill-6" fill="#020800" mask="url(#mask-2)"></path>
                    <path d="M81.28085,16.7412 L74.0451833,16.7412 L77.61285,9.6852 C77.6501833,9.62103333 77.65135,9.53936667 77.6140167,9.47403333 C77.5790167,9.4087 77.5090167,9.36786667 77.4355167,9.36786667 L75.2246833,9.36786667 C75.1511833,9.36786667 75.0811833,9.4087 75.0450167,9.4717 L70.9780167,17.4703667 C70.9430167,17.5357 70.9406833,17.6162 70.9780167,17.6815333 C71.0141833,17.7468667 71.08535,17.7865333 71.15885,17.7865333 L83.5581833,17.7865333 C83.6736833,17.7865333 83.7646833,17.6920333 83.7646833,17.5777" id="Fill-7" fill="#020800" mask="url(#mask-2)"></path>
                    <path d="M70.1325333,9.68823333 L72.3492,9.68823333 C72.4227,9.68823333 72.4927,9.6474 72.5277,9.58206667 L75.5365333,4.2679 L77.7182,4.2679 C77.7940333,4.2679 77.8652,4.22706667 77.9002,4.15706667 C77.9387,4.09173333 77.9352,4.00773333 77.8932,3.94356667 L77.4895333,3.31823333 C77.4510333,3.25873333 77.3845333,3.22256667 77.3145333,3.22256667 L73.6267,3.22256667 C73.5532,3.22256667 73.4855333,3.26223333 73.4482,3.32756667 L69.9528667,9.37206667 C69.9155333,9.4374 69.9155333,9.5179 69.9505333,9.58206667 C69.9890333,9.6474 70.0567,9.68823333 70.1325333,9.68823333" id="Fill-8" fill="#020800" mask="url(#mask-2)"></path>
                    <path d="M81.1441167,3.31765 C81.1067833,3.25931667 81.0391167,3.22198333 80.9691167,3.22198333 L78.8656167,3.22198333 C78.78745,3.22198333 78.71745,3.26515 78.68245,3.33281667 C78.64745,3.40048333 78.6486167,3.48331667 78.69295,3.54865 L82.58845,9.59198333 C82.6246167,9.65381667 82.68995,9.68765 82.75995,9.68765 L84.8646167,9.68765 C84.9416167,9.68765 85.0116167,9.64565 85.0466167,9.57915 C85.08395,9.51031667 85.0816167,9.42748333 85.0372833,9.36331667 L81.1441167,3.31765 Z" id="Fill-9" fill="#020800" mask="url(#mask-2)"></path>
                    <path d="M81.66585,13.4097833 C81.62735,13.35145 81.5620167,13.3152833 81.49435,13.3152833 L79.3885167,13.3152833 C79.3115167,13.3152833 79.2415167,13.35845 79.20535,13.42495 C79.17035,13.4926167 79.1715167,13.5766167 79.2135167,13.6407833 L81.8210167,17.69145 C81.8606833,17.75095 81.9260167,17.7871167 81.99485,17.7871167 L84.09835,17.7871167 C84.1765167,17.7871167 84.2465167,17.74395 84.28385,17.6762833 C84.3200167,17.6097833 84.3165167,17.52695 84.27335,17.46395 L81.66585,13.4097833 Z" id="Fill-10" fill="#020800" mask="url(#mask-2)"></path>
                    <path d="M58.3702,4.27361667 C58.3375333,4.19895 58.2652,4.15228333 58.1812,4.15228333 L52.7527,4.15228333 C52.6383667,4.15228333 52.5462,4.24561667 52.5462,4.36111667 L52.5462,4.98761667 C52.5462,5.10311667 52.6383667,5.19761667 52.7527,5.19761667 L56.1897,5.19761667 L52.6243667,17.5187833 C52.6057,17.5806167 52.6162,17.6506167 52.6582,17.7031167 C52.6967,17.7567833 52.7562,17.7871167 52.8250333,17.7871167 L54.9798667,17.7871167 C55.0697,17.7871167 55.1537,17.72645 55.1770333,17.6377833 L58.7657,5.27228333 C58.7820333,5.22445 58.7762,5.17311667 58.7552,5.12528333 L58.3702,4.27361667 Z" id="Fill-11" fill="#020800" mask="url(#mask-2)"></path>
                    <path d="M67.1640667,4.1517 L61.5454,4.1517 L60.9819,2.89753333 C60.9480667,2.8217 60.8745667,2.77386667 60.7940667,2.77386667 L58.8714,2.77386667 C58.7979,2.77386667 58.7325667,2.8112 58.6952333,2.8707 C58.6567333,2.93136667 58.6509,3.00603333 58.6812333,3.07253333 L59.5842333,5.08736667 C59.6204,5.16203333 59.6927333,5.21103333 59.7732333,5.21103333 L59.7755667,5.21103333 L67.1640667,5.1982 C67.2784,5.1982 67.3717333,5.1037 67.3717333,4.98703333 L67.3717333,4.3617 C67.3717333,4.24503333 67.2784,4.1517 67.1640667,4.1517" id="Fill-12" fill="#020800" mask="url(#mask-2)"></path>
                    <path d="M66.42685,8.01115 L59.1106833,8.01115 C58.9940167,8.01115 58.9041833,8.10565 58.9041833,8.22231667 L58.9041833,8.84765 C58.9041833,8.96315 58.9940167,9.05881667 59.1106833,9.05881667 L64.25335,9.05881667 L64.25335,16.7413167 L61.7846833,16.7413167 C61.6715167,16.7413167 61.5781833,16.8358167 61.5781833,16.9524833 L61.5781833,17.5778167 C61.5781833,17.69215 61.6715167,17.78665 61.7846833,17.78665 L66.42685,17.78665 C66.5411833,17.78665 66.63335,17.69215 66.63335,17.5778167 L66.63335,8.22231667 C66.63335,8.10565 66.5411833,8.01115 66.42685,8.01115" id="Fill-13" fill="#020800" mask="url(#mask-2)"></path>
                    <path d="M87.7937667,6.56763333 L89.7607667,6.56763333 C89.8751,6.56763333 89.9684333,6.4743 89.9684333,6.3588 L89.9684333,5.19796667 L93.5081,5.19796667 C93.5769333,5.19796667 93.6457667,5.1618 93.6831,5.10113333 C93.7192667,5.04046667 93.7262667,4.96346667 93.6947667,4.90046667 L93.4136,4.27396667 C93.3786,4.1993 93.3074333,4.15146667 93.2234333,4.15146667 L87.7937667,4.15146667 C87.6806,4.15146667 87.5884333,4.2448 87.5884333,4.36146667 L87.5884333,6.3588 C87.5884333,6.4743 87.6806,6.56763333 87.7937667,6.56763333" id="Fill-14" fill="#020800" mask="url(#mask-2)"></path>
                    <path d="M90.0211667,10.4819167 L93.6845,10.4819167 L93.6845,9.86825 L90.0211667,9.86825 L90.0211667,10.4819167 Z M96.061,8.82408333 L100.034667,8.82408333 L100.034667,8.20925 L96.061,8.20925 L96.061,8.82408333 Z M96.061,10.4819167 L96.0598333,9.86825 L100.034667,9.86825 L100.034667,10.4819167 L96.061,10.4819167 Z M102.207,7.16391667 L93.9143333,7.16391667 C93.7918333,7.16391667 93.6845,7.26075 93.6845,7.40891667 C93.6845,7.55358333 93.6833333,8.82408333 93.6833333,8.82408333 L90.0211667,8.82408333 L90.0211667,8.20925 L92.5003333,8.20925 C92.6566667,8.20925 92.7675,8.09608333 92.7675,7.95375 L92.7675,7.45908333 C92.7675,7.27125 92.6485,7.16391667 92.4536667,7.16391667 L87.8453333,7.16391667 C87.7321667,7.16391667 87.6388333,7.25841667 87.6388333,7.37391667 L87.6388333,11.3184167 C87.6388333,11.4339167 87.7321667,11.5284167 87.8453333,11.5284167 L93.6845,11.5284167 L93.6845,12.3100833 L87.794,12.3100833 C87.6808333,12.3100833 87.5886667,12.4034167 87.5886667,12.5189167 L87.5886667,17.5775833 C87.5886667,17.6919167 87.6808333,17.7875833 87.794,17.7875833 L89.7598333,17.7875833 C89.8741667,17.7875833 89.9686667,17.6919167 89.9686667,17.5775833 L89.9686667,13.3554167 L93.6845,13.3554167 L93.6845,14.9339167 L90.8308333,14.9339167 C90.6896667,14.9339167 90.6033333,15.0085833 90.6033333,15.1649167 L90.6033333,15.7925833 C90.6033333,15.9034167 90.6605,15.98625 90.8133333,15.98625 C90.9626667,15.98625 99.1305,15.9815833 99.1305,15.9815833 C99.2448333,15.9815833 99.337,15.8859167 99.337,15.7704167 L99.337,14.3190833 C99.337,14.20125 99.2448333,14.1079167 99.1305,14.1079167 L97.1646667,14.1079167 C97.0503333,14.1079167 96.957,14.20125 96.957,14.3190833 L96.957,14.9339167 L96.061,14.9339167 L96.061,13.3554167 L100.034667,13.3554167 L100.034667,16.7410833 L98.8096667,16.7410833 C98.6941667,16.7410833 98.6043333,16.83675 98.6043333,16.95225 L98.6043333,17.5775833 C98.6043333,17.6919167 98.6941667,17.7875833 98.8096667,17.7875833 L102.207,17.7875833 C102.319,17.7875833 102.412333,17.6919167 102.412333,17.5775833 L102.412333,12.5189167 C102.412333,12.4034167 102.319,12.3100833 102.207,12.3100833 L96.061,12.3100833 L96.061,11.5284167 L102.207,11.5330833 C102.260667,11.5330833 102.314333,11.5120833 102.3505,11.47125 C102.390167,11.4315833 102.412333,11.3790833 102.412333,11.3230833 L102.412333,7.37391667 C102.412333,7.25841667 102.319,7.16391667 102.207,7.16391667 Z" id="Fill-15" fill="#020800" mask="url(#mask-2)"></path>
                    <path d="M102.20735,4.1517 L96.58635,4.1517 L96.0216833,2.89753333 C95.99135,2.8217 95.91785,2.77386667 95.8350167,2.77386667 L93.9100167,2.77386667 C93.8411833,2.77386667 93.7735167,2.8112 93.73735,2.8707 C93.69535,2.93136667 93.6941833,3.00603333 93.7210167,3.07253333 L94.6251833,5.08736667 C94.6590167,5.16203333 94.73485,5.21103333 94.81535,5.21103333 L96.74385,5.21103333 C96.76835,5.21103333 96.7916833,5.20636667 96.8161833,5.1982 L100.035017,5.1982 L100.035017,6.35903333 C100.035017,6.47453333 100.127183,6.56786667 100.241517,6.56786667 L102.20735,6.56786667 C102.31935,6.56786667 102.411517,6.47453333 102.411517,6.35903333 L102.411517,4.3617 C102.411517,4.24503333 102.31935,4.1517 102.20735,4.1517" id="Fill-16" fill="#020800" mask="url(#mask-2)"></path>
                    <polygon id="Fill-17" fill="#020800" mask="url(#mask-2)" points="45.0480333 16.1424667 46.2252 14.0739667 47.4047 16.1424667"></polygon>
                    <path d="M4.34058333,8.56368333 C3.98358333,8.56368333 3.63008333,8.40968333 3.38858333,8.11335 C2.96858333,7.59535 3.05375,6.83935 3.57991667,6.42635 L11.3989167,0.26285 C11.9239167,-0.151316667 12.68925,-0.06615 13.1115833,0.450683333 C13.5315833,0.968683333 13.44525,1.72468333 12.92025,2.13768333 L5.10125,8.30118333 C4.87608333,8.47735 4.60658333,8.56368333 4.34058333,8.56368333" id="Fill-18" fill="#ED7600" mask="url(#mask-2)"></path>
                    <path d="M23.5974667,8.56706667 C23.3314667,8.56706667 23.0631333,8.4819 22.8391333,8.30456667 L15.0073,2.13756667 C14.4823,1.72456667 14.3959667,0.968566667 14.8159667,0.450566667 C15.2359667,-0.0662666667 16.0013,-0.151433333 16.5274667,0.262733333 L24.3581333,6.42973333 C24.8831333,6.84273333 24.9694667,7.59873333 24.5494667,8.11673333 C24.3103,8.41306667 23.9544667,8.56706667 23.5974667,8.56706667" id="Fill-19" fill="#ED7600" mask="url(#mask-2)"></path>
                    <path d="M12.1529333,18.29345 C11.8857667,18.29345 11.6174333,18.2071167 11.3934333,18.0297833 L3.57326667,11.8732833 C3.0471,11.4591167 2.9631,10.7042833 3.38193333,10.1862833 C3.80193333,9.66828333 4.56843333,9.58428333 5.09343333,9.99845 L12.9136,16.15495 C13.4386,16.5691167 13.5249333,17.32395 13.1049333,17.84195 C12.8646,18.1382833 12.5111,18.29345 12.1529333,18.29345" id="Fill-20" fill="#ED7600" mask="url(#mask-2)"></path>
                    <path d="M15.7925833,18.29345 C15.4344167,18.29345 15.0809167,18.1382833 14.84175,17.8431167 C14.4205833,17.3251167 14.50575,16.5691167 15.0319167,16.15495 L22.8299167,10.00895 C23.3549167,9.59595 24.1214167,9.67995 24.5414167,10.19795 C24.9625833,10.7147833 24.8774167,11.4696167 24.3500833,11.8837833 L16.55325,18.0297833 C16.3280833,18.2071167 16.05975,18.29345 15.7925833,18.29345" id="Fill-21" fill="#ED7600" mask="url(#mask-2)"></path>
                    <path d="M25.5365833,27.9225333 L2.40158333,27.9225333 C1.72725,27.9225333 1.18241667,27.3858667 1.18241667,26.7232 C1.18241667,26.0593667 1.72725,25.5227 2.40158333,25.5227 L25.5365833,25.5227 C26.2085833,25.5227 26.7534167,26.0593667 26.7534167,26.7232 C26.7534167,27.3858667 26.2085833,27.9225333 25.5365833,27.9225333" id="Fill-22" fill="#ED7600" mask="url(#mask-2)"></path>
                    <path d="M1.21835,24.5397833 C0.545183333,24.5397833 0.00035,24.00195 0.00035,23.34045 L0.00035,12.7552833 C0.00035,12.0926167 0.545183333,11.55595 1.21835,11.55595 C1.88918333,11.55595 2.43518333,12.0926167 2.43518333,12.7552833 L2.43518333,23.34045 C2.43518333,24.00195 1.88918333,24.5397833 1.21835,24.5397833" id="Fill-23" fill="#ED7600" mask="url(#mask-2)"></path>
                    <path d="M26.7055833,24.5397833 C26.03475,24.5397833 25.4899167,24.00195 25.4899167,23.34045 L25.4899167,12.7552833 C25.4899167,12.0926167 26.03475,11.55595 26.7055833,11.55595 C27.37875,11.55595 27.9235833,12.0926167 27.9235833,12.7552833 L27.9235833,23.34045 C27.9235833,24.00195 27.37875,24.5397833 26.7055833,24.5397833" id="Fill-24" fill="#ED7600" mask="url(#mask-2)"></path>
                    <path d="M37.1935667,23.5264167 C37.0197333,22.89175 36.4690667,20.9889167 36.4690667,20.9889167 C36.3874,20.7450833 36.2147333,20.6225833 35.9510667,20.6225833 C35.6652333,20.6424167 35.4914,20.81625 35.4295667,21.14175 C35.4295667,21.14175 34.6315667,25.74075 34.6164,25.8655833 C34.5907333,26.09075 34.7167333,26.2284167 34.9092333,26.2505833 C35.0982333,26.2739167 35.2790667,26.1945833 35.3152333,25.94725 L35.9510667,21.50925 L35.9790667,21.50925 C35.9790667,21.50925 36.4574,23.1204167 36.6335667,23.7259167 C36.7467333,24.11675 37.3394,24.02225 37.1935667,23.5264167" id="Fill-25" fill="#020800" mask="url(#mask-2)"></path>
                    <path d="M37.2471167,24.6002167 C37.42445,23.9643833 38.2446167,20.98005 38.2446167,20.98005 C38.3262833,20.73505 38.49895,20.6137167 38.76495,20.6137167 C39.0496167,20.6323833 39.22345,20.8073833 39.28295,21.1328833 C39.28295,21.1328833 40.0681167,25.67355 40.0996167,25.8602167 C40.12995,26.04805 40.03545,26.2288833 39.8091167,26.2498833 C39.5827833,26.26855 39.4311167,26.16705 39.3996167,25.93955 C39.36695,25.7108833 38.76495,21.4992167 38.76495,21.4992167 L38.73345,21.4992167 C38.73345,21.4992167 37.9727833,24.1743833 37.81295,24.7833833 C37.6951167,25.1882167 37.1106167,25.0808833 37.2471167,24.6002167" id="Fill-26" fill="#020800" mask="url(#mask-2)"></path>
                    <path d="M47.6565833,23.1288167 L46.8609167,23.1288167 C46.6485833,23.1288167 46.52725,23.27115 46.52725,23.4484833 C46.52725,23.62815 46.6579167,23.77165 46.89475,23.77165 L47.6309167,23.77165 C47.86775,23.77165 47.9925833,23.63515 47.9925833,23.4484833 C47.9925833,23.2629833 47.8619167,23.1288167 47.6565833,23.1288167" id="Fill-27" fill="#020800" mask="url(#mask-2)"></path>
                    <path d="M47.8394,20.6826667 L45.8829,20.6826667 C45.6180667,20.6826667 45.4944,20.8051667 45.5165667,21.0501667 L45.5165667,25.928 C45.5165667,26.131 45.6682333,26.2488333 45.8514,26.2488333 C46.0357333,26.2488333 46.1874,26.1391667 46.1874,25.9105 L46.1874,21.385 L46.1874,21.3266667 L47.8394,21.3266667 C48.0599,21.3266667 48.1765667,21.1878333 48.1765667,21 C48.1765667,20.811 48.0517333,20.6826667 47.8394,20.6826667" id="Fill-28" fill="#020800" mask="url(#mask-2)"></path>
                    <path d="M43.36815,21.9695 C43.1429833,21.9135 43.0099833,22.0033333 42.9703167,22.1736667 C42.9388167,22.309 42.9994833,22.456 43.1954833,22.5341667 C43.68315,22.7278333 43.9468167,23.2458333 43.9818167,24.0718333 C43.9374833,25.1405 43.5443167,25.6736667 42.7848167,25.704 C42.00665,25.6736667 41.6134833,25.1405 41.5854833,24.0765 C41.6123167,23.1 41.8864833,22.6193333 42.49315,22.4828333 C42.6459833,22.4396667 42.7369833,22.3206667 42.6949833,22.148 C42.6588167,21.9951667 42.5304833,21.9345 42.34965,21.9531667 C42.08715,21.9916667 41.93315,22.0581667 41.7208167,22.218 C41.2028167,22.6076667 40.9158167,23.2656667 40.9158167,24.0753333 C40.9158167,25.3481667 41.6473167,26.201 42.78015,26.2476667 L42.7824833,26.2488333 L42.7859833,26.2476667 C43.9538167,26.1998333 44.59315,25.4485 44.63165,24.0718333 C44.5978167,22.9506667 44.14865,22.2063333 43.36815,21.9695" id="Fill-29" fill="#020800" mask="url(#mask-2)"></path>
                    <path d="M79.9512,25.88705 L79.9512,22.45005 C79.9512,22.2062167 80.0632,22.05105 80.2872,22.05105 C80.5100333,22.05105 80.6197,22.2062167 80.6197,22.45005 L80.6197,22.7802167 L80.6512,22.7802167 C80.8938667,22.3147167 81.2077,22.0708833 81.5938667,22.05105 C81.8540333,22.0463833 81.9602,22.23305 81.9590333,22.41505 C81.9578667,22.60755 81.8365333,22.71955 81.5332,22.7802167 C80.9452,22.90155 80.6395333,23.29705 80.6197,23.9667167 L80.6197,25.88705 C80.6197,26.0912167 80.5100333,26.24755 80.2872,26.24755 C80.0632,26.24755 79.9512,26.0912167 79.9512,25.88705" id="Fill-30" fill="#020800" mask="url(#mask-2)"></path>
                    <path d="M68.7010333,20.8871833 C68.6147,20.66085 68.4735333,20.57335 68.2530333,20.6456833 C68.0512,20.7121833 68.0710333,20.96535 68.1072,21.0656833 C68.1422,21.16485 68.3358667,21.7131833 68.3358667,21.7131833 L69.1665333,24.06635 L67.2660333,24.06635 L67.9007,22.3280167 C67.9613667,22.1845167 67.9928667,22.0725167 67.9928667,21.9920167 C67.9928667,21.8275167 67.8890333,21.6886833 67.6848667,21.6886833 C67.5017,21.6886833 67.3920333,21.8181833 67.3512,21.95935 L66.5158667,24.2681833 L66.5135333,24.27285 C66.2720333,24.9285167 65.9990333,25.6670167 65.9990333,25.6670167 C65.9372,25.80935 65.9057,25.92135 65.9057,26.0041833 C65.9057,26.16635 66.0200333,26.3040167 66.2078667,26.3040167 C66.3922,26.3040167 66.5077,26.17685 66.5485333,26.0345167 L66.9148667,25.0241833 L67.0548667,24.6450167 L69.3753667,24.6450167 L69.5118667,25.0241833 L69.5142,25.0241833 L69.5445333,25.1175167 L69.8362,25.9855167 C69.9155333,26.24685 70.1150333,26.3460167 70.3110333,26.2841833 C70.5222,26.2176833 70.5548667,26.0135167 70.4720333,25.7895167 C70.3892,25.56435 68.7010333,20.8871833 68.7010333,20.8871833" id="Fill-31" fill="#020800" mask="url(#mask-2)"></path>
                    <path d="M54.0908667,22.4138833 C54.0897,22.17355 53.9788667,22.0522167 53.7560333,22.0522167 C53.5320333,22.0522167 53.4212,22.17355 53.4212,22.4173833 L53.4212,25.8823833 C53.4212,26.0853833 53.5320333,26.2498833 53.7560333,26.2498833 C53.9788667,26.2498833 54.0908667,26.0853833 54.0908667,25.8823833 L54.0908667,24.8382167 L54.0908667,22.4138833 Z" id="Fill-32" fill="#020800" mask="url(#mask-2)"></path>
                    <path d="M55.2769,22.0521 C54.9537333,22.0416 54.6877333,22.0941 54.5185667,22.1839333 C54.3377333,22.2737667 54.2887333,22.4301 54.3657333,22.5829333 C54.4345667,22.7252667 54.5897333,22.7602667 54.7495667,22.7136 C54.8382333,22.6867667 54.9280667,22.6564333 55.0855667,22.6611 C55.6934,22.7031 55.9862333,23.0367667 56.0060667,23.6632667 L56.0060667,25.8764333 C56.0060667,26.0806 56.1274,26.2497667 56.3712333,26.2497667 C56.5929,26.2497667 56.7049,26.0806 56.7049,25.8764333 L56.7049,23.6341 C56.6640667,22.6599333 56.1892333,22.1337667 55.2769,22.0521" id="Fill-33" fill="#020800" mask="url(#mask-2)"></path>
                    <path d="M96.7374333,22.4138833 C96.7362667,22.17355 96.6254333,22.0522167 96.4026,22.0522167 C96.1786,22.0522167 96.0677667,22.17355 96.0677667,22.4173833 L96.0677667,25.8823833 C96.0677667,26.0853833 96.1786,26.2498833 96.4026,26.2498833 C96.6254333,26.2498833 96.7374333,26.0853833 96.7374333,25.8823833 L96.7374333,24.8382167 L96.7374333,22.4138833 Z" id="Fill-34" fill="#020800" mask="url(#mask-2)"></path>
                    <path d="M97.9228833,22.0521 C97.60205,22.0416 97.33255,22.0941 97.16455,22.1839333 C96.98255,22.2737667 96.9358833,22.4301 97.0117167,22.5829333 C97.0828833,22.7252667 97.23805,22.7602667 97.3967167,22.7136 C97.4853833,22.6867667 97.5752167,22.6564333 97.7327167,22.6611 C98.3382167,22.7031 98.6322167,23.0367667 98.65205,23.6632667 L98.65205,25.8764333 C98.65205,26.0806 98.7733833,26.2497667 99.0172167,26.2497667 C99.24005,26.2497667 99.35205,26.0806 99.35205,25.8764333 L99.35205,23.6341 C99.31005,22.6599333 98.83405,22.1337667 97.9228833,22.0521" id="Fill-35" fill="#020800" mask="url(#mask-2)"></path>
                    <path d="M83.73715,24.4281333 L83.73715,21.6398 L83.73715,21.2011333 C83.73715,20.9643 83.5843167,20.8359667 83.3848167,20.8359667 C83.1829833,20.8359667 83.03715,20.9573 83.03715,21.2011333 L83.03715,22.1123 L82.7653167,22.1123 C82.5413167,22.1123 82.4293167,22.2161333 82.4293167,22.4016333 C82.4293167,22.5871333 82.5413167,22.6898 82.7653167,22.6898 L83.03715,22.6898 L83.03715,25.8678 C83.03715,26.1104667 83.1654833,26.2493 83.3894833,26.2493 C83.6333167,26.2493 83.73715,26.0708 83.73715,25.8678 L83.73715,24.4281333 Z" id="Fill-36" fill="#020800" mask="url(#mask-2)"></path>
                    <path d="M84.4856833,22.1125333 L84.26985,22.1125333 C84.1146833,22.1125333 84.00385,22.2327 84.00385,22.4018667 C84.00385,22.5722 84.1275167,22.6900333 84.29085,22.6900333 L84.50435,22.6900333 C84.6490167,22.6900333 84.7691833,22.5838667 84.7691833,22.4018667 C84.7691833,22.2000333 84.63385,22.1125333 84.4856833,22.1125333" id="Fill-37" fill="#020800" mask="url(#mask-2)"></path>
                    <path d="M101.386483,24.4281333 L101.386483,21.6398 L101.38765,21.6398 L101.38765,21.2011333 C101.38765,20.9643 101.235983,20.8359667 101.036483,20.8359667 C100.835817,20.8359667 100.688817,20.9573 100.688817,21.2011333 L100.688817,22.1123 L100.415817,22.1123 C100.191817,22.1123 100.079817,22.2161333 100.079817,22.4016333 C100.079817,22.5871333 100.191817,22.6898 100.415817,22.6898 L100.688817,22.6898 L100.688817,25.8678 C100.688817,26.1104667 100.81715,26.2493 101.04115,26.2493 C101.28615,26.2493 101.38765,26.0708 101.38765,25.8678 L101.38765,24.4281333 L101.386483,24.4281333 Z" id="Fill-38" fill="#020800" mask="url(#mask-2)"></path>
                    <path d="M102.136067,22.1125333 L101.9214,22.1125333 C101.766233,22.1125333 101.6554,22.2327 101.6554,22.4018667 C101.6554,22.5722 101.779067,22.6900333 101.941233,22.6900333 L102.1559,22.6900333 C102.300567,22.6900333 102.420733,22.5838667 102.420733,22.4018667 C102.420733,22.2000333 102.284233,22.1125333 102.136067,22.1125333" id="Fill-39" fill="#020800" mask="url(#mask-2)"></path>
                    <path d="M52.0081333,22.0509333 C51.7736333,22.0509333 51.6884667,22.2026 51.6884667,22.4067667 L51.6884667,22.5981 C51.4236333,22.2807667 51.0853,22.0719333 50.5603,22.0661 C49.3971333,22.0777667 48.7379667,22.8582667 48.7379667,24.1789333 C48.7379667,25.4949333 49.4134667,26.2451 50.5638,26.2474333 C50.7539667,26.2474333 51.0666333,26.1832667 51.2626333,26.0759333 C51.4749667,25.9522667 51.4609667,25.7702667 51.4061333,25.6722667 C51.3513,25.5742667 51.2241333,25.4914333 51.0281333,25.5824333 C50.9033,25.6419333 50.7959667,25.6921 50.5638,25.6991 C49.7774667,25.6792667 49.4484667,25.1519333 49.4076333,24.1789333 C49.4484667,23.2059333 49.8381333,22.6797667 50.5638,22.6587667 C51.2731333,22.6797667 51.6884667,23.1814333 51.6884667,24.1789333 L51.6884667,25.9172667 C51.6884667,26.1004333 51.8121333,26.2474333 52.0221333,26.2474333 C52.2333,26.2474333 52.3278,26.0841 52.3278,25.8951 L52.3278,22.4091 C52.3278,22.2061 52.2309667,22.0509333 52.0081333,22.0509333" id="Fill-40" fill="#020800" mask="url(#mask-2)"></path>
                    <path d="M78.8985167,22.0509333 C78.6651833,22.0509333 78.5800167,22.2026 78.5800167,22.4067667 L78.5800167,22.5981 C78.3151833,22.2807667 77.97685,22.0719333 77.45185,22.0661 C76.2886833,22.0777667 75.6306833,22.8582667 75.6306833,24.1789333 C75.6306833,25.4949333 76.3050167,26.2451 77.45535,26.2474333 C77.64435,26.2474333 77.95935,26.1832667 78.1530167,26.0759333 C78.3665167,25.9522667 78.3525167,25.7702667 78.2976833,25.6722667 C78.24285,25.5742667 78.1156833,25.4914333 77.92085,25.5824333 C77.79485,25.6419333 77.6875167,25.6921 77.45535,25.6991 C76.6690167,25.6792667 76.3400167,25.1519333 76.2991833,24.1789333 C76.3400167,23.2059333 76.7296833,22.6797667 77.45535,22.6587667 C78.1646833,22.6797667 78.5800167,23.1814333 78.5800167,24.1789333 L78.5800167,25.9172667 C78.5800167,26.1004333 78.7036833,26.2474333 78.9136833,26.2474333 C79.12485,26.2474333 79.21935,26.0841 79.21935,25.8951 L79.21935,22.4091 C79.21935,22.2061 79.12135,22.0509333 78.8985167,22.0509333" id="Fill-41" fill="#020800" mask="url(#mask-2)"></path>
                    <path d="M92.5122333,24.1963167 C92.5122333,24.3398167 92.6277333,24.45415 92.7700667,24.45415 L94.8805667,24.45415 C95.1174,24.45415 95.2655667,24.35265 95.2469,24.0889833 C95.1442333,22.81265 94.5515667,22.09865 93.4794,22.0624833 C92.3232333,22.0624833 91.6279,22.8768167 91.6279,24.1799833 C91.6279,25.48665 92.3477333,26.22865 93.5435667,26.24965 C94.4745667,26.24965 94.9470667,25.8553167 95.1617333,25.51815 C95.2340667,25.39215 95.2049,25.1949833 95.0159,25.14015 C94.8537333,25.0934833 94.7254,25.2078167 94.6005667,25.3104833 C94.2750667,25.58465 94.0534,25.7013167 93.5132333,25.7013167 C92.8074,25.7013167 92.2532333,25.2124833 92.2532333,24.1088167 C92.2532333,23.2664833 92.7525667,22.6609833 93.4829,22.6609833 C94.1514,22.7018167 94.5165667,23.1264833 94.5760667,23.9373167 L92.7700667,23.9373167 C92.6277333,23.9373167 92.5122333,24.0528167 92.5122333,24.1963167" id="Fill-42" fill="#020800" mask="url(#mask-2)"></path>
                    <path d="M60.9826,22.03565 C60.7912667,22.03565 60.6501,22.16165 60.6501,22.3844833 L60.6501,22.56765 L60.6197667,22.56765 C60.3841,22.2293167 60.0527667,22.0508167 59.5849333,22.0508167 C58.4322667,22.1068167 57.7626,22.8464833 57.7626,24.1788167 C57.7626,25.4878167 58.4054333,26.2473167 59.5849333,26.2473167 C59.7389333,26.2473167 60.0259333,26.23915 60.2324333,26.1189833 C60.4319333,26.0023167 60.4587667,25.8308167 60.3841,25.7048167 C60.2977667,25.5613167 60.1367667,25.5694833 60.0294333,25.6044833 C59.8999333,25.6628167 59.7517667,25.6954833 59.5849333,25.70015 C58.8557667,25.6604833 58.4707667,25.1518167 58.4299333,24.1788167 C58.4707667,23.2058167 58.8557667,22.70065 59.5849333,22.6598167 C60.2942667,22.67965 60.6547667,23.2034833 60.6547667,24.0948167 C60.6547667,24.5054833 60.6454333,26.1178167 60.6454333,26.1178167 C60.5906,26.87265 60.2184333,27.26115 59.5254333,27.28215 C59.2209333,27.28215 58.8966,27.1794833 58.5512667,26.9764833 C58.4439333,26.9134833 58.3447667,26.8539833 58.2619333,26.80615 C58.1091,26.7163167 57.9131,26.7384833 57.8232667,26.8633167 C57.7334333,26.98815 57.7462667,27.1468167 57.8757667,27.28565 C58.1441,27.5598167 58.7461,27.8888167 59.4636,27.8888167 C60.7072667,27.9063167 61.3186,27.26465 61.3186,25.9428167 L61.3186,22.3844833 C61.3186,22.18265 61.1751,22.03565 60.9826,22.03565" id="Fill-43" fill="#020800" mask="url(#mask-2)"></path>
                    <path d="M88.2364,22.6354333 C87.9447333,22.2434333 87.5550667,22.0521 87.1269,22.0521 C86.6800667,22.0521 86.3359,22.2247667 86.0932333,22.5689333 L86.0629,22.5689333 L86.0629,22.4172667 C86.0629,22.1734333 85.9520667,22.0521 85.7280667,22.0521 C85.5052333,22.0521 85.3944,22.1734333 85.3944,22.4172667 L85.3944,25.8764333 C85.3944,26.0806 85.5052333,26.2497667 85.7280667,26.2497667 C85.9520667,26.2497667 86.0629,26.0806 86.0629,25.8764333 L86.0629,23.6026 C86.0815667,22.9947667 86.3767333,22.6809333 86.9449,22.6599333 C87.5130667,22.6809333 87.8059,22.9947667 87.8257333,23.6026 L87.8257333,25.8927667 C87.8257333,26.0969333 87.9482333,26.2497667 88.1909,26.2497667 C88.4137333,26.2497667 88.5257333,26.0969333 88.5257333,25.8927667 L88.5257333,23.6026 C88.5257333,23.2724333 88.4440667,22.9772667 88.3122333,22.7462667 C88.2877333,22.7089333 88.2609,22.6704333 88.2364,22.6354333" id="Fill-44" fill="#020800" mask="url(#mask-2)"></path>
                    <path d="M89.5295333,22.0521 C89.0092,22.0311 88.7712,22.1967667 88.6207,22.3239333 C88.4713667,22.4546 88.4538667,22.6202667 88.5437,22.7451 C88.6347,22.8687667 88.8143667,22.8781 88.9100333,22.8314333 C89.0488667,22.7661 89.1328667,22.6692667 89.4292,22.6599333 C89.9227,22.6471 90.2692,22.9947667 90.2913667,23.6026 L90.2913667,25.8752667 C90.2913667,26.0782667 90.4010333,26.2497667 90.6238667,26.2497667 C90.8677,26.2497667 90.9890333,26.0782667 90.9890333,25.8752667 L90.9890333,23.6341 C90.9482,22.6599333 90.4617,22.1337667 89.5295333,22.0521" id="Fill-45" fill="#020800" mask="url(#mask-2)"></path>
                    <path d="M73.2132333,22.0509333 C72.6707333,22.0509333 72.3009,22.2434333 72.1189,22.6296 L72.0874,22.6296 L72.0874,22.4149333 C72.0874,22.1722667 71.9765667,22.0369333 71.7525667,22.0369333 C71.5309,22.0369333 71.4189,22.1722667 71.4189,22.4149333 L71.4189,27.4934333 C71.4189,27.7372667 71.5309,27.8737667 71.7525667,27.8737667 C71.9765667,27.8737667 72.0874,27.7256 72.0874,27.4817667 C72.0874,27.4817667 72.0909,25.0259333 72.0909,24.1159333 C72.0909,23.2059333 72.4677333,22.6646 73.1537333,22.6587667 C73.8922333,22.6821 74.2679,23.2059333 74.3075667,24.1789333 C74.2679,25.1519333 73.8864,25.6792667 73.1537333,25.6792667 C72.9507333,25.6734333 72.8469,25.6279333 72.7162333,25.5649333 C72.5890667,25.4996 72.4175667,25.5159333 72.3370667,25.6337667 C72.2740667,25.7271 72.2519,25.9056 72.4082333,26.0269333 C72.6299,26.1832667 72.9005667,26.2474333 73.2132333,26.2474333 C74.2760667,26.2474333 74.9772333,25.5007667 74.9772333,24.1789333 C74.9772333,22.8407667 74.1605667,22.0509333 73.2132333,22.0509333" id="Fill-46" fill="#020800" mask="url(#mask-2)"></path>
                </g>
            </g>
        </g>
    </g>
</svg>