<?xml version="1.0" encoding="utf-8"?>
<!-- Generator: Adobe Illustrator 23.0.2, SVG Export Plug-In . SVG Version: 6.00 Build 0)  -->
<svg version="1.1" id="图层_1" xmlns="http://www.w3.org/2000/svg" xmlns:xlink="http://www.w3.org/1999/xlink" x="0px" y="0px"
	 viewBox="0 0 978.1 270.1" style="enable-background:new 0 0 978.1 270.1;" xml:space="preserve">
<style type="text/css">
	.st0{fill:#004477;}
	.st1{fill:#ED6D46;}
	.st2{fill:#FBCA4D;}
	.st3{fill:#8DC556;}
	.st4{fill:#7DCCE4;}
</style>
<g>
	<g>
		<g>
			<path class="st0" d="M167.6,122.2c-1-8.3-1.4-16-1.8-22.7c-0.8-13.2-1.3-21.9-4.8-21.9c-1.6,0-4.7,1.6-13.6,14
				c-7.4,10.2-19.9,35.1-20,35.3l-0.2,0.4l-0.2-0.4c0-0.1-3.2-7.1-5.9-19c-0.9-4.2-1.7-7.9-2.3-11.1C117,88,116,83.2,114,83.2
				c-0.1,0-0.1,0-0.2,0c-6.8,0.8-23.5,32.3-31,49c-7.1,15.9-18.7,49.2-18.9,51.9c0,0.3,0.1,0.6,0.3,0.8c0.4,0.5,1.5,0.7,3,0.7l0,0
				c4.1,0,10.1-1.7,10.7-2.2c0.9-0.6,1.6-3,2.7-6.9c0.7-2.2,1.5-5,2.6-8.4c2-6.1,5-14.4,9.1-25.4c7.9-21.2,18.6-41.1,18.7-41.3
				c0,0,0.1-0.2,0.2-0.2c0.1,0,0.2,0.2,0.2,0.2c0,0.2,3,15.5,5.4,25.5c3.5,14.8,7.2,22.9,10.3,23c2.3,0,4.9-5.6,8.5-13.4
				c1.7-3.6,3.6-7.8,5.8-12.1c5.1-9.8,13.5-22.3,13.6-22.4c0,0,0.1-0.2,0.2-0.2c0.1,0,0.1,0.3,0.1,0.3c0,0.2,1.2,22.6,3.7,35.7
				l0.3,1.7c2.1,10.9,3.9,20.3,7.2,28.5c1,2.3,2.6,3.4,4.6,3c1.2-0.2,2.2-1,3.2-2.2c0.9-1.3,1.4-2.6,1.4-3.9v-0.2
				C172.6,154.5,169.5,138.5,167.6,122.2z"/>
			<path class="st0" d="M67.1,187.4c-2.1,0-3.5-0.4-4.3-1.3c-0.5-0.6-0.8-1.3-0.7-2.1c0.2-3.2,12.1-37,19.1-52.5
				c0.2-0.5,22.3-48.8,32.4-50h0.4c3.5,0,4.4,4.4,6.5,15c0.7,3.3,1.4,6.9,2.3,11c1.6,7,3.3,12.3,4.5,15.5c3.6-7,12.7-24.3,18.6-32.5
				c9.8-13.6,12.9-14.7,15.1-14.7c5.2,0,5.7,8.4,6.6,23.6c0.4,6.7,0.9,14.3,1.8,22.6l0,0c1.9,16.2,4.9,32.1,8.1,42.4l0.1,0.4
				c0,2-0.6,3.7-1.7,5.2c-1.2,1.7-2.7,2.7-4.3,2.9c-1.7,0.3-4.8,0.1-6.6-4.1c-3.3-8.4-5.2-17.9-7.3-28.8l-0.3-1.8
				c-1.8-9.6-3-23.9-3.5-31.2c-2.9,4.5-7.7,12-10.9,18.3c-2.2,4.3-4.1,8.4-5.8,12c-4.3,9.3-6.7,14.4-10.1,14.4
				c-2.7-0.1-6.9-2.7-12.1-24.4c-1.6-6.8-3.5-15.8-4.5-21.2c-3.7,7.2-10.8,21.8-16.6,37.1c-4.1,11.1-7.1,19.4-9.1,25.3
				c-1.1,3.3-1.9,6.1-2.6,8.3c-1.3,4.6-2,6.9-3.5,7.8C77.8,185.6,71.4,187.4,67.1,187.4z M65.8,183.7c0.3,0,0.7,0.1,1.3,0.1
				c3.6,0,9-1.5,9.8-1.9c0.3-0.4,1.1-3.2,1.9-5.8c0.7-2.3,1.5-5.1,2.6-8.4c2-6,5-14.3,9.1-25.4c7.3-19.6,16.9-38,18.8-41.5
				c0.5-0.9,1.3-1.4,2.2-1.2l1.2,0.2l0.3,1.5c0,0.1,2.9,15.4,5.3,25.4c5,21,8.6,21.7,8.7,21.7c1.3-0.5,4.3-7.1,6.8-12.4
				c1.7-3.7,3.6-7.8,5.9-12.2c5-9.7,13.4-22.1,13.7-22.6l0.8-1.1l1.5,0.2c0.8,0.3,1.3,1,1.4,1.9c0,0.2,1.2,22.4,3.7,35.5l0.3,1.7
				c2.1,10.8,3.9,20.2,7.1,28.2c0.9,2.2,2.1,2,2.7,1.9c0.7-0.1,1.4-0.6,2.1-1.5c0.7-0.9,1-1.8,1-2.7c-3.3-10.6-6.3-26.6-8.2-42.9
				l0,0c-1-8.5-1.4-16.1-1.8-22.8c-0.5-8-1.2-20.2-3-20.2c-0.8,0-3.5,1.3-12.2,13.2c-7.2,10-19.7,34.8-19.9,35.1l-1.9,3.6l-1.7-3.7
				c-0.1-0.3-3.3-7.5-6-19.3c-0.9-4.2-1.7-7.8-2.3-11c-1.1-5.5-2.2-11.1-3.2-12.3c-5.1,1.4-19.8,26.6-29.3,47.9
				C77.6,148.4,67,178.9,65.8,183.7z M156.6,103c0,0-0.1,0.1-0.1,0.2C156.5,103.2,156.5,103.1,156.6,103z"/>
		</g>
		<circle class="st1" cx="215.3" cy="218.6" r="21"/>
		<circle class="st2" cx="161.2" cy="253.5" r="16.6"/>
		<circle class="st3" cx="99.1" cy="256.6" r="13.5"/>
		<circle class="st4" cx="43.4" cy="230" r="9.6"/>
		<path class="st0" d="M3.8,173.8C1,158.1,0,149.9,0,137.6C0,61.2,57.2,0.3,128.4,0c65.5-0.3,123.3,51.9,134.8,115.5
			c3.5,19.6,3.1,40.3-3.2,59.2l-28.6-4.6c2.4-9.2,4.7-21.8,4.7-31.5c0-60.5-48.3-117.8-107.7-117.3C58.9,22.1,10.2,78.2,10.2,138.7
			c0,9.7,0.5,24.7,3,34L3.8,173.8z"/>
	</g>
	<g>
		<path class="st0" d="M323.2,68.5c-1.8,0-3.2-0.4-4.1-1.2c-0.9-0.8-1.4-2.2-1.4-4.2c0-1.9,0.4-3.3,1.1-4.2c0.7-0.9,2.2-1.3,4.4-1.3
			H356c3.6,0,5.4,1.8,5.4,5.5c0,2-0.5,3.4-1.4,4.2c-0.9,0.8-2.3,1.2-4,1.2h-0.3V122c1.6-0.4,3.1-0.4,4.3-0.1
			c1.2,0.3,2.1,1.2,2.5,2.9c0.5,1.8,0.4,3.5-0.3,4.9c-0.7,1.4-2.2,2.6-4.6,3.3l-1.9,0.6v13.3c0,2.1-0.4,3.6-1.3,4.5
			s-2.2,1.3-4.1,1.3c-1.8,0-3.2-0.4-4.2-1.3c-1-0.9-1.4-2.4-1.4-4.5v-10.2c-2.9,0.8-6.1,1.5-9.5,2.2s-7,1.4-10.9,2.2
			c-4.9,1-7.6-0.2-8.3-3.6c-0.6-2.3-0.4-4.1,0.5-5.2c0.9-1.2,2.5-2,4.9-2.4l2.2-0.3V68.5C323.6,68.5,323.2,68.5,323.2,68.5z
			 M334.4,80.6h10.3V68.5h-10.4v12.1H334.4z M334.4,104.2h10.3v-13h-10.4v13H334.4z M334.4,127.4c1.3-0.4,3-0.7,5.1-1.1
			c2-0.4,3.8-0.7,5.3-1.2v-10.4h-10.4V127.4z M381.9,98.3c0.1-3,0.2-6.2,0.2-9.6c0-3.4-0.1-6.6-0.1-9.6h-13.8
			c-2.1,0-3.6-0.4-4.4-1.3c-0.8-0.8-1.2-2.4-1.2-4.8s0.4-3.9,1.3-4.7c0.9-0.8,2.4-1.1,4.5-1h4c-0.6-1.1-1.1-2.1-1.7-3.1
			c-0.6-1-1.2-1.9-1.7-2.7c-1.6-2.1-2.3-3.8-2.2-5.2c0.1-1.3,0.9-2.6,2.4-3.9c1.8-1.2,3.3-1.6,4.7-1.3c1.4,0.4,2.7,1.4,3.9,3.2
			c1,1.4,2.1,3.2,3.2,5.2c1.2,2.1,2.5,4.7,4.1,7.8h8.7c1.2-2,2.2-4.1,3-6.1s1.6-3.9,2.4-5.5c1-2.1,2-3.6,3.1-4.4s2.7-0.7,4.8,0.3
			c1.6,0.9,2.7,2,3.3,3.4c0.6,1.3,0.1,3.3-1.3,5.9c-0.4,1-0.8,2-1.4,3.1c-0.6,1.1-1.2,2.2-1.7,3.4h3.7c4.5-0.6,6.8,1.3,6.8,5.9
			c0,2.3-0.5,3.9-1.5,4.6s-2.5,1.1-4.7,1.1H394c-0.1,3.4-0.2,6.8-0.3,10.2c0,3.4-0.1,6.4-0.3,9h18.3c2,0,3.6,0.4,4.6,1.2
			s1.5,2.3,1.5,4.6s-0.5,3.9-1.5,4.8c-1,0.8-2.6,1.3-4.6,1.3h-13.9c1.9,6.4,4.4,12,7.4,16.8c3,4.8,6.2,9,9.6,12.6
			c1.9,2,3,3.9,3.2,5.6c0.2,1.7-0.3,3.3-1.7,4.9c-0.4,0.6-0.9,1.1-1.5,1.5s-1.3,0.5-2.1,0.5c-0.8-0.1-1.7-0.4-2.8-1.1
			c-1-0.6-2.1-1.6-3.2-3c-3.4-3.8-6.4-8-9.1-12.4c-2.7-4.5-5.1-9.8-7.3-15.9c-0.7,2.7-1.6,5.3-2.7,7.8c-1.1,2.5-2.5,5-4.1,7.5
			s-3.5,5-5.8,7.5c-2.2,2.5-4.8,5.1-7.8,7.9c-1.8,1.7-3.6,2.5-5.3,2.4c-1.7-0.1-3.2-0.8-4.4-2.2c-1.1-1.6-1.6-3.1-1.4-4.7
			c0.2-1.6,1.3-3.3,3.3-5.2c2.8-2.5,5.1-4.9,7.1-7.3c2-2.4,3.7-4.8,5-7.3c1.4-2.5,2.5-5,3.5-7.6s1.7-5.4,2.4-8.3h-12.7
			c-2.1,0-3.7-0.4-4.8-1.3c-1.1-0.8-1.6-2.4-1.6-4.8c0-2.3,0.5-3.8,1.6-4.6s2.7-1.2,4.8-1.2h14.5V98.3z"/>
		<path class="st0" d="M437,138.8v-14.2c0-4,0.9-6.8,2.7-8.3c1.8-1.5,4.7-2.3,8.7-2.3h61.3c4.6,0,7.7,0.8,9.4,2.5s2.5,4.5,2.5,8.4
			v13.9h3.3c2.4,0,4,0.5,4.8,1.4s1.2,2.3,1.2,4c0,1.9-0.4,3.3-1.2,4.1s-2.4,1.3-4.8,1.3H434c-2.5,0-4.1-0.4-4.8-1.3
			c-0.7-0.8-1.1-2.2-1.1-4.1c0-1.8,0.4-3.1,1.1-4s2.3-1.4,4.8-1.4L437,138.8L437,138.8z M471.1,93.4c0,2.3-0.1,4.1-0.4,5.6
			s-0.8,2.6-1.6,3.5c-0.8,0.8-1.9,1.4-3.3,1.7s-3.3,0.5-5.7,0.5h-14.8c-2.2,0-4-0.1-5.4-0.4c-1.4-0.3-2.5-0.8-3.3-1.6
			s-1.4-2-1.7-3.4c-0.3-1.5-0.5-3.4-0.5-5.8V67.2c0-2.2,0.1-4,0.4-5.5c0.2-1.4,0.7-2.6,1.5-3.5c0.7-0.9,1.8-1.5,3.3-1.9
			c1.4-0.4,3.4-0.5,5.8-0.5h14.8c2.3,0,4.2,0.2,5.7,0.5c1.4,0.3,2.6,0.9,3.4,1.7c0.8,0.8,1.3,2,1.6,3.5c0.2,1.5,0.4,3.4,0.4,5.6
			v26.3H471.1z M459.8,67.1c0-0.5-0.1-0.8-0.2-0.9s-0.4-0.2-0.9-0.2h-12.1c-0.5,0-0.8,0.1-0.9,0.2s-0.2,0.4-0.2,0.9V75h14.2v-7.9
			H459.8z M445.6,93.2c0,0.6,0.1,0.9,0.2,1s0.4,0.2,1,0.2h11.9c0.5,0,0.8-0.1,1-0.2c0.1-0.1,0.2-0.4,0.2-1v-7.7h-14.2v7.7H445.6z
			 M449.7,138.8h11.4v-14h-9.5c-0.8,0-1.4,0.1-1.6,0.4c-0.2,0.2-0.3,0.8-0.3,1.6V138.8z M482.9,108.2c-1.8,2.5-3.5,3.8-5,3.9
			c-1.5,0.1-3.1-0.6-4.8-2.1c-1.6-1.4-2.4-2.9-2.3-4.3c0.1-1.5,0.9-3.2,2.5-5.3c1.9-2.5,3.2-5.2,3.9-8.1c0.7-2.9,1-6.7,1-11.3V65.7
			c0-2.4,0.2-4.3,0.5-5.8c0.4-1.5,1-2.6,1.8-3.4s2-1.4,3.4-1.6c1.4-0.3,3.1-0.4,5.2-0.4h24.5c2.1,0,3.9,0.2,5.3,0.5
			c1.4,0.3,2.5,0.9,3.3,1.7c0.8,0.8,1.4,2,1.7,3.5c0.4,1.5,0.5,3.4,0.5,5.8v33.8c0,3.8-1,6.7-2.9,8.8c-1.9,2-4.9,3.1-8.9,3.3
			c-1.6,0.1-3.2,0.1-4.8-0.1c-1.7-0.1-3.8-0.5-6.5-1.1c-2.3-0.6-4-1.3-4.9-2.3c-1-1-1.1-2.5-0.5-4.6c0.4-1.2,0.7-2.1,1.2-2.8
			c0.4-0.6,0.9-1,1.5-1.2s1.3-0.2,2.1-0.1c0.8,0.1,1.8,0.3,3,0.6c1.7,0.4,2.9,0.7,3.7,0.7c0.8,0.1,1.6,0.2,2.3,0.3
			c1.1,0.2,1.8,0.2,2.1-0.2c0.3-0.3,0.4-1.1,0.4-2.5v-4.3h-23.1c-0.6,2.8-1.3,5.2-2.3,7.4C485.9,103.9,484.6,106,482.9,108.2z
			 M473.8,138.8h11v-14h-11V138.8z M490.2,81c0,0.8,0,1.5,0,2.2s0,1.3-0.1,2h22.2v-5.7h-22.1L490.2,81L490.2,81z M490.2,70.2h22.1
			v-4.3c0-1.1-0.6-1.6-1.8-1.6H492c-0.6,0-1.1,0.1-1.4,0.3c-0.3,0.2-0.4,0.6-0.4,1.3L490.2,70.2L490.2,70.2z M497.5,124.9v14h11.3
			v-11.7c0-1-0.2-1.6-0.5-1.9c-0.3-0.3-1-0.4-2.1-0.4L497.5,124.9L497.5,124.9z"/>
		<path class="st0" d="M587.4,138.6c0,2.3-0.2,4.1-0.5,5.5s-0.9,2.5-1.9,3.2c-0.9,0.8-2.2,1.3-3.8,1.6s-3.7,0.4-6.2,0.4h-17.9
			c-2.5,0-4.6-0.1-6.2-0.4c-1.6-0.3-2.8-0.8-3.7-1.6s-1.5-1.9-1.7-3.3c-0.3-1.4-0.4-3.2-0.4-5.5v-26.3c0-2.3,0.2-4.2,0.6-5.6
			c0.4-1.4,1-2.5,2-3.3c0.9-0.8,2.2-1.3,3.7-1.6c1.6-0.2,3.5-0.4,5.8-0.4h17.9c2.5,0,4.6,0.1,6.2,0.4c1.6,0.3,2.8,0.8,3.7,1.6
			s1.5,1.9,1.9,3.3c0.4,1.4,0.5,3.2,0.5,5.4L587.4,138.6L587.4,138.6z M628.6,82c0,2.3-0.1,4.1-0.4,5.6c-0.3,1.5-0.9,2.7-1.7,3.6
			c-0.9,0.9-2.1,1.6-3.7,1.9c-1.6,0.4-3.7,0.5-6.3,0.5h-49c-2.4,0-4.4-0.1-5.9-0.4c-1.6-0.3-2.8-0.8-3.7-1.7c-0.9-0.8-1.6-2-1.9-3.5
			c-0.4-1.5-0.5-3.5-0.5-6V68.5c0-2.5,0.2-4.5,0.5-6c0.4-1.6,1-2.8,1.9-3.6c0.9-0.8,2.2-1.4,3.7-1.7c1.6-0.3,3.5-0.4,5.9-0.4h49
			c2.4,0,4.4,0.2,6,0.5s2.8,0.9,3.8,1.7c0.9,0.8,1.6,2,1.9,3.6c0.4,1.6,0.5,3.5,0.5,5.9L628.6,82L628.6,82z M574.9,114.9
			c0-1.1-0.7-1.7-2.2-1.7h-13c-1.4,0-2.1,0.6-2.1,1.7v20.5c0,0.6,0.1,1,0.4,1.3c0.3,0.3,0.8,0.4,1.7,0.4h13c1.5,0,2.2-0.6,2.2-1.7
			L574.9,114.9L574.9,114.9z M615.7,70.3c0-1.1-0.7-1.7-2.2-1.7h-43.4c-1.4,0-2.1,0.6-2.1,1.7V80c0,0.6,0.1,1,0.4,1.3
			c0.3,0.3,0.8,0.4,1.7,0.4h43.4c1.5,0,2.2-0.6,2.2-1.7L615.7,70.3L615.7,70.3z M638.6,138.4c0,2.1-0.1,3.9-0.4,5.3
			c-0.3,1.4-0.9,2.5-1.7,3.3c-0.9,0.8-2.1,1.4-3.7,1.7c-1.6,0.4-3.7,0.5-6.3,0.5h-20.9c-2.5,0-4.6-0.1-6.2-0.4
			c-1.6-0.3-2.8-0.8-3.7-1.6s-1.5-1.9-1.7-3.3c-0.3-1.4-0.4-3.2-0.4-5.3v-25.8c0-2.4,0.2-4.3,0.6-5.7c0.4-1.4,1.1-2.5,2.1-3.2
			s2.2-1.2,3.7-1.4s3.4-0.3,5.7-0.3h20.9c2.6,0,4.7,0.2,6.4,0.6c1.6,0.4,2.9,1,3.7,1.9c0.8,0.8,1.4,2,1.7,3.4s0.4,3.1,0.4,5.1v25.2
			H638.6z M626.1,115.9c0-1.1-0.7-1.7-2.2-1.7H608c-1.4,0-2.1,0.6-2.1,1.7v19.4c0,0.6,0.1,1,0.4,1.3c0.3,0.3,0.8,0.4,1.7,0.4h15.9
			c1.5,0,2.2-0.6,2.2-1.7L626.1,115.9L626.1,115.9z"/>
		<path class="st0" d="M670.8,80h6V56.5c0-2.1,0.6-3.6,1.7-4.4c1.2-0.8,2.5-1.3,3.9-1.3c1.8,0,3.1,0.4,4,1.3
			c0.9,0.8,1.4,2.3,1.4,4.4V80h2.3c1.8,0,3.2,0.5,4.2,1.4s1.4,2.4,1.4,4.4s-0.5,3.5-1.4,4.3c-1,0.8-2.3,1.3-4.2,1.3h-19.4v10.9h10.1
			c2,0,3.6,0.1,4.9,0.4c1.3,0.3,2.3,0.8,3.1,1.6c0.7,0.8,1.3,1.9,1.5,3.3c0.3,1.4,0.4,3.3,0.4,5.6v30.4c0,2.3-0.4,3.8-1.1,4.6
			c-0.7,0.8-2.1,1.2-4.2,1.2c-2.1,0-3.6-0.4-4.4-1.2c-0.8-0.8-1.3-2.3-1.3-4.6v-26c0-1.6-0.2-2.7-0.6-3.1c-0.4-0.5-1.2-0.7-2.4-0.7
			h-6c-0.1,3.6-0.4,6.9-0.6,10c-0.3,3-0.7,5.9-1.2,8.5s-1.2,5.2-2,7.6c-0.8,2.4-1.7,4.9-2.8,7.3c-1.1,2.4-2.2,3.9-3.4,4.5
			s-2.7,0.4-4.6-0.6c-1.8-1-2.8-2.2-2.9-3.7c-0.1-1.5,0.4-3.4,1.4-5.7c0.9-2,1.7-4,2.3-6.2s1.2-4.5,1.6-7.1c0.4-2.6,0.7-5.5,1-8.8
			c0.2-3.2,0.3-7,0.3-11.1V61.8c0-4.1,1.9-6.1,5.6-6.1c3.5,0,5.3,2,5.3,6.1V80H670.8z M725.1,136.4h-27.3c-2,0-3.5-0.4-4.4-1.3
			c-0.9-0.9-1.4-2.4-1.4-4.5s0.5-3.6,1.4-4.6c0.9-0.9,2.4-1.4,4.4-1.4h3.4c1.9-2.2,3.7-4.6,5.4-7.2c1.7-2.6,3.1-4.9,4.3-6.9h-4.7
			c-3.4,0-5.7-0.8-7-2.5s-1.9-4.4-1.9-8.3v-29c0-3.8,0.6-6.7,1.8-8.6c1.2-1.9,3.6-2.9,7.1-2.9h6.9c0.3-0.6,0.5-1.1,0.6-1.6
			s0.3-1,0.4-1.4c0.8-3,1.7-4.8,2.9-5.6s2.8-0.8,4.9-0.2c1.9,0.6,3.2,1.5,3.8,2.8s0.5,3.3-0.3,6h14.9c3.5,0,5.8,1,7.1,2.9
			c1.3,1.9,1.9,4.8,1.9,8.6V100c0,4-0.7,6.7-2,8.3s-3.7,2.3-7,2.2h-6.6c1.5,1,2.2,2.8,2.2,5.4v8.7h12.7c2,0,3.4,0.4,4.3,1.3
			c0.9,0.9,1.3,2.4,1.3,4.5s-0.4,3.6-1.3,4.6c-0.9,0.9-2.3,1.4-4.3,1.4h-12.7v10.8c0,2.3-0.5,3.8-1.5,4.8c-1,0.9-2.3,1.4-3.9,1.4
			c-1.8,0-3.2-0.4-4.2-1.3c-1-0.8-1.4-2.5-1.4-4.9v-10.8H725.1z M707.9,79.5h10.4v-9.7h-7.4c-1.3,0-2.2,0.3-2.5,1s-0.5,1.6-0.5,2.8
			V79.5z M715.6,100c0.4-1.4,0.8-3.1,1.2-5s0.7-3.5,0.9-4.9H708v6.1c0,2.5,1,3.7,3,3.7L715.6,100L715.6,100z M722.8,110.6
			c-1,2.2-2.2,4.6-3.8,7.2c-1.5,2.6-3.1,4.9-4.6,6.9h10.7V116c0-2.7,0.9-4.5,2.6-5.4H722.8z M738.9,90.1l-11-0.1
			c-0.1,1.3-0.4,3-0.7,5c-0.4,2-0.7,3.6-1,5h10.2c1.2,0,1.9-0.3,2.2-1c0.2-0.7,0.4-1.4,0.4-2.3v-6.6H738.9z M728.6,69.7v9.7
			l10.3,0.1v-6.8c0-1.1-0.2-1.9-0.5-2.3c-0.4-0.4-1-0.6-2-0.6L728.6,69.7z"/>
		<path class="st0" d="M805.7,61.6c-1.7,3.6-3.6,7.3-5.8,11.1c-2.2,3.8-4.5,7.5-7,11.1c-2.5,3.6-5,7-7.6,10.3s-5.2,6.3-7.7,9
			c-2.3,2.5-4.2,3.8-5.7,3.9c-1.6,0.1-3.1-0.8-4.8-2.7c-1.6-1.8-2.3-3.5-2.2-5s1.3-3.3,3.5-5.5s4.5-4.8,6.9-7.8s4.8-6.2,7.1-9.6
			s4.4-6.8,6.4-10.4c2-3.5,3.6-6.9,5-10.1c1.1-2.4,2.3-4,3.7-4.7s3.3-0.6,5.8,0.4c1.8,0.8,3,2.1,3.5,3.8
			C807.3,57.1,806.9,59.1,805.7,61.6z M839.1,131.3c-1.6-3-3.2-5.8-4.8-8.6s-3.2-5.7-5-8.7c-2.2-3.9-1.7-6.9,1.6-9
			c3.9-2.5,7.1-1.7,9.5,2.5c2.1,3.7,4,7,5.6,9.9s3.1,5.8,4.4,8.5c1.3,2.7,2.6,5.4,3.9,8.2c1.2,2.7,2.5,5.7,3.9,8.8
			c1,2.2,1.2,4.1,0.5,5.8c-0.6,1.7-2,3-4,3.8c-3.9,1.7-6.7,0-8.6-5c-0.3-0.7-0.5-1.4-0.8-2c-0.2-0.6-0.5-1.3-0.7-1.9l-60.6,3.7h0.1
			c-4.1,0.3-7.1-0.3-8.9-1.7c-1.8-1.4-2.8-3.4-2.8-5.9c0-2.3,1.1-4.7,3.2-7.2h-0.1c2.9-3.4,5.8-7,8.6-11c2.9-3.9,5.6-7.9,8.3-12.1
			c2.6-4.1,5.2-8.3,7.6-12.6c2.4-4.2,4.7-8.4,6.7-12.4c1.1-2.1,2.5-3.6,4.2-4.4c1.7-0.8,3.3-0.8,4.9-0.1c2.6,1.3,4,2.7,4.1,4.4
			s-0.5,3.7-1.8,6.2c-2.4,4.4-4.6,8.4-6.6,11.9c-2,3.6-4,7-6,10.2s-4.1,6.4-6.2,9.5c-2.2,3.1-4.5,6.4-7.1,9.7
			c-0.6,0.8-0.6,1.3-0.1,1.5s2.1,0.2,4.9,0.1c4-0.2,7.8-0.4,11.4-0.6c3.6-0.2,7-0.4,10.3-0.6c3.3-0.2,6.6-0.4,10-0.6
			C832,131.7,835.5,131.5,839.1,131.3z M864.1,95.4c2,1.8,3,3.6,3.1,5.4c0.1,1.8-0.6,3.4-2,4.8c-1.9,1.8-3.6,2.6-5,2.3
			s-3.3-1.5-5.5-3.4c-2.3-2-4.7-4.8-7.3-8.2s-5.2-7.1-7.7-11.1s-5-8.1-7.3-12.2c-2.3-4.2-4.3-8-6.1-11.7c-2.7-5.3-1.8-8.7,2.8-10.2
			c4-1.8,7-0.2,9,4.9c1.5,3.5,3.3,7.1,5.4,10.9c2.1,3.8,4.4,7.5,6.7,11.1c2.4,3.6,4.8,6.9,7.2,10C859.8,91,862,93.5,864.1,95.4z"/>
		<path class="st0" d="M922.5,60.8c-0.1-0.3-0.3-0.5-0.4-0.8c-0.1-0.2-0.2-0.4-0.3-0.6c-1-1.6-1.3-3.2-1.1-4.8
			c0.3-1.6,1.4-2.9,3.3-3.9c0.6-0.4,1.4-0.6,2.2-0.7s1.7-0.1,2.6,0.1c0.9,0.2,1.7,0.7,2.6,1.3c0.8,0.7,1.6,1.6,2.1,2.9
			c0.4,0.8,0.7,1.7,1.2,2.8c0.4,1.1,0.8,2.3,1.2,3.7h27.4c10.9-0.6,15.7,3,14.6,10.7c-0.2,1.3-0.4,2.5-0.6,3.8s-0.6,2.7-1.1,4.2
			c-0.8,2.7-1.9,4.4-3.3,5.2c-1.3,0.8-3.1,0.8-5.2-0.2c-1.1-0.4-2-0.9-2.5-1.4c-0.6-0.5-0.9-1.2-1.1-1.9c-0.1-0.7-0.1-1.6,0.1-2.6
			c0.2-1,0.5-2.2,1-3.7c0.4-0.9,0.4-1.7,0.1-2.5c-0.3-0.7-1-1.1-2-1.1h-66.6c-1.3,0-2.1,0.3-2.6,0.8c-0.5,0.6-0.7,1.6-0.7,3v3.3
			c0,2-0.6,3.6-1.7,4.7c-1.1,1.1-2.6,1.6-4.4,1.6c-2,0-3.6-0.5-4.7-1.4c-1.1-0.9-1.6-2.5-1.6-4.8v-5.7c0-4.2,1-7.2,3-9.2
			c2-2,5.2-3,9.5-3h29V60.8z M965.1,100.4c0,1.8-0.1,3.4-0.4,4.6c-0.2,1.2-0.7,2.2-1.5,2.9c-0.7,0.7-1.8,1.2-3.2,1.5
			s-3.2,0.5-5.6,0.5h-20.1v3.5H961c2.3,0,4.1,0.1,5.6,0.4c1.5,0.2,2.6,0.7,3.5,1.3c0.8,0.6,1.4,1.5,1.7,2.7s0.5,2.6,0.5,4.4v13.5
			c0,3.3-0.3,6-1,7.9c-0.6,2-1.7,3.8-3.2,5.4c-1.2,1.3-2.8,2.4-4.8,3.1c-2,0.7-4.6,1-7.7,0.7c-2-0.1-4.1-0.3-6.1-0.5
			s-4.3-0.6-6.9-1.3c-1.6-0.4-2.7-1-3.3-1.8s-0.7-2.2-0.4-4c0.4-2,1.2-3.2,2.4-3.6c1.2-0.4,2.8-0.4,4.8,0.1c1.3,0.3,2.3,0.5,3.2,0.7
			s1.7,0.4,2.4,0.5s1.4,0.2,2,0.3s1.3,0.1,2,0.1c1.5,0,2.5-0.3,3.1-1c0.6-0.6,1-1.6,1.1-2.8l-0.3,0.3c-0.7,0.6-1.3,1-1.9,1.2
			c-0.6,0.1-1.1,0.1-1.7-0.1c-0.6-0.2-1.2-0.6-1.9-1.2c-0.7-0.6-1.5-1.3-2.4-2.2c-7.9,0.7-15.7,1.4-23.5,2
			c-7.7,0.6-15.2,1.1-22.5,1.5c-2.3,0.1-3.9,0-4.8-0.5c-1-0.5-1.5-1.7-1.6-3.7s0.2-3.3,1.1-3.9c0.8-0.6,2.3-1,4.3-1.1
			c3.1-0.1,6.1-0.3,9-0.5s5.8-0.4,8.7-0.6V122h-22.3c-0.8,0-1.3,0.1-1.6,0.3s-0.5,0.7-0.5,1.5v22.9c0,2.1-0.5,3.7-1.6,4.7
			s-2.6,1.5-4.5,1.5c-4,0-5.9-2-5.9-6.1V122c0-1.7,0.1-3.1,0.4-4.2c0.2-1.1,0.7-2,1.5-2.7c0.7-0.7,1.8-1.1,3.2-1.4
			c1.4-0.3,3.3-0.4,5.6-0.4h25.8v-3.5h-18.1c-2,0-3.8-0.1-5.1-0.3s-2.5-0.6-3.3-1.3c-0.8-0.6-1.4-1.6-1.7-2.8
			c-0.4-1.2-0.5-2.9-0.5-5v-14c0-1.9,0.2-3.4,0.5-4.6s0.9-2.1,1.6-2.7c0.8-0.6,1.9-1.1,3.3-1.3c1.4-0.2,3.2-0.3,5.3-0.3h50.1
			c2.2,0,4,0.2,5.3,0.6c1.4,0.4,2.5,1,3.2,1.9c0.8,0.9,1.3,2.1,1.6,3.6s0.4,3.4,0.4,5.6L965.1,100.4L965.1,100.4z M922.5,90.1v-4.2
			h-15.8c-0.6,0-0.9,0.1-1.1,0.2c-0.2,0.1-0.3,0.4-0.3,1v3.1h17.2V90.1z M905.4,100.3c0,0.6,0.1,0.9,0.3,1s0.5,0.1,1.1,0.1h15.8v-4
			h-17.2L905.4,100.3L905.4,100.3z M934.4,85.9v4.2h19.2v-3.2c0-0.5-0.1-0.8-0.2-0.9c-0.1-0.1-0.5-0.2-1.1-0.2L934.4,85.9
			L934.4,85.9z M934.4,97.3v4h17.7c0.6,0,1-0.1,1.2-0.2c0.2-0.1,0.3-0.5,0.3-1.1v-2.7H934.4z M934.4,129.9c1.4-0.1,3-0.2,4.8-0.3
			s3.3-0.2,4.7-0.3c-1.9-2.4-1.8-4.8,0.4-7.1h-9.9V129.9z M950.7,122.2c2.3,2.3,4.1,4.2,5.6,5.9c1.5,1.7,2.8,3.4,4,5v-9.3
			c0-0.8-0.1-1.2-0.3-1.4c-0.2-0.1-0.7-0.2-1.5-0.2H950.7z"/>
	</g>
	<g>
		<path class="st0" d="M551.3,236.3c0.1,0.6,0.1,1.2,0.1,1.8c0,0.6-0.2,1.1-0.4,1.5c-0.3,0.4-0.7,0.8-1.2,1.1
			c-0.5,0.3-1.3,0.4-2.3,0.4c-1.3,0-2.3-0.3-2.7-0.9c-0.5-0.7-0.8-1.7-1-3.2l-3-22.7c-0.2-1-0.4-1.4-0.8-1.4c-0.3,0-0.7,0.5-0.9,1.4
			l-7.1,24.2c-0.2,0.8-0.6,1.4-1,1.9c-0.5,0.5-1.4,0.7-2.7,0.7c-0.7,0-1.3-0.1-1.8-0.2s-0.8-0.3-1.1-0.5s-0.5-0.5-0.7-0.8
			c-0.1-0.3-0.3-0.7-0.4-1.2c-1.2-4.1-2.4-8.1-3.6-12.1s-2.4-8-3.6-12.1c-0.3-1-0.6-1.5-0.9-1.5s-0.6,0.5-0.7,1.5l-3,22.3
			c-0.2,1.5-0.6,2.6-1.2,3.4c-0.6,0.7-1.7,1.1-3.3,1.1c-1.3,0-2.2-0.4-2.7-1.1s-0.6-2-0.3-3.7l5.4-35.7c0.2-1.5,0.8-2.6,1.7-3.4
			c0.9-0.8,2-1.2,3.4-1.2c1.3,0,2.5,0.3,3.4,1s1.7,2,2.3,4l7.2,26.3l7-26.4c0.5-2,1.3-3.3,2.2-3.9c0.9-0.7,2-1,3.3-1
			c1.2,0,2.3,0.4,3.3,1.2s1.6,2,1.9,3.6L551.3,236.3z"/>
		<path class="st0" d="M587.7,221c0,2.6-1.1,3.9-3.2,3.9h-20.8c-1.3,0-2.3-0.3-2.9-1c-0.6-0.6-0.9-1.6-0.9-2.9s0.3-2.3,0.9-3
			c0.6-0.7,1.6-1,2.9-1h20.8c1,0,1.8,0.3,2.3,1C587.5,218.7,587.7,219.7,587.7,221z"/>
		<path class="st0" d="M638.7,236.1c-0.3,1.9-1,3.2-1.9,3.9c-0.9,0.7-2.1,1.1-3.5,1.1c-1,0-1.9-0.3-2.8-0.9c-0.9-0.6-1.6-1.7-2-3.3
			l-7.8-27.6l-7.9,28.3c-0.7,2.5-2.3,3.7-4.7,3.6c-0.6,0-1.2-0.1-1.8-0.3c-0.6-0.2-1.1-0.5-1.6-0.9c-0.5-0.5-1-1.1-1.4-1.9
			s-0.7-1.9-0.9-3.2l-5.5-35.1c-0.2-1,0-1.8,0.6-2.6c0.5-0.8,1.6-1.2,3-1.2c0.9,0,1.7,0.2,2.4,0.5s1.1,1.3,1.4,2.8l3.8,25.9
			c0.2,1.4,0.4,2.1,0.7,2.1s0.5-0.7,0.9-2.1l6.7-25.7c0.3-1.1,0.8-1.9,1.6-2.5s1.7-0.9,2.6-0.9c1.1,0,2,0.2,2.7,0.7s1.2,1.5,1.7,2.9
			c1.2,4.3,2.4,8.6,3.6,12.7c1.2,4.2,2.4,8.4,3.6,12.7c0.4,1.3,0.7,2,0.8,2.1s0.4-0.6,0.6-2.1l3.7-25.5c0.2-1.4,0.6-2.4,1.2-2.9
			c0.6-0.5,1.5-0.7,2.6-0.7c1.4,0,2.4,0.3,2.9,1s0.7,1.5,0.5,2.4L638.7,236.1z"/>
		<path class="st0" d="M670.8,195.3c3.4,0,6.3,0.6,8.8,1.8s4.6,2.8,6.2,4.9c1.6,2.1,2.9,4.5,3.7,7.3c0.8,2.8,1.2,5.9,1.2,9.1
			s-0.4,6.3-1.2,9.2c-0.8,2.8-2,5.3-3.7,7.4c-1.6,2.1-3.7,3.7-6.2,4.9c-2.5,1.2-5.4,1.8-8.8,1.8c-3.3,0-6.1-0.6-8.6-1.7
			c-2.5-1.2-4.6-2.8-6.2-4.8c-1.7-2.1-2.9-4.5-3.8-7.4c-0.8-2.9-1.3-6-1.3-9.3c0-3.2,0.4-6.3,1.1-9.1c0.8-2.8,1.9-5.3,3.6-7.4
			c1.6-2.1,3.7-3.7,6.2-4.9C664.2,195.9,667.2,195.3,670.8,195.3z M670.8,234.6c2.2,0,4.1-0.4,5.6-1.2c1.5-0.8,2.7-1.9,3.6-3.4
			c0.9-1.4,1.6-3.1,2-5s0.6-4,0.6-6.2s-0.2-4.3-0.6-6.3c-0.4-2-1.1-3.7-2-5.2c-0.9-1.5-2.1-2.6-3.6-3.5c-1.5-0.8-3.3-1.3-5.4-1.3
			c-2.1,0-4,0.4-5.4,1.3c-1.5,0.9-2.7,2-3.6,3.5c-0.9,1.4-1.6,3.1-2,5.1c-0.4,1.9-0.6,4-0.6,6.2c0,2,0.2,3.9,0.6,5.9
			c0.4,1.9,1,3.7,2,5.2c0.9,1.5,2.1,2.7,3.6,3.7C666.7,234.1,668.5,234.6,670.8,234.6z"/>
		<path class="st0" d="M699.9,200.7c0-0.9,0.1-1.6,0.2-2.1c0.1-0.5,0.4-1,0.8-1.3c0.4-0.3,0.9-0.5,1.6-0.6c0.7-0.1,1.6-0.2,2.7-0.2
			h9.5c2.5,0,4.7,0.2,6.6,0.6c1.9,0.4,3.5,1.1,4.8,2c1.3,1,2.2,2.3,2.9,3.9c0.7,1.6,1,3.6,1,6c0,3.7-0.8,6.4-2.5,8.4
			c-1.7,1.9-3.9,3.2-6.7,3.8c-0.4,0.1-0.8,0.2-1.3,0.3c-0.4,0.1-0.9,0.1-1.3,0.2l12.3,12.2c0.8,0.8,1.3,1.8,1.3,2.9
			s-0.4,2.1-1.2,2.9s-1.8,1.3-3,1.4s-2.1-0.2-2.8-0.9l-16.7-17.6v15.2c0,0.8-0.3,1.6-1,2.3c-0.7,0.7-1.7,1-3.2,1s-2.5-0.4-3.1-1.1
			s-0.9-1.4-0.9-2.2L699.9,200.7L699.9,200.7z M708.1,214.9h6.6c2.3,0,4.1-0.4,5.3-1.1s1.8-2.3,1.8-4.6c0-1.1-0.2-2-0.6-2.7
			c-0.4-0.7-0.9-1.3-1.5-1.7c-0.7-0.4-1.4-0.7-2.3-0.8c-0.9-0.1-1.8-0.2-2.7-0.2h-6.6V214.9z"/>
		<path class="st0" d="M760.5,233.2c0.8,0,1.6,0.3,2.3,0.9s1,1.5,1,2.8s-0.4,2.3-1.1,2.8c-0.7,0.5-1.4,0.8-2.2,0.8h-16.1
			c-1.4,0-2.5-0.4-3.3-1.3s-1.2-2-1.2-3.2v-36.8c0-1,0.4-1.8,1.2-2.4c0.8-0.6,1.8-0.8,2.9-0.8c1.2,0,2.2,0.3,3,0.8s1.1,1.4,1.1,2.4
			v34L760.5,233.2L760.5,233.2z"/>
		<path class="st0" d="M787,196.6c3.3,0,6.1,0.6,8.5,1.7c2.4,1.1,4.3,2.6,5.9,4.6c1.5,2,2.7,4.3,3.4,6.9c0.7,2.7,1.1,5.6,1.1,8.7
			c0,3.3-0.4,6.3-1.1,9c-0.8,2.7-1.9,5-3.5,7c-1.6,1.9-3.5,3.4-5.8,4.5c-2.3,1-5,1.6-8.1,1.6h-12c-1.5,0-2.4-0.2-2.8-0.7
			c-0.4-0.5-0.6-1.2-0.6-2.1v-38.2c0-0.9,0.2-1.6,0.6-2.1c0.4-0.5,1.3-0.7,2.8-0.7H787V196.6z M780.1,233.9h7.2
			c6.9,0,10.3-5.2,10.3-15.7c0-2.4-0.2-4.5-0.6-6.4c-0.4-1.9-1-3.5-2-4.8c-0.9-1.3-2.1-2.3-3.7-2.9c-1.5-0.7-3.4-1-5.7-1H780
			L780.1,233.9L780.1,233.9z"/>
	</g>
</g>
</svg>
