
<svg width="106px" height="49px" viewBox="0 0 106 49" version="1.1" xmlns="http://www.w3.org/2000/svg" xmlns:xlink="http://www.w3.org/1999/xlink">
    <!-- Generator: Sketch 49.3 (51167) - http://www.bohemiancoding.com/sketch -->
    <desc>Created with Sketch.</desc>
    <defs>
        <polygon id="path-1" points="0.00674137931 0.172323529 22.8783657 0.172323529 22.8783657 26.4414118 0.00674137931 26.4414118"></polygon>
    </defs>
    <g id="8.0_关于魔方生活服务集团" stroke="none" stroke-width="1" fill="none" fill-rule="evenodd">
        <g id="8.0_关于我们页面" transform="translate(-185.000000, -2830.000000)">
            <g id="魔方产品" transform="translate(51.000000, 2112.000000)">
                <g id="青年公寓-组" transform="translate(0.000000, 510.000000)">
                    <g id="logo" transform="translate(134.000000, 208.000000)">
                        <path d="M33.3085349,33.5751582 C33.4920786,33.1655056 33.681665,32.7584567 33.8591661,32.3444646 C34.0298694,31.9434911 34.1832001,31.5321026 34.35768,31.1328649 C34.3848717,31.0695076 34.4792872,31.0122257 34.5450004,31.0078862 C34.7942573,30.9939996 35.0442696,31.0026787 35.3244948,31.0026787 L35.3244948,33.4822921 C35.3501759,33.4909711 35.3758569,33.4996502 35.4015379,33.5083293 C35.5306983,33.1967503 35.667412,32.8895109 35.7882638,32.5735923 C35.9650097,32.1118652 36.1183404,31.6388553 36.3101928,31.1866752 C36.3509803,31.0894695 36.5118643,31.0104899 36.618365,31.0087541 C37.7392659,30.9966034 38.8609222,31.0018108 39.9818231,31.0026787 L41,31.0026787 C40.9478826,31.2500325 40.9033185,31.4635379 40.8534671,31.6996089 C40.1706542,31.6996089 39.5082349,31.7091559 38.846571,31.6944015 C38.6403676,31.689194 38.5361328,31.7542871 38.4915687,31.9938297 C38.4273662,32.3375213 38.335972,32.6742697 38.2438224,33.0648283 L40.3383361,33.0648283 C40.4153792,33.6324402 40.3164317,33.7721734 39.8753224,33.7730413 C39.3533935,33.7739092 38.8307092,33.7791166 38.308025,33.7730413 C38.1433643,33.7704375 38.0549914,33.822512 38.0149592,34.0264704 C37.9341395,34.436123 37.8246176,34.8388324 37.7181169,35.2832013 L40.0535789,35.2832013 C39.9206419,35.8343229 39.7605132,35.9836031 39.3269572,35.9836031 C38.4832602,35.984471 37.6388078,35.9862068 36.7951108,35.9836031 C36.6795462,35.9827352 36.5639817,35.9593017 36.4068742,35.9410756 C36.7694298,34.3684262 37.1229215,32.8391722 37.4756578,31.3107861 C37.4507321,31.2977675 37.4265618,31.2856168 37.4016361,31.2725981 C37.3517847,31.3732755 37.2936247,31.4696133 37.2520819,31.5746301 C36.7732064,32.7584567 36.2958416,33.9440192 35.8199874,35.1295816 C35.8041256,35.1695053 35.8071469,35.2215798 35.7882638,35.2588999 C35.6711886,35.4923671 35.5896136,35.862096 35.4219316,35.9245854 C35.122068,36.0356776 34.7708423,35.9714524 34.441521,35.9532263 C34.4037548,35.9514905 34.3501268,35.7735694 34.3448395,35.6737599 C34.3168925,35.144336 34.3010307,34.6140442 34.280637,34.0837524 C34.278371,34.0316779 34.2640198,33.9813392 34.2390941,33.8346627 C34.0910506,34.0941672 33.9762413,34.2720884 33.8818258,34.4630282 C33.6710904,34.8926427 33.4815041,35.3361437 33.2601941,35.757947 C33.2035448,35.8646997 33.0668312,35.9610375 32.9573092,35.9766598 C32.7201374,36.0113762 32.4761677,35.9992254 32.2359747,35.9914143 C32.0743353,35.9870747 31.9859624,35.9133025 32.0018242,35.6876465 C32.0849098,34.4699714 32.152889,33.2514285 32.2284214,32.0337535 C32.2495705,31.7022126 32.2812941,31.3724076 32.3084858,31.0226406 L33.3991737,31.0226406 C33.3379925,31.8645114 33.2775666,32.7020427 33.2171406,33.5387061 C33.2473536,33.5517247 33.2783219,33.5630075 33.3085349,33.5751582" id="Fill-1" fill="#EEB718"></path>
                        <path d="M66.8075177,35.9759901 C67.0095863,35.0807047 67.1919778,34.2719203 67.3743693,33.4631359 C67.3418264,33.4475657 67.3092836,33.4311305 67.2767407,33.4155604 C67.2146821,33.5210916 67.1488396,33.6240278 67.0913219,33.733019 C66.7386478,34.3956168 66.3882442,35.0608095 66.0355701,35.7234072 C65.9167508,35.9457148 65.2477296,36.1005516 65.0887992,35.9223595 C65.0229566,35.8479687 65.0017659,35.6965919 64.9941978,35.5780855 C64.9510595,34.8687773 64.9177598,34.158604 64.8806761,33.4492957 C64.8428355,33.4371856 64.8057518,33.4259405 64.7694248,33.4138303 C64.7028254,33.6378679 64.6256307,33.8593105 64.5734107,34.0876732 C64.4432392,34.6499297 64.3312311,35.2182413 64.1927346,35.7779028 C64.1730575,35.8592138 64.0512109,35.9569599 63.9709889,35.96388 C63.7030777,35.9872353 63.4328961,35.9725301 63.0726539,35.9725301 C63.4147326,34.502878 63.7416751,33.0929116 64.0640767,31.7037054 C63.6364783,31.7037054 63.2088799,31.7097605 62.7827952,31.7011104 C62.6193239,31.6967854 62.5383451,31.7391709 62.4929364,31.9450432 C62.2689203,32.9648901 62.0244702,33.9778169 61.7875883,34.9942037 C61.7399092,35.2026711 61.6937437,35.4120036 61.6498486,35.621336 C61.5946014,35.874784 61.4886478,36.0166456 61.2267911,35.9820452 C60.9823411,35.9509048 60.7310797,35.9759901 60.4079213,35.9759901 C60.7439455,34.5193132 61.0640767,33.1370271 61.39556,31.7045705 L60,31.7045705 C60.0090817,31.1042535 60.0915742,31.0073723 60.5547427,31.0082374 C61.6316852,31.0099674 62.7086276,31.0099674 63.7863269,31.0099674 C64.323663,31.0099674 64.8617558,31.0324576 65.3975782,31.0013173 C65.6889506,30.9840171 65.7638749,31.1379889 65.7782543,31.4121971 C65.8191221,32.1915711 65.8599899,32.9709452 65.9016145,33.7511843 C65.903885,33.7944348 65.9106963,33.8376853 65.9288597,33.986467 C66.0499495,33.7918397 66.1369828,33.6690083 66.2081231,33.5357968 C66.6311806,32.7339324 67.0481837,31.9303381 67.4727548,31.1302038 C67.5015136,31.0765731 67.5711403,31.0194825 67.6218466,31.0186175 C68.0638244,31.0099674 68.5050454,31.0134274 69,31.0134274 C68.8751261,31.5557887 68.7600908,32.0574946 68.6450555,32.5592004 C68.4127144,33.5634771 68.1758325,34.5668887 67.95333,35.5737605 C67.8859738,35.879974 67.7610999,36.0261607 67.4689707,35.9811802 C67.275227,35.9517699 67.074672,35.9759901 66.8075177,35.9759901" id="Fill-3" fill="#EEB718"></path>
                        <path d="M34,36 L80,36 C79.9277217,36.3184499 79.8848312,36.6048863 79.7895191,36.8711036 C79.762514,36.946925 79.5869809,37 79.4789605,37 C78.7601485,36.9991575 78.0421307,36.9814659 77.3249072,36.9663016 C75.2232755,36.9224937 73.1232323,36.8770008 71.0216006,36.8340354 C67.6856773,36.767481 64.3489597,36.7026116 61.0130363,36.6360573 C58.8168868,36.5922494 56.619943,36.547599 54.4245878,36.5004212 C51.5636364,36.4389217 48.7034792,36.3715249 45.8417336,36.3100253 C43.6582923,36.2628475 41.4740568,36.2274642 39.2898213,36.1752317 C37.5273418,36.1347936 35.7664508,36.0783488 34.0039713,36.0286436 C34.0031771,36.0193766 34.0015885,36.0092671 34,36" id="Fill-5" fill="#EEB718"></path>
                        <path d="M45.5516413,30.7386849 C45.5196157,30.7317665 45.4875901,30.7248482 45.4547638,30.7179298 C45.0760608,31.4780868 44.6981585,32.2382438 44.2842274,33.0701789 C44.714972,33.0701789 45.0528423,33.0623958 45.3907126,33.0736381 C45.572458,33.0796917 45.6349079,33.0044543 45.6293034,32.8124693 C45.6156926,32.4103385 45.6228983,32.0073428 45.6100881,31.605212 C45.601281,31.3155048 45.5716573,31.0275273 45.5516413,30.7386849 M48.9247398,32.3757466 L49.4515612,32.3757466 C50.1665332,32.3748818 50.1705364,32.3757466 50.3746998,31.6484519 C50.4563651,31.3604743 50.5164131,31.0655784 50.5988791,30.7239834 C50.1793435,30.7239834 49.8302642,30.7153354 49.4819856,30.7317665 C49.4123299,30.7352257 49.305044,30.8225703 49.2866293,30.8926189 C49.1601281,31.3622039 49.0528423,31.8378425 48.9247398,32.3757466 M47.0632506,34.7357789 C47.1144916,34.5956817 47.1801441,34.4607733 47.2161729,34.3163521 C47.501201,33.1704955 47.7758207,32.0220444 48.0632506,30.8770525 C48.133707,30.5951285 48.1641313,30.2120232 48.3418735,30.0771148 C48.5308247,29.9352881 48.8751001,30.0330102 49.1513211,30.0304158 C49.2457966,30.0286862 49.3402722,30.0390638 49.4667734,30.0451173 C49.4515612,30.1800257 49.4379504,30.2967734 49.4259408,30.4126563 C49.6805444,29.9102089 50.1160929,30.033875 50.5124099,30.0321454 C50.9895917,30.0304158 51.4675741,30.0312806 52,30.0312806 C51.8879103,30.5268095 51.7926341,30.9790986 51.6829464,31.4279285 C51.5708567,31.8897304 51.4315452,32.3428843 51.3314652,32.8072805 C51.2882306,33.0061839 51.2081665,33.0753677 51.031225,33.0736381 C50.4451561,33.0667198 49.8590873,33.0866101 49.2738191,33.0563422 C49.1305044,33.048559 48.9935949,32.8885715 48.8326661,32.7865254 C48.8230584,32.8098749 48.7870296,32.8730051 48.7702162,32.9413241 C48.6228983,33.5319808 48.4851882,34.1260967 48.3282626,34.7150238 C48.3018415,34.8153403 48.1953563,34.965815 48.122498,34.9666798 C47.7766213,34.9735982 47.4307446,34.9286287 47.0840673,34.9217104 C46.9591673,34.919116 46.8334668,34.9908942 46.7061649,34.9952181 C46.4307446,35.0064605 46.153723,34.9943534 45.8767014,34.9943534 C45.6893515,34.9943534 45.6477182,34.8741465 45.6501201,34.7003222 C45.6541233,34.4036967 45.6509207,34.1062063 45.6509207,33.7602873 C45.0808647,33.7602873 44.5532426,33.7550986 44.0256205,33.7672057 C43.9631705,33.7689353 43.8831065,33.8545503 43.8438751,33.9220045 C43.6885508,34.1944157 43.552442,34.478934 43.3939151,34.7487509 C43.3370697,34.8456082 43.2409928,34.974463 43.1561249,34.9805166 C42.7998399,35.0073253 42.4411529,34.991759 42,34.991759 C42.1761409,34.637192 42.307446,34.3604568 42.4491593,34.0897752 C43.1144916,32.8176581 43.7822258,31.5464058 44.4507606,30.2751535 C44.5308247,30.1246787 44.6180945,30.0174438 44.8190552,30.025227 C45.3827062,30.0459821 45.9479584,30.0390638 46.5124099,30.025227 C46.7357886,30.0191734 46.797438,30.102194 46.8022418,30.3417429 C46.8342674,31.6752606 46.8831065,33.0079135 46.9279424,34.3405665 C46.9327462,34.4676917 46.9543635,34.5939521 46.968775,34.7210773 C47,34.7262661 47.031225,34.7314549 47.0632506,34.7357789" id="Fill-7" fill="#EEB718"></path>
                        <path d="M76.5057319,33.9298157 C76.6490183,33.3801345 76.7682856,32.9233694 76.8867246,32.4666043 C76.9919117,32.0567314 77.0813621,31.6416483 77.2064271,31.2387224 C77.2362439,31.1414645 77.3745608,31.0120766 77.463183,31.0120766 C79.2604744,30.999051 81.0577658,31.0033929 82.8558854,31.005998 C82.8865305,31.005998 82.9171755,31.0224971 83,31.0459433 C82.9494771,31.2630369 82.9006106,31.4757887 82.8476029,31.7006978 C82.3920683,31.7006978 81.9754611,31.7093815 81.5580257,31.6972243 C81.3658729,31.6911457 81.2623423,31.7423798 81.2101628,31.956 C80.9244183,33.1187537 80.6179677,34.2762972 80.331395,35.4390509 C80.1980476,35.9826535 80.1955629,35.9974159 79.6646579,35.9904689 C79.448486,35.9869954 79.2314858,35.9896005 78.9333177,35.9896005 C79.3010584,34.537678 79.651406,33.1526203 80.0183185,31.7015662 L78.349405,31.7015662 C78.1804431,32.3528472 77.9990575,33.0597042 77.8168436,33.7656929 C77.6545076,34.3952645 77.4822327,35.0222311 77.3339768,35.6552762 C77.2677172,35.9401031 77.1178049,36.0321509 76.8585643,35.9904689 C76.7939612,35.9800484 76.7268733,35.9869954 76.6606137,35.9878637 C75.802552,35.9956791 75.7271818,35.8810537 75.5557351,34.9675235 C75.443922,34.3726868 75.2012463,33.8039013 74.9370362,33.2151433 C74.8848567,33.3801345 74.8243949,33.5425206 74.7796696,33.7101169 C74.6024252,34.3822389 74.4351198,35.0569661 74.2504212,35.7273513 C74.2255738,35.819399 74.1303256,35.9522604 74.0582683,35.958339 C73.742707,35.986127 73.4221763,35.9843902 73.106615,35.965286 C73.0643745,35.9626809 72.9856912,35.7846641 73.0022561,35.7065103 C73.103302,35.2358512 73.2242258,34.7704024 73.3443213,34.3058219 C73.5522107,33.4982334 73.7808063,32.697592 73.9696461,31.8856616 C74.1750509,31.0068664 74.1601425,30.9973143 75.0082652,31.0042613 C75.6948802,31.0103399 75.5905214,30.8905042 75.7818459,31.5938877 C75.974827,32.3007447 76.177747,33.0041282 76.3781822,33.7092485 C76.3897777,33.7500621 76.421251,33.7856655 76.5057319,33.9298157" id="Fill-9" fill="#EEB718"></path>
                        <path d="M58.2256227,33.2047149 C58.346085,32.7065209 58.4632916,32.2231076 58.5894514,31.7031774 C58.1865538,31.7031774 57.8634218,31.6866579 57.5427316,31.7136108 C57.4466873,31.7205664 57.3066905,31.8309864 57.2773889,31.9257562 C57.152043,32.3352665 57.0584405,32.7560795 56.9461175,33.2047149 L58.2256227,33.2047149 Z M57.4385479,31.0050103 C57.4580824,31.1067358 57.4719193,31.1823778 57.4881979,31.2667143 C57.5264529,31.2588893 57.5712193,31.2658449 57.5842422,31.246717 C57.7348201,31.0206604 57.947257,30.9963158 58.1857399,31.0015325 C58.7668891,31.0128354 59.3480384,31.0050103 60,31.0050103 C59.9023279,31.4388651 59.8184926,31.8240308 59.7289598,32.2074575 C59.6239622,32.6517457 59.5108253,33.094295 59.4050138,33.5377137 C59.3455966,33.7898537 59.2642032,33.9985213 58.955722,33.9289655 C58.8792121,33.910707 58.7913072,33.9446155 58.6806121,33.9576573 C58.8279342,34.6332187 58.9703728,35.2835661 59.1250203,35.9939055 C58.6920072,35.9939055 58.3151555,36.0112945 57.9423734,35.9799943 C57.8634218,35.9739082 57.7600521,35.8026269 57.7307504,35.6887291 C57.5801726,35.1148931 57.450757,34.534971 57.2619241,34.0089547 C57.1243692,33.8846236 56.9876282,33.7602925 56.8476315,33.633353 C56.6742634,34.2967422 56.4756634,35.0009954 56.3112486,35.7148126 C56.2607846,35.9339136 56.1671822,36.0008611 55.982419,35.9999917 C55.6723099,35.9982528 55.3630148,35.9999917 55,36 C55.100114,35.5539646 55.1798795,35.1679295 55.2751099,34.7853722 C55.5713821,33.6011834 55.8684682,32.4178641 56.181019,31.2380225 C56.207065,31.1423832 56.342992,31.0232687 56.4357806,31.0154437 C56.7572847,30.9884908 57.0828585,31.0050103 57.4385479,31.0050103 Z" id="Fill-11" fill="#EEB718"></path>
                        <path d="M52.3130239,34.0662968 C52.7369439,34.0662968 53.0786589,34.0541078 53.4187621,34.07065 C53.6420052,34.0810977 53.6943907,33.9748793 53.6831077,33.761572 C53.6573179,33.2322214 53.6395874,32.7011296 53.6218569,32.1709084 C53.6170213,32.0202873 53.6210509,31.8696662 53.6210509,31.719045 L53.4937137,31.6885726 C53.113314,32.4538672 52.7329142,33.2200324 52.3130239,34.0662968 M55,36 C54.5913926,35.9999934 54.2617666,35.9999934 53.9321406,35.9999934 C53.7604771,36.000864 53.679078,35.9155411 53.6839136,35.7239998 C53.6903611,35.4149218 53.6855255,35.1058437 53.6855255,34.7575868 C53.1092843,34.7575868 52.5773694,34.7532336 52.0462605,34.7654226 C51.9850097,34.7662932 51.9060284,34.8524868 51.8681496,34.9195263 C51.7206641,35.1842015 51.5957447,35.4636777 51.4418117,35.7239998 C51.3773372,35.8319594 51.2669246,35.9712622 51.1686009,35.9799686 C50.813185,36.0104411 50.4529336,35.9921576 50,35.9921576 C50.2208253,35.5698961 50.401354,35.226863 50.5818827,34.8829593 C51.2209865,33.6692839 51.8560606,32.4538672 52.5040297,31.2462863 C52.5628627,31.1383266 52.700677,31.0173073 52.8054481,31.0138248 C53.4687299,30.9920587 54.1312057,31.0025064 54.8170535,31.0025064 C54.8783043,32.6619507 54.9379433,34.3039821 55,36" id="Fill-13" fill="#EEB718"></path>
                        <path d="M43.6467279,48.3736308 L43.0732528,48.3736308 C43.2291978,47.3789047 43.3809507,46.4093306 43.5402493,45.3862069 C44.0131147,45.3862069 44.4884953,45.3845842 44.9630375,45.3870183 C45.6253844,45.3894523 45.7293477,45.2661258 45.6153235,44.5626775 L43.0003108,44.5626775 C42.9961187,44.0604462 43.0279785,44.03286 43.494975,44.0352941 C44.2939833,44.0401623 45.0946685,44.0369168 45.9322439,44.0369168 C45.8660092,43.8697769 45.829119,43.7269777 45.7586922,43.6020284 C45.5365126,43.2060852 45.5314821,43.2085193 45.9766798,43 C46.4210391,43.3845842 46.5367402,43.705071 46.3179142,44.0247465 L49,44.0247465 L49,44.5545639 L47.6266782,44.5545639 C47.3147883,44.5545639 47.0003831,44.5756592 46.6910084,44.548073 C46.3807953,44.5204868 46.232396,44.6243408 46.2240119,44.925355 C46.2198198,45.0624746 46.2013747,45.1995943 46.1846064,45.3821501 L48.138949,45.3821501 C48.110443,45.5841785 48.0911594,45.7399594 48.066007,45.894929 C47.9729431,46.4880325 47.8891017,47.0819473 47.7801079,47.6718053 C47.7121964,48.0393509 47.4262973,48.2665314 47.0414654,48.306288 C47.0188282,48.3087221 46.996191,48.3054767 46.9743922,48.3087221 C46.4528989,48.389858 46.4528989,48.389858 46.3875026,47.8324544 C46.4034324,47.8194726 46.4193623,47.7991886 46.4361306,47.7975659 C47.1546512,47.7180527 47.1546512,47.7188641 47.2703523,47.0275862 C47.3307181,46.6705882 47.3910839,46.3135903 47.4606723,45.8973631 C47.0129593,45.8973631 46.6147127,45.8876268 46.218143,45.9070994 C46.1577772,45.9103448 46.0680669,46.0442191 46.0529755,46.127789 C45.936436,46.7825558 45.8333111,47.4381339 45.7293477,48.0945233 C45.6823966,48.3906694 45.6413143,48.6876268 45.5952015,49 L44.9764522,49 C45.1399428,47.978499 45.3025951,46.9691684 45.4702779,45.9233266 L44.06845,45.9233266 C43.9267581,46.7452333 43.7892582,47.5484787 43.6467279,48.3736308" id="Fill-15" fill="#EEB718"></path>
                        <path d="M78.6506745,46.343132 L80.2691427,46.343132 C80.3931764,46.8239309 80.3492478,46.8878073 79.9013481,46.8860809 C79.534415,46.8843545 79.1674818,46.8705434 78.8022713,46.8938496 C78.7040779,46.899892 78.5481743,47.0077912 78.5283634,47.0932474 C78.4336154,47.5265707 78.3750439,47.9676628 78.2966615,48.445009 L80.8212652,48.445009 C80.9142905,48.9465246 80.8591644,48.983642 80.4035126,48.9810524 C78.7195821,48.9698309 77.0356516,48.979326 75.3525825,48.979326 C75.2104605,48.979326 75.0063216,49.0880884 75.0002922,48.8066872 C74.9942628,48.5589506 75.0803973,48.4424194 75.366364,48.4527778 C76.0407976,48.4778104 76.7178151,48.4579569 77.39311,48.4665889 C77.5955262,48.4700416 77.699749,48.4303347 77.7204213,48.1920932 C77.7583205,47.7751706 77.8435937,47.3625639 77.9159467,46.899892 L76.2449364,46.899892 C76.1389909,46.365575 76.1743061,46.3198257 76.6592436,46.3267313 C77.036513,46.3327736 77.4137823,46.3595326 77.7901903,46.3414056 C77.8789089,46.3370896 78.0124174,46.2024314 78.0356738,46.1066168 C78.1054428,45.8208997 78.1304218,45.5230978 78.1812412,45.1735043 C77.6032783,45.1735043 77.0502945,45.1683251 76.4964493,45.1804098 C76.4396005,45.181273 76.3749996,45.2762243 76.3302096,45.3375111 C76.2690541,45.4203777 76.2242641,45.5144658 76.1717221,45.6025116 C75.8513015,46.1454606 75.8513015,46.1454606 75.2776454,45.9477892 C75.7556922,45.1096279 76.2380457,44.2645611 76.7479622,43.3711555 C76.8780254,43.4220839 77.083887,43.5023609 77.3147276,43.5938595 C77.1174794,43.9305051 76.9357355,44.2386653 76.7169538,44.6107019 C77.228593,44.6107019 77.6894129,44.6184706 78.1493714,44.6003435 C78.2062202,44.597754 78.290632,44.4630957 78.3078589,44.3785027 C78.3672918,44.0763849 78.4043296,43.769951 78.4491196,43.4652436 C78.5214726,42.9714967 78.5748761,42.9361058 79.1149397,43.0612689 C79.0451707,43.5601949 78.9754017,44.0617106 78.8996033,44.6037963 L80.9642485,44.6037963 C81.0503831,45.1130807 81.0047318,45.1665987 80.5594161,45.1631459 C80.0675878,45.1579668 79.5740369,45.1683251 79.0822086,45.1562404 C78.8832378,45.1519244 78.781599,45.2252959 78.7600653,45.4203777 C78.7264729,45.7207692 78.689435,46.0211606 78.6506745,46.343132" id="Fill-17" fill="#EEB718"></path>
                        <path d="M71.0139702,33.08333 L73.3281234,33.08333 C73.3796784,33.6809023 73.2907045,33.788761 72.7884592,33.7870214 C72.2246806,33.7861516 71.6600705,33.7931102 71.0979549,33.7809326 C70.8967242,33.7765834 70.799435,33.8418206 70.7537007,34.0540588 C70.6663899,34.4541799 70.5516385,34.8482123 70.435224,35.2979137 L73.0121413,35.2979137 C72.7992691,35.9163619 72.6928331,35.9989956 72.1481797,35.9989956 C71.2201901,35.9998654 70.2922005,36.0007353 69.3633794,35.9989956 C69.2577749,35.9981258 69.1513388,35.9850784 69,35.9746404 C69.0881424,35.5901761 69.1588226,35.2465938 69.2453019,34.9064908 C69.547148,33.7217842 69.8631301,32.5405569 70.1533347,31.3532409 C70.2165311,31.0931621 70.3096627,30.9966111 70.5732583,31.0000904 C71.6226515,31.0157473 72.6728763,31.0061792 73.7231011,31.0070491 C73.8095804,31.0070491 73.8968912,31.017487 73.9800444,31.0218361 C74.0507246,31.5724377 73.9467831,31.7046516 73.4553478,31.7046516 C72.8583079,31.7055215 72.2604365,31.7168292 71.6642281,31.6994327 C71.4313992,31.692474 71.3282893,31.7759776 71.2800604,32.0090917 C71.2093802,32.3535438 71.112091,32.692777 71.0139702,33.08333" id="Fill-19" fill="#EEB718"></path>
                        <path d="M33.8013136,44.3825581 C33.2775041,44.2460593 33.1444992,44.4204745 33.2233169,45.1071816 C33.4326765,44.8451376 33.6001642,44.6353338 33.8013136,44.3825581 M33.5821018,47.6071327 C33.1272578,47.6071327 32.6945813,47.5911236 32.2676519,47.624827 C32.2036125,47.6298825 32.1330049,47.8683342 32.1141215,48.0048331 C32.1075534,48.053703 32.2446634,48.1657669 32.3234811,48.1741927 C32.5500821,48.1986277 32.7799672,48.181776 33.0090312,48.1859889 C33.5049261,48.1952574 33.5049261,48.1969426 33.5821018,47.6071327 M33.6995074,46.5412621 C33.3899836,46.5412621 33.0763547,46.5378918 32.7627258,46.5421047 C32.2832512,46.5488454 32.2224959,46.6246781 32.271757,47.1841548 C32.5788177,47.1841548 32.8916256,47.1816271 33.2027915,47.1841548 C33.7101806,47.1883677 33.7520525,47.1378126 33.6995074,46.5412621 M33.4458128,43.0259955 C33.4318555,43.1658647 33.4203612,43.262762 33.410509,43.360502 C33.3686371,43.8045445 33.3702791,43.7978038 33.7914614,43.8820624 C33.8702791,43.8972289 33.9326765,44.0017095 34.0147783,44.0775422 C34.091954,43.9739042 34.183908,43.8567848 34.2660099,43.7337673 C34.3513957,43.6056943 34.4277504,43.4708807 34.5344828,43.2964655 C34.6937603,43.3992609 34.8415435,43.494473 35,43.5972685 C34.6313629,44.0716441 34.2832512,44.519057 33.8875205,45.0262934 L34.8152709,45.0262934 C34.8719212,45.494771 34.8587849,45.5116227 34.4589491,45.5107801 C34.2192118,45.5107801 33.9786535,45.5090949 33.7380952,45.504882 C33.4228243,45.4998265 33.090312,45.7458614 32.9507389,46.1216545 C33.3087028,46.1216545 33.6518883,46.1250249 33.9950739,46.120812 C34.226601,46.1174416 34.3284072,46.17558 34.2783251,46.456161 C34.1444992,47.2220712 34.0509031,47.9955646 33.9211823,48.7623174 C33.9055829,48.8516315 33.7766831,48.9620102 33.681445,48.9864451 C33.545156,49.0218337 33.3850575,48.9999265 33.4055829,48.7741136 C33.408046,48.7345121 33.3842365,48.6915402 33.3702791,48.6401425 L31.9901478,48.6401425 C31.9720854,48.7682155 31.9573071,48.8743813 31.9400657,48.9982413 L31.4688013,48.9982413 C31.5656814,48.3578764 31.6592775,47.7352057 31.7635468,47.047656 C31.4499179,47.1378126 31.1091954,47.3088575 31,46.8226857 C31.5623974,46.4384667 32.1403941,46.0449793 32.7175698,45.6498067 C32.7019704,45.6102052 32.6863711,45.5697611 32.6707718,45.529317 L31.3152709,45.529317 L31.3152709,45.037247 C31.6477833,45.037247 31.9704433,45.037247 32.2922824,45.037247 C32.5673235,45.0364045 32.8357964,44.6496577 32.7200328,44.401095 C32.6937603,44.3454844 32.5812808,44.3100958 32.5057471,44.3067254 C32.2692939,44.2949292 32.0311987,44.3016699 31.7857143,44.3016699 C31.7364532,43.996654 31.8144499,43.8399331 32.1182266,43.8812198 C32.1297209,43.882905 32.1403941,43.8812198 32.1510673,43.8803772 C32.7947455,43.8753217 32.7865353,43.8744791 32.8875205,43.2290586 C32.9499179,42.8288305 33.2339901,43.0883469 33.4458128,43.0259955" id="Fill-21" fill="#EEB718"></path>
                        <path d="M91.8032204,46.8247163 C91.1323253,46.8247163 90.528055,46.8136696 89.9237846,46.8374626 C89.8393417,46.8408615 89.7138394,47.0040132 89.6874994,47.1170297 C89.6363689,47.3303165 89.6324953,47.561448 89.63327,47.7849317 C89.63327,47.8444141 89.7200371,47.9548813 89.7672941,47.9557311 C90.3901574,47.9667778 91.012246,47.9625291 91.6343346,47.9625291 C91.6932122,47.5665464 91.7451175,47.2181497 91.8032204,46.8247163 M92.6058154,43 C92.6755389,43.131711 92.7576577,43.2897641 92.8637923,43.4911544 C92.4841866,43.5472378 92.1510632,43.6084197 91.8163904,43.6415598 C91.5491169,43.6687518 91.3748082,43.7596748 91.3655117,44.0961751 C91.3593141,44.3052131 91.3066341,44.5134014 91.2686735,44.7700254 L92.9730258,44.7700254 C93.035777,45.2365371 93.0125358,45.267128 92.6453253,45.267128 C92.2339567,45.2654285 91.8210386,45.2543818 91.4104446,45.2756255 C91.325227,45.280724 91.1935271,45.3945902 91.1733847,45.4838138 C91.1129577,45.7421372 91.099013,46.0132069 91.0602777,46.3344117 L92.3888978,46.3344117 C92.2695931,47.1654653 92.1510632,47.9395859 92.0495768,48.7179552 C92.0193632,48.9550349 91.9124539,49.0349112 91.7187775,48.9864756 C91.5235517,48.9388897 91.4917887,48.7901838 91.5522158,48.5998402 C91.5615122,48.5692492 91.5607375,48.5335598 91.5653858,48.4851242 C91.5243264,48.4604815 91.4809429,48.4128956 91.4375593,48.4120458 C90.8619531,48.4043981 90.2847974,48.3967504 89.7091912,48.4094966 C89.6371436,48.4111961 89.5565742,48.5182644 89.5015701,48.5955914 C89.4690325,48.6423276 89.5023448,48.7595928 89.4682578,48.7876345 C89.3659966,48.8700601 89.2435931,48.924444 89.1289367,48.9898746 C89.0832291,48.8828063 88.988715,48.7689401 89.0011103,48.671219 C89.0778061,48.0594004 89.180842,47.4518305 89.2714825,46.8417113 C89.2931743,46.6981039 89.3009213,46.5510974 89.320289,46.3454584 C89.6108036,46.3454584 89.9067411,46.3259142 90.1988051,46.3505569 C90.4536833,46.3726503 90.5846085,46.2902248 90.601652,45.9979114 C90.6155967,45.7676297 90.654332,45.5390474 90.6868696,45.2730762 L89.0824544,45.2730762 C89.0212526,44.7853208 89.0251262,44.7810721 89.4217754,44.7819218 C89.8618082,44.7827716 90.301841,44.7819218 90.7558184,44.7819218 C90.806949,44.4700643 90.8526566,44.1870981 90.8968148,43.9151787 C90.588482,43.9151787 90.3033904,43.8862873 90.0252711,43.9219767 C89.64644,43.9704124 89.6487642,43.9908063 89.559673,43.5013514 C90.0686546,43.4376203 90.5776361,43.3883349 91.0827442,43.3050596 C91.5886269,43.2217843 92.0890867,43.1053688 92.6058154,43" id="Fill-23" fill="#EEB718"></path>
                        <path d="M22.1815596,46.1511936 C21.5338875,47.4939271 20.5494883,48.3776351 19.3127393,49 C19.2291435,48.8701661 19.1596105,48.7369817 19.068202,48.6255759 C18.9361676,48.4647494 19.0127319,48.3901996 19.1541417,48.3365908 C19.7940011,48.0945135 20.4010472,47.7577831 20.850277,47.2208572 C21.2448179,46.7501047 21.5323249,46.1763228 21.8588954,45.6419098 C21.9003027,45.5757364 21.8940525,45.4777328 21.9190532,45.3462236 L19.7432186,45.3462236 C19.7361872,44.7397738 19.7361872,44.7489879 20.2260429,44.7607148 C20.7658999,44.7732794 21.3057569,44.7632277 21.8456139,44.7749546 C22.0573378,44.7791428 22.1253082,44.695379 22.1417149,44.464191 C22.1753094,43.9800363 22.2503113,43.4983945 22.310469,43 L22.9542348,43 C22.8307943,43.5938852 22.7136039,44.1559402 22.5901634,44.7473126 C23.3433068,44.7473126 24.0253548,44.7464749 24.7066215,44.7489879 C24.8034988,44.7489879 24.9824095,44.7548513 24.9855346,44.7783052 C25.0058476,44.9374564 25.0074101,45.1066592 24.9730342,45.2616222 C24.9628777,45.3085299 24.8191242,45.3462236 24.7363097,45.3470613 C24.0323862,45.3537624 23.3284627,45.3512495 22.6261017,45.3512495 C22.4331283,46.1495184 23.4472156,47.7494067 24.5902124,48.4228675 C24.461303,48.583694 24.3558316,48.7679743 24.2042654,48.8785425 C24.1378575,48.9271255 23.9550406,48.8592768 23.8612883,48.7889153 C23.1628336,48.262041 22.7182915,47.5207315 22.3815645,46.6956582 C22.3167192,46.5356694 22.2620303,46.3714924 22.1815596,46.1511936" id="Fill-25" fill="#EEB718"></path>
                        <path d="M67.1622238,44.7702479 C66.7235598,44.6652893 66.4416643,44.8867769 66.4416643,45.3322314 C66.4423834,45.7471074 66.4704291,46.1619835 66.4927219,46.5760331 C66.4977557,46.6619835 66.5322735,46.746281 66.5524089,46.8305785 C66.938577,46.2 67.0169613,45.4876033 67.1622238,44.7702479 M66.8321471,44.3297521 L68,44.3297521 C67.9834602,44.477686 67.9697969,44.5917355 67.9554145,44.7231405 C67.8655243,44.7231405 67.7763533,44.6933884 67.7181045,44.7297521 C67.6368438,44.7809917 67.5275373,44.8735537 67.5174696,44.961157 C67.4290177,45.7727273 67.2427653,46.5479339 66.8752944,47.2495868 C66.7264363,47.5347107 66.7695836,47.746281 66.9644654,47.9421488 C67.1320207,48.1115702 67.3146775,48.2636364 67.4923004,48.4247934 C67.3707689,48.577686 67.2571478,48.7206612 67.1010984,48.9173554 C66.8537207,48.6181818 66.6156916,48.3305785 66.3683139,48.031405 C65.9936517,48.3528926 65.6089219,48.6834711 65.2400127,49 C65.1177621,48.8512397 65.0091747,48.7198347 64.8790138,48.5628099 C64.9969497,48.4859504 65.1386166,48.3900826 65.2824408,48.3 C65.3802413,48.2371901 65.490986,48.1958678 65.5808761,48.1214876 C65.9253352,47.8363636 66.3021547,47.5842975 66.1410716,46.9520661 C66.0770698,46.7 66.1302848,46.4090909 66.1302848,46.2578512 C65.9102337,46.1 65.7556226,45.9892562 65.6010115,45.877686 C65.6161131,45.8413223 65.6312146,45.8049587 65.6463162,45.768595 L64.0218213,45.768595 C63.9585386,45.477686 64.0290125,45.3586777 64.2843005,45.3719008 C64.6661539,45.3900826 65.0494455,45.3694215 65.432018,45.3809917 C65.5722467,45.385124 65.7117562,45.4338843 65.9188631,45.5305785 C66.2180176,44.7016529 66.5164529,43.8719008 66.8299897,43 C66.9292285,43.014876 67.0737718,43.0371901 67.2427653,43.0636364 C67.1039749,43.492562 66.979567,43.8768595 66.8321471,44.3297521" id="Fill-27" fill="#EEB718"></path>
                        <path d="M34.5416901,48 L34,48 C34.2966197,46.3266991 34.5915493,44.6674038 34.8864789,43 L37,43 C36.7515493,43.479139 36.5250704,43.9162612 36.2977465,44.3541206 C36.2842254,44.3806575 36.268169,44.4071945 36.2512676,44.4329943 C36.0146479,44.7853457 35.9030986,45.1185316 36.2876056,45.4723574 C36.4295775,45.6028306 36.4921127,45.8188117 36.5360563,46.0053074 C36.6357746,46.4210526 36.4904225,47.0063394 35.8405634,47.1508182 C35.6394366,47.1950464 35.4442254,47.2636002 35.2143662,47.3314168 C35.1569014,47.1368126 35.1078873,46.9731682 35.056338,46.7992039 C35.2380282,46.7682441 35.3926761,46.7468672 35.5439437,46.7151703 C35.9259155,46.6333481 36.1076056,46.4181041 35.9842254,46.0922895 C35.8785915,45.8107032 35.7028169,45.5438596 35.5202817,45.2917588 C35.4095775,45.1391715 35.3943662,45.0293381 35.4847887,44.8656936 C35.7459155,44.3946631 35.98,43.9133127 36.2571831,43.3729913 C35.955493,43.3729913 35.7112676,43.3494029 35.4788732,43.3855226 C35.3977465,43.3987911 35.3047887,43.5506413 35.2861972,43.6494177 C35.0969014,44.6099071 34.9152113,45.5718709 34.7470423,46.5353089 C34.6642254,47.0159222 34.6109859,47.5002211 34.5416901,48" id="Fill-29" fill="#EEB718"></path>
                        <path d="M63.4745563,46.184621 C63.4035742,46.3344563 63.3317763,46.4842916 63.2534512,46.6523389 C62.9107791,46.1779984 62.9303603,46.1962104 63.2232634,45.868394 C63.6573148,45.3849475 64.0595466,44.8733552 64.4903345,44.3551403 C64.5556054,44.4130876 64.6633023,44.507459 64.8321907,44.6564665 C64.8819598,44.3567959 64.9504942,44.1183839 64.9529419,43.8791441 C64.9562054,43.5422217 65.1250938,43.4966916 65.4555277,43.5695397 C65.4139175,43.8907336 65.3714914,44.2193779 65.3274336,44.5612673 C65.5363004,44.6432214 65.6684739,44.6134199 65.6945823,44.342723 C65.7280336,43.9718599 65.7851457,43.6034803 65.8251241,43.2334451 C65.8602072,42.8965226 66.090287,43.0455301 66.3162875,43 C66.2346989,43.549672 66.1588215,44.0496749 66.0796805,44.576168 L66.4386704,44.576168 C66.4965983,44.2276561 66.5520786,43.8965283 66.6100065,43.5554668 L67,43.5554668 C66.992657,43.6804675 66.9951047,43.8071239 66.9763393,43.9304689 C66.9559422,44.0711982 66.9086208,44.2077884 66.885776,44.3485177 C66.778079,44.9958724 66.7797108,44.9958724 66.1196589,44.9950446 C65.7623008,44.9950446 65.403311,45.0058062 65.0467688,44.9909055 C64.9358083,44.9859386 64.8281113,44.9139183 64.6551435,44.8493484 C64.372031,45.0654092 64.1909043,45.4130934 64.1337923,45.8460429 C64.0260953,46.6498554 63.9020806,47.4511846 63.7878566,48.2541693 C63.7658277,48.4056603 63.7470623,48.557979 63.7446146,48.7111256 C63.7413511,48.9743721 63.5447225,49.0199022 63.3750182,48.993412 C63.1767579,48.961127 63.2248952,48.7889406 63.2542671,48.6250324 C63.391336,47.8443987 63.5104553,47.0612817 63.6352859,46.2789924 C63.5822533,46.2475352 63.5275889,46.2160781 63.4745563,46.184621" id="Fill-31" fill="#EEB718"></path>
                        <path d="M66.5046468,46.0011547 C66.4395911,46.3465642 66.3828996,46.6403039 66.3141264,47.0012852 C66.510223,46.9149328 66.6375465,46.8583083 66.7918216,46.7903589 C66.8550186,46.8767112 66.9172862,46.961648 67,47.074897 C66.6552045,47.2815765 66.3252788,47.4988731 65.9674721,47.685734 C65.7871747,47.7798722 65.6254647,47.6524671 65.6672862,47.4273846 C65.7202602,47.1435542 65.8169145,46.8646785 65.8903346,46.5829716 C65.9200743,46.4697225 66.0204461,46.3324081 65.7462825,46.3097583 C65.527881,46.2913553 65.3568773,46.3132973 65.3104089,46.5150222 C65.2016729,46.9793432 65.017658,47.4231378 64.6375465,47.806061 C64.5789963,47.8655168 64.5120818,47.9207257 64.4265799,48 C64.2899628,47.9164788 64.16171,47.8364967 64,47.736696 C64.5613383,47.2744984 64.7472119,46.7110845 64.8708178,46.1271442 C64.8810409,46.0783056 64.9962825,46.0082328 65.0650558,46.0068172 C65.5315985,45.9962001 65.9981413,46.0011547 66.5046468,46.0011547" id="Fill-33" fill="#EEB718"></path>
                        <path d="M87,48.6561415 C87.5699374,47.7429744 88.1134256,46.8724345 88.6569138,46 C89.0809541,46.2548153 89.0852201,46.2661825 88.815609,46.7436059 C88.4350819,47.4190085 88.0519952,48.0934638 87.666349,48.7660246 C87.619423,48.848437 87.5494606,48.9137985 87.4794982,49 C87.3114179,48.8796969 87.1527227,48.7650774 87,48.6561415" id="Fill-35" fill="#EEB718"></path>
                        <path d="M87,45.333036 C87.0852144,45.2294103 87.1743792,45.1212225 87.273702,45 C87.5242664,45.2235447 87.7629797,45.4366617 88,45.6484752 C87.9870203,45.6901862 87.984763,45.7201659 87.971219,45.7364593 C87.7082393,46.0382121 87.7708804,46.1144649 87.4582393,45.7866428 C87.3256208,45.6484752 87.1788939,45.5285562 87.0395034,45.3988611 C87.028781,45.3884334 87.0225734,45.3714883 87,45.333036" id="Fill-37" fill="#EEB718"></path>
                        <path d="M63.7596899,43 C63.8172757,43.0482678 63.8953488,43.1135713 64,43.201589 C63.7397564,43.47416 63.4955703,43.7421882 63.234773,43.9909093 C63.200443,44.0232771 63.0802879,43.9602451 63,43.9415058 C63.0177187,43.8671166 63.013289,43.770581 63.0575858,43.7217454 C63.2763012,43.4826779 63.5083056,43.2561032 63.7596899,43" id="Fill-39" fill="#EEB718"></path>
                        <path d="M89,43.6469325 C88.8667872,43.7870497 88.7757685,43.8827733 88.6648583,44 C88.4382158,43.7599973 88.2157926,43.5234629 88,43.293865 C88.0090416,43.2619572 88.0096444,43.2508588 88.0144665,43.2446159 C88.2664256,42.9331674 88.270645,42.9269246 88.5515371,43.1814939 C88.7052441,43.3209174 88.8432791,43.4825376 89,43.6469325" id="Fill-41" fill="#EEB718"></path>
                        <path d="M54,46.895 C54.0522514,46.601 54.102701,46.308 54.157655,46 L54.9810647,46 C55.065748,47.029 54.8882735,47.046 54,46.895" id="Fill-43" fill="#EEB718"></path>
                        <g id="Group-47" transform="translate(3.000000, 0.000000)">
                            <mask id="mask-2" fill="white">
                                <use xlink:href="#path-1"></use>
                            </mask>
                            <g id="Clip-46"></g>
                            <path d="M9.51843103,19.2735529 C9.54777586,19.2568765 9.57632759,19.2394059 9.60567241,19.2227294 C9.40105172,18.7605529 9.19405172,18.2999647 8.99101724,17.8369941 C8.52546552,16.7776412 8.0622931,15.7167 7.59753448,14.6573471 C7.11691379,13.5614647 6.63232759,12.4671706 6.1517069,11.3712882 C5.93281034,10.8717882 5.71787931,10.3714941 5.50215517,9.8712 C5.37367241,9.57340588 5.20791379,9.31611176 4.88115517,9.19540588 C4.74156897,9.14299412 4.61863793,9.04531765 4.48618966,8.97067059 C4.44812069,8.94922941 4.4045,8.93652353 4.32518966,8.90475882 C6.07081034,12.3901412 7.79501724,15.8318471 9.51843103,19.2735529 Z M0.0440172414,3.62467059 C0.384258621,3.7962 0.727672414,3.96375882 1.06553448,4.14005294 C2.14098276,4.70149412 3.21484483,5.26611176 4.2887069,5.82914118 C5.6235,6.52796471 6.95353448,7.23552353 8.29546552,7.91846471 C8.60953448,8.07887647 8.7975,8.28217059 8.90694828,8.61967059 C9.21546552,9.57896471 9.56205172,10.5247588 9.88643103,11.4784941 C10.1441897,12.2384647 10.3892586,13.0032 10.6470172,13.7639647 C10.8548103,14.3738471 11.0745,14.9797588 11.2878448,15.5880529 C11.5210172,16.2519353 11.7557759,16.9166118 11.9857759,17.5820824 C12.2451207,18.3333176 12.4989138,19.0869353 12.7566724,19.8381706 C12.9240172,20.3257588 13.0945345,20.8125529 13.2642586,21.2993471 C13.2729828,21.3247588 13.2888448,21.3469941 13.3348448,21.4375235 C13.4133621,21.0976412 13.4855345,20.8244647 13.5378793,20.5473176 C13.619569,20.1224647 13.6838103,19.6944353 13.7615345,19.2687882 C13.9042931,18.4834059 14.0502241,17.6988176 14.1977414,16.9150235 C14.3682586,16.0129059 14.5459138,15.1115824 14.716431,14.2094647 C14.9194655,13.1350235 15.1137759,12.0597882 15.3191897,10.9853471 C15.4667069,10.2174353 15.6332586,9.4527 15.7783966,8.68399412 C15.9568448,7.73581765 16.1186379,6.78446471 16.2947069,5.83628824 C16.5897414,4.24408235 16.8887414,2.65346471 17.1877414,1.06205294 C17.2408793,0.780935294 17.3035345,0.5022 17.3725345,0.171847059 C17.6866034,0.473611765 17.9697414,0.742817647 18.2489138,1.0152 C19.4163621,2.15714118 20.5822241,3.30067059 21.7496724,4.44340588 C22.0907069,4.77693529 22.4309483,5.11125882 22.7775345,5.44002353 C22.8711207,5.52896471 22.9012586,5.60837647 22.8608103,5.7402 C22.7006034,6.26193529 22.5507069,6.78764118 22.4031897,7.31414118 C22.1779483,8.11858235 21.9606379,8.92461176 21.7353966,9.72905294 C21.4681207,10.6867588 21.1960862,11.6420824 20.9280172,12.5982 C20.7011897,13.4089941 20.4807069,14.2213765 20.2507069,15.0313765 C19.9818448,15.9787588 19.7010862,16.9237588 19.4346034,17.8719353 C19.2347414,18.5802882 19.0539138,19.2942 18.8540517,20.0025529 C18.5566379,21.0611118 18.2465345,22.1164941 17.9475345,23.1742588 C17.7207069,23.9779059 17.5033966,24.7839353 17.2813276,25.5891706 C17.2250172,25.7924647 17.1369828,25.9917882 17.1123966,26.1990529 C17.0862241,26.4206118 16.9720172,26.4436412 16.7896034,26.4412588 C15.965569,26.4317294 15.1415345,26.4309353 14.3167069,26.4269647 C13.7060172,26.4245824 13.0961207,26.4174353 12.4846379,26.4253765 C12.3283966,26.4277588 12.2530517,26.3658176 12.1848448,26.2387588 C11.6717069,25.2842294 11.1530172,24.3320824 10.6367069,23.3783471 C9.90784483,22.0331118 9.17977586,20.6862882 8.4525,19.3394647 C7.72839655,17.9989941 7.00667241,16.6553471 6.28177586,15.3140824 C5.54974138,13.9601118 4.81374138,12.6085235 4.0825,11.2545529 C3.28067241,9.76717059 2.48122414,8.27740588 1.67860345,6.78922941 C1.14643103,5.80214118 0.612672414,4.81584706 0.0797068966,3.82875882 C0.0511551724,3.77634706 0.0313275862,3.71996471 0.00674137931,3.66517059 L0.0440172414,3.62467059 Z" id="Fill-45" fill="#EEB718" mask="url(#mask-2)"></path>
                        </g>
                        <path d="M92.8006971,12.5393173 C92.7344679,12.5313735 92.6861595,12.5202521 92.6362928,12.5194577 C92.209309,12.5154858 91.781546,12.5250184 91.3561206,12.5043645 C91.1589912,12.4948319 91.0880869,12.5949241 91.0452327,12.7538006 C91.0156244,12.8626309 90.976666,12.9730501 90.9727701,13.0842636 C90.9712118,13.1382816 91.0382202,13.2423457 91.0756203,13.2431401 C91.5400041,13.2550559 92.0051671,13.2550559 92.4687718,13.247112 C92.5311052,13.2463177 92.6300595,13.1970659 92.646422,13.1478142 C92.7110929,12.9555737 92.7492721,12.7545949 92.8006971,12.5393173 M97.7343859,12.5361398 C97.1687103,12.534551 96.6692639,12.5281959 96.1698175,12.5361398 C96.1152758,12.5377285 96.0365799,12.6076342 96.0132048,12.6648297 C95.9617798,12.7895478 95.9352881,12.9261815 95.9033422,13.0588434 C95.8706172,13.1970659 95.9072381,13.2749154 96.0669674,13.2733267 C96.5079762,13.2685604 96.948985,13.2765042 97.3899938,13.2693547 C97.4429772,13.2685604 97.5271273,13.2248693 97.5427107,13.1811783 C97.6136149,12.9857602 97.6634816,12.7839871 97.7343859,12.5361398 M90.4686488,15.0066691 C91.0257535,15.0090523 91.5244208,15.0138186 92.0238671,15.0082579 C92.0768505,15.0074635 92.1617798,14.9542399 92.1758048,14.9065769 C92.2428132,14.6952712 92.2895633,14.476816 92.34878,14.2369125 C91.8057002,14.2353238 91.297683,14.2313519 90.7912241,14.2353238 C90.7429157,14.2353238 90.6665573,14.2750429 90.6540906,14.3123789 C90.5870822,14.5268621 90.5364363,14.7461117 90.4686488,15.0066691 M95.3890917,15.0265287 C95.9337298,15.0289118 96.4347345,15.0328837 96.9357392,15.0297062 C96.9871642,15.0289118 97.0713143,14.9931646 97.0830018,14.9550343 C97.1523478,14.7349903 97.2037728,14.5093857 97.2684437,14.2559777 C96.7105598,14.2535946 96.1947509,14.2488283 95.6797211,14.254389 C95.6392044,14.2551833 95.5760919,14.3123789 95.562846,14.3560699 C95.5005126,14.5649925 95.4514251,14.7786814 95.3890917,15.0265287 M96.8967808,18.8459194 C96.0552799,18.8427418 95.2690999,18.8379755 94.483699,18.8403587 C94.4392864,18.8411531 94.3668239,18.8880216 94.3543572,18.9285351 C94.2561821,19.2510544 94.1689153,19.5767512 94.0645069,19.9516997 C94.2741029,19.9040368 94.4377281,19.8674952 94.6036908,19.8301592 C94.6457658,19.6466568 94.6870617,19.4718927 94.7275784,19.2955398 C95.1740414,19.2971286 95.6111544,19.2987173 96.0685257,19.3011005 C95.9134714,20.1955751 95.7615337,21.067807 95.6095961,21.9408333 C96.0171007,21.9813468 96.0498257,21.9575153 96.14878,21.5944825 C96.3178593,20.9796306 96.4892762,20.3663673 96.6575764,19.7515153 C96.7370515,19.4623601 96.8102932,19.1732049 96.8967808,18.8459194 M90.520853,11.0196637 C90.6338323,11.0196637 90.707074,11.0204581 90.7810949,11.0204581 L98.8322329,11.0498503 C98.9218372,11.0498503 99.0153373,11.0641491 99.1010457,11.0458783 C99.1626,11.0323738 99.2490876,10.9862997 99.2646709,10.9354592 C99.3425877,10.6844343 99.4010252,10.4262601 99.4727086,10.1450487 C99.3612877,10.1386936 99.2740209,10.1283666 99.1867542,10.1283666 C96.4877179,10.1180397 93.7902399,10.1077127 91.0912036,10.0989745 C91.023416,10.0981801 90.9501743,10.0822925 90.8901784,10.1045352 C90.8309617,10.1259835 90.7553824,10.1760296 90.7382407,10.230842 C90.6595448,10.473923 90.6003281,10.7241535 90.520853,11.0196637 M94.7634201,17.3548636 C96.6536805,17.362013 98.5088784,17.3691624 100.433422,17.3763119 C99.9409883,19.3678286 99.4150502,21.3061217 98.907033,23.2595081 C98.6109494,23.2579193 98.3273324,23.257125 98.0429362,23.2563306 C96.3412344,23.2483868 94.6387533,23.236471 92.9370515,23.2372654 C92.7149887,23.2380598 92.6549928,23.1673597 92.6666803,22.9489046 C92.7009637,22.3189593 92.6939512,22.3229312 93.2954685,22.2188671 C93.5899938,22.1680267 93.8814025,22.098121 94.1712528,22.0258322 C94.228132,22.0123277 94.3083863,21.9598985 94.3200738,21.9106468 C94.3668239,21.7215837 94.3901989,21.52696 94.4314948,21.283879 C92.3324175,21.7223781 90.2676235,22.1529334 88.1553004,22.5938156 C88.2573713,22.2093345 88.3477548,21.8709276 88.4381382,21.5317263 C88.4506049,21.4880353 88.4661882,21.4443443 88.4770966,21.4006532 C88.5885175,20.9859856 88.5892967,20.9931351 89.004593,20.9248182 C89.5188436,20.8406136 90.0307566,20.7452877 90.5434488,20.6475787 C90.5901989,20.6380461 90.6533115,20.5848225 90.6657781,20.5395427 C90.8177158,19.9930076 90.9618618,19.4440893 91.1060078,18.8951711 C91.1091245,18.882461 91.0982161,18.8665733 91.0849703,18.8236767 C90.8644659,18.8228823 90.6346114,18.8220879 90.4039779,18.8212935 C89.9014148,18.8189104 89.3996309,18.8197047 88.8970679,18.8141441 C88.7661677,18.8125553 88.7046135,18.8459194 88.669551,18.9936745 C88.5020299,19.703058 88.3095756,20.4060864 88.1389379,21.1138812 C87.9753127,21.7922838 87.8319459,22.476247 87.6659832,23.1538552 C87.6410498,23.2587137 87.5631331,23.3905812 87.4750871,23.4318891 C86.3826943,23.9450601 85.2832889,24.4439323 84.1846627,24.9451876 C84.139471,24.9658416 84.0888251,24.9737854 84,25 C84.0646709,24.7124336 84.1176543,24.4550537 84.1807669,24.2008513 C84.5095756,22.8678776 84.8399426,21.5364926 85.1710888,20.2043133 C85.386139,19.3376421 85.6043059,18.4717652 85.8154603,17.6035053 C85.8622104,17.4144422 85.9276604,17.3222939 86.1567357,17.324677 C87.8654501,17.345331 89.5749436,17.3429478 91.2852163,17.3548636 C91.4589707,17.3556579 91.5594833,17.3230883 91.5922083,17.125287 C91.6257125,16.919542 91.6997334,16.7209464 91.7651835,16.4866036 C90.348657,16.4810429 88.9648554,16.4762766 87.5327455,16.4707159 C87.972196,14.8033072 88.4015173,13.1732345 88.8448636,11.49391 C88.3033422,11.4923213 87.7992208,11.4899381 87.2662702,11.4883494 C87.4034037,10.9672345 87.5272914,10.4953713 87.6527373,10.0227138 C87.7680541,9.58262592 87.8880459,9.14412682 87.9986877,8.70245019 C88.0407628,8.53404112 88.1225754,8.47922873 88.2971089,8.48002311 C90.0143941,8.49273323 91.7309001,8.49273323 93.4481854,8.50544335 C93.6702481,8.50703212 93.762969,8.46334108 93.7653065,8.20754994 C93.767644,7.86675988 93.8330941,7.52596982 93.869715,7.18597415 C93.8891942,7.00406057 93.9546442,6.95560324 94.1338528,7.04060216 C95.0797621,7.48863385 96.0303465,7.92554418 96.9793726,8.36404328 C97.218577,8.47446244 97.4647939,8.52530291 97.7336067,8.52450853 C99.4064794,8.52053662 101.077794,8.53086359 102.749887,8.53721865 C102.821571,8.53801303 102.893254,8.54595686 103,8.55151753 C102.899487,8.9328211 102.807546,9.28314374 102.715604,9.63346639 C102.575354,10.1672914 102.430429,10.7011164 102.298749,11.2373245 C102.245766,11.4565741 102.161616,11.5804977 101.907607,11.5518999 C101.663728,11.5240966 101.414394,11.5447505 101.138569,11.5431617 C100.981956,12.1214721 100.823785,12.6973994 100.671068,13.274121 C100.394464,14.3139676 100.124872,15.355403 99.8381382,16.3928664 C99.8217757,16.4532395 99.679188,16.5128182 99.5950379,16.5144069 C98.9272914,16.5223508 98.260324,16.5144069 97.5925774,16.5128182 C96.7900349,16.510435 95.9882715,16.5120238 95.1865081,16.5016968 C95.0369079,16.4993137 94.9698995,16.5469766 94.9379537,16.6907598 C94.8912036,16.90286 94.8288702,17.1101938 94.7634201,17.3548636" id="Fill-48" fill="#EEB718"></path>
                        <path d="M30.4125349,17.7610207 C30.5748369,17.8737789 34.1494976,17.8932199 34.3399212,17.7835723 C33.8192694,17.4802916 33.3074557,17.1762333 32.7876073,16.8846173 C32.7217224,16.8472904 32.6052185,16.8426245 32.5337092,16.8713973 C31.8266511,17.1614581 31.1236104,17.4616282 30.4125349,17.7610207 M30.4053036,13.7950425 C30.4149453,13.8168165 30.424587,13.8378129 30.4334252,13.8595869 C30.4993102,13.865808 30.5643917,13.8759174 30.6302766,13.876695 C31.410451,13.8798056 32.1898218,13.8743621 32.9699962,13.8891373 C33.1210495,13.8914702 33.2696924,13.9762333 33.4231561,14.0081166 C33.5340357,14.0306683 33.6666091,14.0664399 33.7622226,14.029113 C34.2676085,13.8339247 34.7649596,13.6200729 35.2631141,13.4077764 C35.4037223,13.3478979 35.5379026,13.2732442 35.6752969,13.2055893 C35.6070015,13.1441555 35.5515617,13.1293803 35.4969254,13.1286027 C34.1607463,13.1239368 32.8245672,13.119271 31.4891915,13.1161604 C31.4208962,13.1161604 31.3349243,13.108384 31.2875193,13.1426002 C30.98943,13.3541191 30.698572,13.5765249 30.4053036,13.7950425 M39.0651584,10.5662697 C38.9430302,10.5662697 38.851434,10.5654921 38.7598378,10.5654921 C36.122029,10.5561604 33.4858272,10.5468287 30.8496253,10.537497 C30.5362701,10.5367193 30.5202005,10.5530498 30.505738,10.9022114 C31.699702,10.9068773 32.8912556,10.9107655 34.1350351,10.9146537 C33.9164899,11.112175 33.7389219,11.273147 33.5605504,11.4333414 L33.6079554,11.4901094 C33.8851543,11.490887 34.1631567,11.4916646 34.4411591,11.4932199 C35.8014425,11.5002187 37.1617258,11.5064399 38.5228127,11.5157716 C38.6714556,11.5173269 38.7598378,11.4838882 38.8016185,11.3221385 C38.8650931,11.0779587 38.9663309,10.8431106 39.0651584,10.5662697 M27.7811539,21.3755043 C27.8510562,21.3863913 27.8880161,21.3965006 27.9249759,21.3965006 C30.1425672,21.4050547 32.3601586,21.4112758 34.5777499,21.4221628 C34.7207684,21.4221628 34.7802256,21.3708384 34.8131681,21.2394168 C34.9425276,20.7191738 35.0847427,20.202819 35.2165126,19.6833536 C35.283201,19.4135115 35.2751663,19.4096233 34.9867187,19.4088457 C32.9716031,19.4018469 30.9548806,19.3956258 28.9381581,19.388627 C28.3821533,19.3870717 28.374922,19.3847388 28.2150304,19.8964277 C28.0639771,20.3777886 27.9297968,20.864593 27.7811539,21.3755043 M30.2751406,15.4055407 C29.829212,15.1442527 29.3776589,14.8922965 28.941372,14.6177886 C28.728451,14.484034 28.5115128,14.4397084 28.2656494,14.4412637 C27.5160071,14.4467072 26.7655613,14.440486 26.0159191,14.4373755 C25.9428028,14.4373755 25.8696866,14.4303767 25.7708592,14.3736087 L28.9269094,12.0087971 C28.922892,11.989356 28.9188746,11.9699149 28.9148573,11.9504739 C28.1989609,11.9481409 27.4830646,11.945808 26.7205667,11.9434751 C26.8290359,11.5904253 26.9198286,11.2855893 27.0154421,10.9830863 C27.196224,10.4084083 27.3818268,9.83528554 27.5610017,9.25982989 C27.5995685,9.13540705 27.6662569,9.08952612 27.808472,9.0871932 C29.7392227,9.05297691 31.6699734,9.02031592 33.6007241,8.96043742 C33.8602466,8.95188335 34.122983,8.80957473 34.3720602,8.70070474 C35.6021806,8.16335358 36.8274802,7.61589307 38.0559936,7.07309842 C38.1082195,7.04976914 38.1652663,7.03732685 38.2817702,7 C37.9860913,7.66955043 37.7113028,8.290887 37.4220518,8.94566221 C37.5240931,8.96043742 37.5883711,8.97832321 37.6526491,8.97676792 C38.1307168,8.96976914 38.6103915,8.95888214 39.0900661,8.94955043 C40.3177761,8.9254435 41.5462895,8.90289186 42.7756065,8.87800729 C43.0070073,8.87256379 43.0383428,8.9036695 42.9644231,9.11907655 C42.6912416,9.92160389 42.4188635,10.7249089 42.1376472,11.5251033 C41.9697209,12.000243 41.9608827,12.0017983 41.433803,11.9909113 C41.2851601,11.9870231 41.224096,12.0243499 41.1815118,12.174435 C41.0778635,12.5399271 40.9436832,12.8976428 40.8103063,13.2545808 C40.7845951,13.3222357 40.7130858,13.3930012 40.6447905,13.4225516 C39.5319774,13.9023572 38.415147,14.3767193 37.2983166,14.8503038 C36.8917582,15.0229405 36.4827894,15.1909113 36.0754275,15.3619927 C36.0280225,15.3814338 35.9862417,15.4109842 35.8978595,15.4607533 C37.4357109,16.3472661 38.9430302,17.2166707 40.449546,18.0852977 C40.4415113,18.1078493 40.4334765,18.1296233 40.4254418,18.1513973 C39.9987965,18.149842 39.5713477,18.1490644 39.1205982,18.1467315 C38.706005,19.7720049 38.2962327,21.3786148 37.882443,23 C33.2648715,22.9836695 28.6529244,22.967339 24,22.9510085 C24.4740503,21.3358445 24.9424763,19.7424544 25.4213475,18.1125152 C24.9818466,18.1109599 24.5937681,18.1094046 24.2048862,18.1078493 C24.1992618,18.0852977 24.192834,18.0619684 24.1864062,18.0386391 C26.2143774,17.1707898 28.2648459,16.3488214 30.2928171,15.4778615 C30.2863893,15.4537546 30.280765,15.4296476 30.2751406,15.4055407" id="Fill-50" fill="#EEB718"></path>
                        <path d="M63.2377761,18.4503881 C63.479863,17.3816249 63.7157425,16.3330858 63.9523979,15.2853245 C63.9081705,15.267434 63.8879966,15.2518771 63.8678227,15.2518771 C63.3386456,15.2596555 62.8086927,15.2627669 62.2802916,15.2861024 C62.2174421,15.2892138 62.1282114,15.3926676 62.1057097,15.4665631 C62.0513954,15.6423568 62.0335492,15.8290403 61.9924255,16.0087232 C61.85276,16.6029991 61.7061112,17.1949414 61.5687735,17.7892173 C61.5191147,18.0015698 61.486526,18.2170337 61.4430746,18.4441653 C62.0614823,18.445721 62.6341108,18.4480546 63.2377761,18.4503881 M71.5377859,13.3445937 C71.4012241,13.952093 71.2693178,14.5448132 71.1288764,15.1678695 C71.0287828,15.1670916 70.9263614,15.1647581 70.824716,15.1670916 C69.7508435,15.1865378 68.6754192,15.2106511 67.6007709,15.2246524 C67.4036874,15.2269859 67.3276473,15.2861024 67.2841958,15.4945657 C67.1018547,16.3743118 66.8908046,17.2478351 66.6906174,18.1244698 C66.6735472,18.2014768 66.665788,18.2815951 66.6518215,18.3702698 C68.1237406,18.3757147 69.5739339,18.3811596 71.0528363,18.3866046 C71.0194717,18.5569533 70.9892109,18.7288577 70.9511908,18.8999843 C70.8642879,19.2920197 70.7812645,19.6848329 70.6765154,20.0722012 C70.6594451,20.1328734 70.5430572,20.2021019 70.4701208,20.2044354 C69.7314455,20.2262151 68.9927703,20.2347715 68.254095,20.2464392 C67.6496538,20.2557734 67.0444367,20.2682189 66.4399955,20.2682189 C66.2964504,20.2682189 66.2359287,20.3327803 66.2064437,20.4533468 C66.0225508,21.2117486 65.8347783,21.9701504 65.6601965,22.7316636 C65.6190727,22.9097908 65.54924,22.9696851 65.3622434,22.9657959 C64.683314,22.954906 64.0036086,22.9611288 63.3239032,22.9665737 C63.027502,22.9696851 62.7295489,22.9836864 62.4323718,22.9992433 C62.2864989,23.0070218 62.2151144,22.9556838 62.2500307,22.8055592 C62.3858166,22.2105054 62.5278099,21.6170074 62.6635958,21.0219537 C62.7140305,20.800267 62.7536024,20.5754689 62.8063649,20.3071113 C60.5305933,20.3296689 58.2827549,20.3522265 56,20.3747841 C56.0706087,20.0511993 56.1334581,19.7618399 56.1970835,19.4724804 C56.2467424,19.2414596 56.3088159,19.0119944 56.3445082,18.77864 C56.3724413,18.59429 56.4337389,18.512616 56.6424613,18.5180609 C57.0599059,18.5312843 57.4781264,18.5025039 57.896347,18.5017261 C58.0453235,18.5017261 58.1073971,18.4363869 58.1376579,18.3002634 C58.3758652,17.2416123 58.6210557,16.1845168 58.8577111,15.1258657 C58.9632362,14.6552676 59.0563465,14.182336 59.1541123,13.7101823 C59.1890287,13.542945 59.2495504,13.4433804 59.4606005,13.4433804 C60.7144862,13.4441583 61.968372,13.4278235 63.2214818,13.4146001 C63.5574549,13.4107108 63.8942039,13.404488 64.2286252,13.3827083 C64.297682,13.3780412 64.403983,13.3150355 64.422605,13.2566969 C64.6708992,12.478071 64.9060028,11.6955559 65.1442101,10.9138187 C65.1488656,10.9005953 65.1426582,10.8850383 65.1387786,10.845368 C65.0743773,10.8375896 65.0045446,10.8212548 64.9347118,10.8212548 C64.105254,10.8212548 63.2765721,10.8298111 62.4478902,10.8204769 C62.2414956,10.8181434 62.1235559,10.8998174 62.0188067,11.0662769 C61.7790477,11.4419775 61.5276498,11.8106774 61.2684927,12.1739325 C61.2234894,12.2369382 61.1218439,12.273497 61.0403724,12.2937211 C60.3862723,12.4609584 59.7298445,12.6227508 59.0749686,12.7829875 C58.5357046,12.9144438 57.9956647,13.0427887 57.4564007,13.1719115 C57.3780328,13.1905798 57.2988891,13.2053589 57.1755179,13.2318058 C57.2391433,13.1306855 57.2779392,13.0630127 57.3229426,12.9992292 C57.8885878,12.1980458 58.4565608,11.398418 59.022206,10.5972345 C59.5785403,9.81160803 60.1356504,9.02598154 60.6865531,8.2364658 C60.7889745,8.08867467 60.8983791,8.02566898 61.0869276,8.02566898 C62.0343251,8.02722468 62.9824986,8.01088987 63.9306721,8 C63.9663644,8 64.0028326,8 64.1122373,8.00077785 C63.8965317,8.32436262 63.7064314,8.609055 63.4946054,8.92719484 C63.6055619,8.93263977 63.6823779,8.94041825 63.759194,8.93886256 C65.6633001,8.91786066 67.5666304,8.89296952 69.4699607,8.87274548 C70.5601275,8.86107776 71.6502942,8.85485497 72.739685,8.84629864 C73.0252234,8.8439651 73.028327,8.84474295 72.9701331,9.12554608 C72.8723673,9.58992135 72.7660663,10.0527409 72.6714041,10.517894 C72.6395914,10.6750193 72.5728624,10.7372472 72.4021601,10.7372472 C71.132756,10.7364693 69.8633518,10.7528041 68.5939477,10.748137 C68.398416,10.7473592 68.3363425,10.8181434 68.2998743,10.9861585 C68.1307238,11.7632287 67.9538142,12.5387432 67.7769046,13.3305925 C69.0121683,13.3352596 70.2520875,13.3399266 71.5377859,13.3445937" id="Fill-52" fill="#EEB718"></path>
                        <path d="M51.2752298,17.6594928 C49.1127831,17.6797009 46.961892,17.6999091 44.8079195,17.7201172 C44.7486005,17.9803981 44.6969853,18.2067293 44.6445997,18.4362938 C45.0629141,18.4379105 45.4396282,18.4435688 45.8155719,18.4403355 C47.5104001,18.4249773 49.2059987,18.4031525 50.9015972,18.3942609 C51.0787838,18.3934526 51.1627549,18.3190866 51.1951107,18.1558048 C51.2259257,18.0062645 51.2444148,17.8542993 51.2752298,17.6594928 M44.1754404,20.585632 C44.2409224,20.5945236 44.2763597,20.6042235 44.311797,20.6034152 C44.9411946,20.5929069 45.5713625,20.5783571 46.2007601,20.5710821 C47.6159417,20.5541073 49.0311232,20.5419824 50.4463048,20.5193493 C50.5248832,20.5177326 50.6512249,20.4587249 50.6727954,20.3964838 C50.7452108,20.1822775 50.7791074,19.9551379 50.8345745,19.7069819 C50.7120846,19.7069819 50.6242617,19.7053653 50.5372092,19.7061736 C48.6551795,19.7304234 46.7731498,19.7530565 44.8918905,19.7805396 C44.2293668,19.7902395 44.3788198,19.7069819 44.2293668,20.3108013 C44.209337,20.3916338 44.1970109,20.4748914 44.1754404,20.585632 M55,16 C54.4276103,18.6505002 53.8667762,21.2460342 53.303631,23.8528847 C53.2219711,23.856118 53.1495557,23.8617763 53.0771404,23.8625846 C51.9354425,23.8730929 50.7945149,23.8819844 49.6535874,23.893301 C49.5195419,23.8949177 49.4448154,23.8569263 49.3962816,23.7049611 C49.2707103,23.320198 49.1181757,22.9467515 48.9648708,22.5369304 C49.0719532,22.5199555 49.1474501,22.4989391 49.2244877,22.4973224 C49.4540599,22.4924725 49.6851728,22.4803476 49.9132043,22.4989391 C50.1343023,22.5167222 50.2552514,22.4488229 50.2313697,22.1683338 C50.1697396,22.1594423 50.0934723,22.1376175 50.0172051,22.1376175 C48.705254,22.1432757 47.3940732,22.1481257 46.0821221,22.1610589 C45.394176,22.1683338 44.7062298,22.1982419 44.0182836,22.2039002 C43.8118227,22.2063251 43.7424888,22.2911994 43.7078219,22.4989391 C43.6330954,22.9394766 43.5314057,23.3751642 43.4266345,23.8092351 C43.4104566,23.8747095 43.3118484,23.965242 43.2509886,23.9660503 C42.1986544,23.9846418 41.1463202,23.9911084 40.0939859,24 C40.0731858,24 40.0523856,23.9870668 40,23.9700919 C40.5616044,21.3745579 41.1224385,18.7782156 41.6886652,16.1608568 C46.1175594,16.1075073 50.5364388,16.0541578 55,16" id="Fill-54" fill="#EEB718"></path>
                        <path d="M52.9761689,8.61011688 C54.6667052,8.58402383 56.31026,8.55869823 58,8.53260518 C57.9498334,8.78048914 57.9108149,8.99383819 57.8638334,9.20565235 C57.8112779,9.43511769 57.7276668,9.66074582 57.7029816,9.89251349 C57.6830742,10.0690253 57.574778,10.0751648 57.4545373,10.0766997 C56.9337597,10.0851416 56.4121859,10.0866765 55.8914084,10.0912811 C54.8809088,10.099723 53.8688167,10.1112346 52.8583171,10.113537 C52.6863172,10.1143044 52.5899654,10.1496068 52.5684654,10.3368628 C52.5429839,10.560956 52.4832618,10.7804446 52.4307062,11.0329332 C52.6273913,11.0337007 52.7938172,11.036003 52.9594467,11.0344681 C54.1618536,11.0244914 55.3650567,11.0122123 56.5682599,11.003003 C56.721945,11.0022355 56.8748338,11.0168169 57.0293153,11.0237239 C57.0030375,11.1672357 56.9791486,11.3115149 56.9480931,11.4534918 C56.8867783,11.7320734 56.8318339,12.0129574 56.7474265,12.2853996 C56.7283154,12.346795 56.6048895,12.4112602 56.5252599,12.4173997 C56.2736304,12.4358183 56.019612,12.4273765 55.7671862,12.4296788 C54.5942423,12.4411904 53.422891,12.4534695 52.2507433,12.4649811 C52.2045582,12.4657486 52.1599656,12.4703532 52.0867064,12.4749579 C52.0206138,12.7719582 51.9553175,13.0704934 51.8804657,13.409703 C53.7207056,13.3805402 55.537853,13.3513774 57.3980003,13.3214471 C57.2610374,13.8433081 57.1352226,14.3237272 57.0054264,14.8164253 C56.9417227,14.8194951 56.8748338,14.8248672 56.8071487,14.8256346 C54.4102979,14.8524951 52.0134472,14.8808905 49.6165964,14.9069836 C47.6545232,14.9277045 45.6932463,14.9438208 43.7327657,14.9653092 C43.2350808,14.9706813 42.7373958,14.9844953 42.2397108,14.9990767 C42.051785,15.0052162 41.9498591,14.9867976 42.0247109,14.7542625 C42.1441553,14.3835877 42.2253775,14.0014013 42.3177478,13.6238195 C42.3551737,13.4726333 42.4674515,13.4864473 42.5853033,13.4856798 C43.9262656,13.4726333 45.2664317,13.4595868 46.607394,13.4434705 C46.9593568,13.4388658 47.3121159,13.4204472 47.6640787,13.41661 C47.8456342,13.4150751 47.9348194,13.3728658 47.9356157,13.1656563 C47.936412,12.9576793 48.0072823,12.7504698 48.0574489,12.4864695 C46.4975052,12.5087254 44.9654318,12.5302138 43.3927473,12.5524696 C43.4453029,12.3253066 43.4875066,12.1288413 43.5384695,11.9354457 C43.5934139,11.7282362 43.6650806,11.5263988 43.7136546,11.3191893 C43.7455064,11.1802822 43.8131916,11.1273287 43.9644878,11.1265612 C44.6150616,11.122724 45.2664317,11.1073752 45.9178018,11.0989333 C46.6838385,11.0889565 47.4490788,11.0774449 48.2151155,11.0743751 C48.3648192,11.0743751 48.4372821,11.0321658 48.4579858,10.8832819 C48.4906339,10.6522817 48.5431895,10.4243512 48.5861894,10.1979557 C46.906005,10.1925836 45.2497095,10.186444 43.5615621,10.1803045 C43.6714509,9.71369936 43.7757657,9.24939658 43.8999879,8.78969845 C43.9127286,8.74058213 44.0353582,8.68916347 44.1086174,8.68762859 C45.0434688,8.67458206 45.9783203,8.67381462 46.9131717,8.66383786 C47.503227,8.65769832 48.0932823,8.62316341 48.681745,8.64158203 C48.96443,8.6500239 49.0145967,8.4880935 49.02893,8.31081426 C49.0464485,8.06983728 49.1658929,8.02993026 49.3848743,8.02916282 C50.5657811,8.02686049 51.7450954,8.00997675 52.925206,8 C52.9761689,8 53.0271319,8.01458141 53.10278,8.02609305 C53.0621689,8.21181416 53.0255393,8.38679108 52.9761689,8.61011688" id="Fill-56" fill="#EEB718"></path>
                        <path d="M81.3077006,13.0482128 C79.4969714,16.0382377 77.6862423,19.0282627 75.8601354,22.045719 C75.9324108,22.0648379 76.0046862,22.0997506 76.0761927,22.1005819 C77.3932963,22.1080632 78.709631,22.1113882 80.0267347,22.1155445 C80.0413435,22.1155445 80.0544146,22.1080632 80.1236144,22.0881131 C79.8591173,20.5727348 79.5938512,19.0523691 79.3239718,17.5070657 C79.7022643,17.5087282 80.0405746,17.5037406 80.3781161,17.5128845 C81.0209057,17.5286783 81.6644642,17.560266 82.3072538,17.566916 C82.4794845,17.5685786 82.5448399,17.6492103 82.5794399,17.8054863 C82.7039996,18.3682461 82.8247148,18.9326683 82.9569634,19.4937656 C83.1092031,20.1404821 83.2745138,20.7838736 83.429829,21.4297589 C83.620513,22.2202826 83.8081215,23.0124688 83.9934232,23.8038238 C84.0072632,23.8620116 83.994961,23.9268495 83.994961,24 C79.6684333,23.9825436 75.3511321,23.9659185 71,23.9484622 C71.0369066,23.8736492 71.0561288,23.8179551 71.0876531,23.7705736 C71.9441934,22.4896093 72.8015025,21.2103076 73.6611183,19.9310058 C74.6153072,18.5087282 75.5710339,17.0872818 76.5252228,15.6650042 C76.9311952,15.0606816 77.3433186,14.4613466 77.7316066,13.8445553 C77.8761574,13.6134663 78.0745303,13.563591 78.2921253,13.5236908 C78.7926708,13.433084 79.2939852,13.3491272 79.7945307,13.2610141 C80.2858496,13.1753948 80.7771685,13.0872818 81.2677184,13 C81.2815584,13.0157938 81.2938606,13.0315877 81.3077006,13.0482128" id="Fill-58" fill="#EEB718"></path>
                        <path d="M80,9.03249828 C79.556812,9.63366626 79.1439905,10.1916564 78.7328105,10.7513073 C77.5312785,12.3837606 76.3322086,14.0178747 75.1257523,15.6461764 C75.0428597,15.7566119 74.9066205,15.8554227 74.7753055,15.8961095 C73.5450483,16.2714243 72.3098669,16.6334536 71.0763268,16.9988043 C71.0631953,17.002956 71.046781,16.9954829 71,16.9888402 C71.0196972,16.9298859 71.0254423,16.8692709 71.0558089,16.8244324 C71.784607,15.7225679 72.5191501,14.6231944 73.2463068,13.5204995 C74.1778224,12.110578 75.1019515,10.694844 76.0383914,9.28741343 C76.0966624,9.20022747 76.2312603,9.1188539 76.3338501,9.11553253 C77.4927047,9.06737267 78.6523801,9.03498931 79.8120554,9.00011492 C79.8563742,8.99845424 79.9006931,9.01506109 80,9.03249828" id="Fill-60" fill="#EEB718"></path>
                        <path d="M81,9.0472327 C81.5070561,9.04886237 81.9796521,9.05701069 82.4522481,9.05049203 C83.1217591,9.04152887 83.7920906,9.03012121 84.4624221,9.00078724 C84.6847719,8.99100924 84.7643584,9.07167768 84.7930752,9.27864519 C84.8866098,9.95088218 84.9891697,10.6223043 85.0950115,11.2929117 C85.2041352,11.9855195 85.3239252,12.6773124 85.4330489,13.3699203 C85.5692484,14.2336429 85.7005251,15.0981804 85.8342632,15.9619031 C85.8867739,16.298429 85.9409255,16.6349549 86,17 C85.922875,16.9796292 85.8711848,16.9747402 85.8276994,16.9535545 C84.95553,16.522508 84.0841812,16.0898319 83.2128323,15.6571557 C83.0036101,15.5528571 82.8009518,15.431447 82.5843453,15.3450748 C82.4210699,15.280703 82.3636364,15.1666264 82.3291762,15.0150675 C82.0658024,13.8531161 81.8007877,12.6927943 81.532491,11.5324725 C81.3675747,10.8129752 81.196915,10.0934779 81.0319987,9.37398062 C81.0139481,9.29168252 81.0155891,9.20531025 81,9.0472327" id="Fill-62" fill="#EEB718"></path>
                        <path d="M0.0493171472,1 C1.19878604,1.4962679 2.34825493,1.99253581 3.49772382,2.48880371 C3.49241275,2.5089772 3.48634294,2.5291507 3.48027314,2.54932419 C2.81866464,2.34516845 2.15781487,2.14101271 1.49620637,1.93685697 L1.43854325,1.97720395 L7,12.9644947 C6.98103187,12.9765987 6.96054628,12.9878959 6.94157815,13 L0,1.06536211 C0.0166919575,1.04357474 0.033383915,1.02178737 0.0493171472,1" id="Fill-64" fill="#EEB718"></path>
                        <path d="M100.818782,23.0077085 C100.878173,23.9873861 100.937563,24.9670638 101,26 C99.9705584,25.6384022 98.9852792,25.2929222 98,24.9474422 L98.0175127,24.889979 C98.5558376,24.9551507 99.0941624,25.0217239 99.6317259,25.0861948 C99.7695431,25.1030133 99.9081218,25.1289418 100.043655,25.1219341 C100.095431,25.119131 100.168528,25.0413455 100.185279,24.9859846 C100.299492,24.5998598 100.4,24.2116328 100.508122,23.8241065 C100.584264,23.5487036 100.664213,23.2747022 100.741878,23 C100.768528,23.0021023 100.793655,23.0049054 100.818782,23.0077085" id="Fill-66" fill="#EEB718"></path>
                        <path d="M26.9975552,7.98518648 C27.029486,7.21575462 27.042634,6.44457999 27.1046174,5.6768909 C27.1271568,5.40414779 27.0398166,5.22289997 26.8557448,5.03206692 C26.2190064,4.37591495 25.5963552,3.70843499 25,3 C25.0544702,3.02527013 25.1126971,3.04444057 25.1605933,3.07668177 C26.0659263,3.6918787 26.9721984,4.30620425 27.8709574,4.92924364 C27.941393,4.97716975 28.0165244,5.10177762 27.9968024,5.16626002 C27.7047292,6.11345417 27.3957515,7.05629139 27.0914694,8 C27.0595386,7.9947717 27.0285469,7.98954339 26.9975552,7.98518648" id="Fill-68" fill="#EEB718"></path>
                        <path d="M30.9965187,8.5562473 C30.4516971,8.59300928 29.9068755,8.63804271 29.362054,8.6656142 C28.5596171,8.70513333 27.7580505,8.73730006 26.9556136,8.7621144 C26.8033072,8.76670964 26.7589208,8.8494241 26.718886,8.97625294 C26.5169713,9.61591141 26.3098346,10.2546508 26.1044386,10.8924712 C26.0913838,10.9329094 26.0713664,10.9696714 26,11 C26.0165361,10.8437616 26.0322019,10.6884422 26.0496084,10.5322038 C26.1383812,9.73906405 26.2245431,8.94500525 26.3220191,8.15278456 C26.329852,8.09304634 26.4299391,7.99470804 26.4795474,8.00022234 C27.1192341,8.0645558 27.7571802,8.14818931 28.3968668,8.21987517 C29.1261967,8.30258963 29.8563969,8.37795169 30.586597,8.45882805 C30.7249782,8.47353284 30.8624891,8.49742813 31,8.51764722 C30.9991297,8.53051392 30.997389,8.54338061 30.9965187,8.5562473" id="Fill-70" fill="#EEB718"></path>
                        <path d="M104.391508,10.977686 C104.59795,10.2280992 104.806149,9.47933884 105.023133,8.69421488 C104.322108,8.60909091 103.661493,8.52892562 103,8.44876033 C103.001757,8.42561983 103.002635,8.40247934 103.004392,8.37933884 C103.975988,8.25702479 104.948463,8.1338843 106,8 C105.461493,9.04628099 104.959004,10.0231405 104.454758,11 C104.434553,10.992562 104.412592,10.985124 104.391508,10.977686" id="Fill-72" fill="#EEB718"></path>
                    </g>
                </g>
            </g>
        </g>
    </g>
</svg>