<svg width="20px" height="20px" viewBox="0 0 20 20" version="1.1" xmlns="http://www.w3.org/2000/svg" xmlns:xlink="http://www.w3.org/1999/xlink">
    <!-- Generator: Sketch 49.3 (51167) - http://www.bohemiancoding.com/sketch -->
    <desc>Created with Sketch.</desc>
    <defs></defs>
    <g id="2.0_公寓搜索＆3.0_门店详情" stroke="none" stroke-width="1" fill="none" fill-rule="evenodd">
        <g id="2.1.2_搜索结果页_商圈_列表_有结果" transform="translate(-1111.000000, -124.000000)" fill="#4A4A4A" fill-rule="nonzero">
            <g id="排序" transform="translate(430.000000, 112.000000)">
                <g id="地图找房" transform="translate(665.000000, 0.000000)">
                    <g id="Group-10" transform="translate(16.000000, 12.000000)">
                        <g id="地图类_地图">
                            <path d="M9.41714286,12.5557143 L10,13.3814286 L10.5828571,12.5557143 C10.6071429,12.5228571 12.98,9.17 13.7271429,8.33285714 C14.5485714,7.41571429 15,6.23142857 15,5 C15,2.24428571 12.7571429,0 10,0 C7.24285714,0 5,2.24285714 5,5 C5,6.23285714 5.45142857,7.41714286 6.27428571,8.33428571 C7.02285714,9.17 9.39285714,12.5228571 9.41714286,12.5557143 Z M10,1.42857143 C11.97,1.42857143 13.5714286,3.03142857 13.5714286,5 C13.5714286,5.88 13.2485714,6.72571429 12.6614286,7.38142857 C12.0985714,8.01142857 10.7728571,9.83571429 10,10.9128571 C9.22857143,9.83571429 7.90285714,8.01142857 7.33857143,7.38142857 C6.75285714,6.72714286 6.42857143,5.88142857 6.42857143,5 C6.42857143,3.03142857 8.03,1.42857143 10,1.42857143 Z M10,7.14285714 C11.1814286,7.14285714 12.1428571,6.18142857 12.1428571,5 C12.1428571,3.81857143 11.1814286,2.85714286 10,2.85714286 C8.81857143,2.85714286 7.85714286,3.81857143 7.85714286,5 C7.85714286,6.18142857 8.81857143,7.14285714 10,7.14285714 Z M10,4.28571429 C10.3928571,4.28571429 10.7142857,4.60571429 10.7142857,5 C10.7142857,5.39428571 10.3928571,5.71428571 10,5.71428571 C9.60714286,5.71428571 9.28571429,5.39428571 9.28571429,5 C9.28571429,4.60571429 9.60714286,4.28571429 10,4.28571429 Z M20,1.45142857 L20,17.1471429 L13.75,20 L7.14285714,17.1428571 L0,19.9857143 L0,4.33428571 L3.75571429,2.81857143 C3.64428571,3.29142857 3.57142857,3.77857143 3.57142857,4.28571429 C3.57142857,4.33428571 3.58285714,4.38 3.58428571,4.42857143 L1.42857143,5.29857143 L1.42857143,17.88 L5.71428571,16.1742857 L5.71428571,9.19714286 C6.11714286,9.71857143 6.64,10.4271429 7.14285714,11.12 L7.14285714,15.6057143 L7.16571429,15.5971429 L7.71,15.8328571 L12.8571429,18.0571429 L12.8571429,11.1228571 C13.37,10.4171429 13.8885714,9.71285714 14.2857143,9.2 L14.2857143,18.1857143 L18.5714286,16.2285714 L18.5714286,3.67428571 L16.3942857,4.66857143 C16.4014286,4.54 16.4285714,4.41428571 16.4285714,4.28571429 C16.4285714,3.89142857 16.38,3.51 16.3128571,3.13428571 L20,1.45142857 Z" id="Shape"></path>
                        </g>
                    </g>
                </g>
            </g>
        </g>
    </g>
</svg>