<?xml version="1.0" encoding="UTF-8"?>
<svg width="95px" height="32px" viewBox="0 0 95 32" version="1.1" xmlns="http://www.w3.org/2000/svg" xmlns:xlink="http://www.w3.org/1999/xlink">
    <!-- Generator: Sketch 49.3 (51167) - http://www.bohemiancoding.com/sketch -->
    <title>Page 1</title>
    <desc>Created with Sketch.</desc>
    <defs>
        <polygon id="path-1" points="0 31.1747429 94.2937143 31.1747429 94.2937143 -0.000114285714 0 -0.000114285714"></polygon>
    </defs>
    <g id="Page-1" stroke="none" stroke-width="1" fill="none" fill-rule="evenodd">
        <g id="header" transform="translate(-360.000000, -2003.000000)">
            <g id="Group-Copy-3" transform="translate(320.000000, 1987.000000)">
                <g id="Page-1" transform="translate(40.000000, 16.000000)">
                    <path d="M0.149257143,7.78342857 L2.57782857,7.78342857 L2.57782857,15.868 C2.57782857,17.7331429 2.6944,19.8897143 5.84182857,19.8897143 C8.9904,19.8897143 9.10697143,17.7331429 9.10697143,15.868 L9.10697143,7.78342857 L11.5366857,7.78342857 L11.5366857,16.6645714 C11.5366857,20.22 9.26354286,21.9891429 5.84182857,21.9891429 C2.42125714,21.9891429 0.149257143,20.22 0.149257143,16.6645714 L0.149257143,7.78342857 Z" id="Fill-1" fill="#019898"></path>
                    <path d="M14.0236571,11.6115429 L16.1230857,11.6115429 L16.1230857,13.0881143 L16.1619429,13.1269714 C16.8213714,12.0195429 17.9688,11.3395429 19.2899429,11.3395429 C21.4659429,11.3395429 22.8465143,12.5052571 22.8465143,14.7589714 L22.8465143,21.6595429 L20.6316571,21.6595429 L20.6316571,15.3429714 C20.5928,13.7681143 19.9699429,13.0881143 18.6682286,13.0881143 C17.1905143,13.0881143 16.2396571,14.2549714 16.2396571,15.7315429 L16.2396571,21.6595429 L14.0236571,21.6595429 L14.0236571,11.6115429 Z" id="Fill-3" fill="#019898"></path>
                    <mask id="mask-2" fill="white">
                        <use xlink:href="#path-1"></use>
                    </mask>
                    <g id="Clip-6"></g>
                    <path d="M25.2365714,21.6593143 L27.4525714,21.6593143 L27.4525714,11.6113143 L25.2365714,11.6113143 L25.2365714,21.6593143 Z M25.2365714,9.88217143 L27.4525714,9.88217143 L27.4525714,7.78388571 L25.2365714,7.78388571 L25.2365714,9.88217143 Z" id="Fill-5" fill="#019898" mask="url(#mask-2)"></path>
                    <path d="M29.8418286,11.6115429 L29.8418286,8.59897143 L32.0578286,8.59897143 L32.0578286,11.6115429 L34.0578286,11.6115429 L34.0578286,13.2629714 L32.0578286,13.2629714 L32.0578286,18.6264 C32.0578286,19.5395429 32.1344,20.0069714 33.1264,20.0069714 C33.4372571,20.0069714 33.7469714,20.0069714 34.0578286,19.9281143 L34.0578286,21.6389714 C33.5721143,21.6778286 33.1058286,21.7544 32.6212571,21.7544 C30.3081143,21.7544 29.8806857,20.8618286 29.8418286,19.1898286 L29.8418286,13.2629714 L29.8418286,11.6115429 Z" id="Fill-7" fill="#019898" mask="url(#mask-2)"></path>
                    <path d="M44.9154286,-0.000114285714 C40.1154286,-0.000114285714 36.192,3.8536 36.192,8.68788571 C36.192,12.5244571 38.9394286,16.1187429 42.7474286,16.7187429 L44.4434286,13.9861714 C41.8731429,13.7153143 39.3451429,11.4364571 39.3451429,8.4776 C39.3451429,5.46502857 42.008,2.94274286 45.1611429,2.94274286 C48.0342857,2.94274286 50.5565714,5.67531429 50.5565714,8.4776 C50.5565714,9.34502857 50.3508571,10.1930286 49.9725714,10.9541714 C49.9565714,10.9850286 49.7782857,11.3564571 49.68,11.5016 C48.304,13.5496 39.4502857,25.8890286 39.4502857,25.8890286 L41.832,27.5358857 L50.8365714,15.4147429 C52.3782857,13.3484571 53.7097143,11.0707429 53.7097143,8.44331429 C53.7097143,3.78388571 49.4708571,-0.000114285714 44.9154286,-0.000114285714" id="Fill-8" fill="#F9BF2C" mask="url(#mask-2)"></path>
                    <path d="M3.18948571,27.4586286 L2.37348571,25.1157714 L1.52434286,27.4586286 L3.18948571,27.4586286 Z M1.99862857,24.3283429 L2.80891429,24.3283429 L4.73462857,29.6323429 L3.94834286,29.6323429 L3.39291429,28.0449143 L1.31177143,28.0449143 L0.736914286,29.6323429 L-0.000228571429,29.6323429 L1.99862857,24.3283429 Z" id="Fill-9" fill="#019898" mask="url(#mask-2)"></path>
                    <path d="M7.6872,28.8152 C7.88948571,28.5614857 7.99005714,28.1820571 7.99005714,27.6757714 C7.99005714,27.3672 7.94434286,27.1020571 7.8552,26.8814857 C7.6872,26.4552 7.37748571,26.2426286 6.9272,26.2426286 C6.47577143,26.2426286 6.16605714,26.4677714 6.00034286,26.9180571 C5.9112,27.1580571 5.86662857,27.4632 5.86662857,27.8346286 C5.86662857,28.1329143 5.9112,28.3866286 6.00034286,28.5969143 C6.16948571,28.9969143 6.47805714,29.1957714 6.9272,29.1957714 C7.23348571,29.1957714 7.48491429,29.0689143 7.6872,28.8152 Z M5.24148571,25.7843429 L5.87691429,25.7843429 L5.87691429,26.2963429 C6.0072,26.1214857 6.15005714,25.9843429 6.30434286,25.8883429 C6.52377143,25.7443429 6.78205714,25.6712 7.08034286,25.6712 C7.51805714,25.6712 7.89177143,25.8392 8.19805714,26.1752 C8.50434286,26.5100571 8.65748571,26.9900571 8.65748571,27.6140571 C8.65748571,28.4574857 8.43577143,29.0586286 7.99462857,29.4197714 C7.71348571,29.6483429 7.38777143,29.7626286 7.0152,29.7626286 C6.72262857,29.7626286 6.47691429,29.6986286 6.2792,29.5717714 C6.16262857,29.4986286 6.03462857,29.3752 5.89177143,29.1992 L5.89177143,31.1740571 L5.24148571,31.1740571 L5.24148571,25.7843429 Z" id="Fill-10" fill="#019898" mask="url(#mask-2)"></path>
                    <path d="M10.1130286,29.0484571 C10.2501714,29.1558857 10.4124571,29.2107429 10.5998857,29.2107429 C10.8284571,29.2107429 11.0490286,29.1570286 11.2650286,29.0518857 C11.6261714,28.8758857 11.8067429,28.5890286 11.8067429,28.1913143 L11.8067429,27.6667429 C11.7267429,27.7181714 11.6250286,27.7604571 11.4993143,27.7936 C11.3747429,27.8278857 11.2524571,27.8530286 11.1324571,27.8667429 L10.7393143,27.9170286 C10.5038857,27.9478857 10.3267429,27.9981714 10.2078857,28.0644571 C10.0090286,28.1764571 9.90731429,28.3581714 9.90731429,28.6050286 C9.90731429,28.7924571 9.97474286,28.9398857 10.1130286,29.0484571 Z M11.4810286,27.2930286 C11.6307429,27.2736 11.7301714,27.2118857 11.7816,27.1056 C11.8090286,27.0473143 11.8250286,26.9627429 11.8250286,26.8553143 C11.8250286,26.6324571 11.7461714,26.4713143 11.5884571,26.3707429 C11.4307429,26.2713143 11.2067429,26.2198857 10.9130286,26.2198857 C10.5736,26.2198857 10.3336,26.3113143 10.1918857,26.4964571 C10.1130286,26.5981714 10.0616,26.7490286 10.0364571,26.9501714 L9.4296,26.9501714 C9.44331429,26.4736 9.59645714,26.1398857 9.8936,25.9524571 C10.1907429,25.7650286 10.5358857,25.6713143 10.9267429,25.6713143 C11.3827429,25.6713143 11.7507429,25.7581714 12.0353143,25.9318857 C12.3153143,26.1044571 12.4570286,26.3741714 12.4570286,26.7398857 L12.4570286,28.9684571 C12.4570286,29.0358857 12.4696,29.0896 12.4970286,29.1307429 C12.5256,29.1718857 12.5838857,29.1913143 12.6730286,29.1913143 C12.7004571,29.1913143 12.7336,29.1913143 12.7701714,29.1867429 C12.8056,29.1833143 12.8456,29.1776 12.8856,29.1696 L12.8856,29.6507429 C12.7838857,29.6804571 12.7084571,29.6976 12.6558857,29.7056 C12.6021714,29.7124571 12.5301714,29.7158857 12.4387429,29.7158857 C12.2147429,29.7158857 12.0524571,29.6358857 11.9507429,29.4781714 C11.8981714,29.3936 11.8616,29.2736 11.8387429,29.1193143 C11.7061714,29.2930286 11.5164571,29.4438857 11.2673143,29.5718857 C11.0193143,29.6987429 10.7473143,29.7627429 10.4490286,29.7627429 C10.0901714,29.7627429 9.79645714,29.6530286 9.56902857,29.4370286 C9.34274286,29.2187429 9.22845714,28.9467429 9.22845714,28.6187429 C9.22845714,28.2610286 9.34045714,27.9833143 9.56445714,27.7867429 C9.78845714,27.5890286 10.0810286,27.4678857 10.4456,27.4221714 L11.4810286,27.2930286 Z" id="Fill-11" fill="#019898" mask="url(#mask-2)"></path>
                    <path d="M13.5404571,25.7654857 L14.1576,25.7654857 L14.1576,26.4329143 C14.2078857,26.3037714 14.3313143,26.1449143 14.5290286,25.9586286 C14.7267429,25.7723429 14.9541714,25.6786286 15.2113143,25.6786286 C15.2238857,25.6786286 15.2444571,25.6797714 15.2730286,25.6820571 C15.3027429,25.6854857 15.3507429,25.6900571 15.4216,25.6969143 L15.4216,26.3826286 C15.3827429,26.3757714 15.3473143,26.3712 15.3153143,26.3677714 C15.2810286,26.3666286 15.2467429,26.3643429 15.2090286,26.3643429 C14.8810286,26.3643429 14.6284571,26.4706286 14.4524571,26.6809143 C14.2776,26.8912 14.1896,27.1334857 14.1896,27.4077714 L14.1896,29.6329143 L13.5404571,29.6329143 L13.5404571,25.7654857 Z" id="Fill-12" fill="#019898" mask="url(#mask-2)"></path>
                    <path d="M16.1140571,24.6862857 L16.7723429,24.6862857 L16.7723429,25.7651429 L17.3894857,25.7651429 L17.3894857,26.2965714 L16.7723429,26.2965714 L16.7723429,28.8211429 C16.7723429,28.9548571 16.8180571,29.0451429 16.9083429,29.0908571 C16.9597714,29.1171429 17.0432,29.1308571 17.1620571,29.1308571 C17.1929143,29.1308571 17.2260571,29.1308571 17.2626286,29.1285714 C17.2992,29.1274286 17.3414857,29.1228571 17.3894857,29.116 L17.3894857,29.6325714 C17.3152,29.6542857 17.2363429,29.6702857 17.1563429,29.6805714 C17.0763429,29.6897143 16.9883429,29.6942857 16.8946286,29.6942857 C16.5906286,29.6942857 16.3849143,29.6165714 16.2763429,29.4611429 C16.1689143,29.3068571 16.1140571,29.1057143 16.1140571,28.8565714 L16.1140571,26.2965714 L15.5906286,26.2965714 L15.5906286,25.7651429 L16.1140571,25.7651429 L16.1140571,24.6862857 Z" id="Fill-13" fill="#019898" mask="url(#mask-2)"></path>
                    <path d="M18.0387429,25.7654857 L18.6810286,25.7654857 L18.6810286,26.3140571 C18.8353143,26.1243429 18.9747429,25.9860571 19.0993143,25.8992 C19.3141714,25.7517714 19.5576,25.6786286 19.8307429,25.6786286 C20.1381714,25.6786286 20.3861714,25.7552 20.5736,25.9060571 C20.6798857,25.9929143 20.7758857,26.1209143 20.8627429,26.2889143 C21.0067429,26.0820571 21.1770286,25.9289143 21.3724571,25.8283429 C21.5656,25.7289143 21.7861714,25.6786286 22.0296,25.6786286 C22.5496,25.6786286 22.9027429,25.8660571 23.0901714,26.2420571 C23.1918857,26.4443429 23.2421714,26.7163429 23.2421714,27.0569143 L23.2421714,29.6329143 L22.5667429,29.6329143 L22.5667429,26.9460571 C22.5667429,26.6889143 22.5038857,26.5117714 22.3736,26.4157714 C22.2456,26.3186286 22.0878857,26.2706286 21.9027429,26.2706286 C21.6478857,26.2706286 21.4284571,26.3563429 21.2433143,26.5277714 C21.0604571,26.6980571 20.9678857,26.9837714 20.9678857,27.3837714 L20.9678857,29.6329143 L20.3061714,29.6329143 L20.3061714,27.1083429 C20.3061714,26.8466286 20.2753143,26.6546286 20.2124571,26.5346286 C20.1130286,26.3540571 19.9301714,26.2637714 19.6604571,26.2637714 C19.4136,26.2637714 19.1907429,26.3586286 18.9907429,26.5494857 C18.7896,26.7392 18.6890286,27.0832 18.6890286,27.5814857 L18.6890286,29.6329143 L18.0387429,29.6329143 L18.0387429,25.7654857 Z" id="Fill-14" fill="#019898" mask="url(#mask-2)"></path>
                    <path d="M26.82,27.3899429 C26.7937143,27.1088 26.7331429,26.8836571 26.6382857,26.7145143 C26.4622857,26.4025143 26.1662857,26.2459429 25.7525714,26.2459429 C25.4577143,26.2459429 25.2085714,26.3533714 25.0085714,26.5682286 C24.8085714,26.7853714 24.7022857,27.0573714 24.6897143,27.3899429 L26.82,27.3899429 Z M26.5868571,25.8722286 C26.844,26.0002286 27.0382857,26.1682286 27.1731429,26.3728 C27.3011429,26.5670857 27.388,26.7945143 27.4314286,27.0539429 C27.4691429,27.2322286 27.4874286,27.5168 27.4874286,27.9065143 L24.676,27.9065143 C24.6874286,28.2996571 24.7788571,28.6162286 24.9514286,28.8539429 C25.124,29.0916571 25.3902857,29.2105143 25.7502857,29.2105143 C26.0862857,29.2105143 26.356,29.0973714 26.5571429,28.8733714 C26.6691429,28.7430857 26.7491429,28.5910857 26.7948571,28.4196571 L27.4348571,28.4196571 C27.4165714,28.5613714 27.3605714,28.7202286 27.2657143,28.8939429 C27.1708571,29.0688 27.0645714,29.2116571 26.948,29.3213714 C26.7514286,29.5145143 26.5091429,29.6448 26.2211429,29.7122286 C26.0657143,29.7510857 25.8897143,29.7705143 25.6931429,29.7705143 C25.2154286,29.7705143 24.8097143,29.5945143 24.4771429,29.2459429 C24.1445714,28.8939429 23.9777143,28.4036571 23.9777143,27.7728 C23.9777143,27.1522286 24.1468571,26.6482286 24.4817143,26.2608 C24.8154286,25.8722286 25.2531429,25.6779429 25.7948571,25.6779429 C26.0668571,25.6779429 26.332,25.7430857 26.5868571,25.8722286 Z" id="Fill-15" fill="#019898" mask="url(#mask-2)"></path>
                    <path d="M28.3116571,25.7654857 L28.9299429,25.7654857 L28.9299429,26.3140571 C29.1116571,26.0877714 29.3059429,25.9254857 29.5105143,25.8272 C29.7150857,25.7289143 29.9425143,25.6786286 30.1928,25.6786286 C30.7413714,25.6786286 31.1128,25.8694857 31.3048,26.2523429 C31.4110857,26.4626286 31.4648,26.7620571 31.4648,27.1517714 L31.4648,29.6329143 L30.8042286,29.6329143 L30.8042286,27.1952 C30.8042286,26.9597714 30.7665143,26.7689143 30.6990857,26.6249143 C30.5836571,26.3837714 30.3733714,26.2637714 30.0705143,26.2637714 C29.9162286,26.2637714 29.7893714,26.2797714 29.6910857,26.3106286 C29.5128,26.3632 29.3562286,26.4694857 29.2213714,26.6283429 C29.1128,26.7563429 29.0430857,26.8877714 29.0110857,27.0237714 C28.9779429,27.1597714 28.9619429,27.3552 28.9619429,27.6066286 L28.9619429,29.6329143 L28.3116571,29.6329143 L28.3116571,25.7654857 Z" id="Fill-16" fill="#019898" mask="url(#mask-2)"></path>
                    <path d="M32.5549714,24.6862857 L33.2121143,24.6862857 L33.2121143,25.7651429 L33.8292571,25.7651429 L33.8292571,26.2965714 L33.2121143,26.2965714 L33.2121143,28.8211429 C33.2121143,28.9548571 33.2589714,29.0451429 33.3481143,29.0908571 C33.4006857,29.1171429 33.4841143,29.1308571 33.6029714,29.1308571 C33.6326857,29.1308571 33.6669714,29.1308571 33.7012571,29.1285714 C33.7389714,29.1274286 33.7812571,29.1228571 33.8292571,29.116 L33.8292571,29.6325714 C33.7549714,29.6542857 33.6772571,29.6702857 33.5961143,29.6805714 C33.5149714,29.6897143 33.4292571,29.6942857 33.3344,29.6942857 C33.0315429,29.6942857 32.8258286,29.6165714 32.7161143,29.4611429 C32.6086857,29.3068571 32.5549714,29.1057143 32.5549714,28.8565714 L32.5549714,26.2965714 L32.0315429,26.2965714 L32.0315429,25.7651429 L32.5549714,25.7651429 L32.5549714,24.6862857 Z" id="Fill-17" fill="#019898" mask="url(#mask-2)"></path>
                    <path d="M57.4601143,10.2627429 C57.1904,10.2627429 57.0566857,10.3976 57.0566857,10.6673143 L57.0566857,11.9930286 C57.0178286,12.2616 57.1526857,12.3770286 57.4601143,12.3381714 L65.6464,12.3381714 C65.9538286,12.3770286 66.1069714,12.2227429 66.1069714,11.8764571 L66.1069714,10.7233143 C66.1069714,10.4170286 65.9732571,10.2627429 65.7046857,10.2627429 L57.4601143,10.2627429 Z M66.1069714,9.16788571 C66.8749714,9.16788571 67.2601143,9.49474286 67.2601143,10.1473143 L67.2601143,12.3964571 C67.2601143,13.1267429 66.9149714,13.4718857 66.2224,13.4330286 L56.9995429,13.4330286 C56.2304,13.4718857 55.8646857,13.1267429 55.9035429,12.3964571 L55.9035429,10.1473143 C55.9035429,9.5336 56.2692571,9.20674286 56.9995429,9.16788571 L66.1069714,9.16788571 Z M67.9526857,15.7964571 L59.4201143,15.7964571 L58.7858286,17.1804571 L65.7046857,17.1804571 C66.5492571,17.1804571 66.9721143,17.5256 66.9721143,18.2181714 C66.9332571,20.7930286 65.9538286,22.2147429 64.0326857,22.4833143 C63.1858286,22.5610286 62.0726857,22.5416 60.6886857,22.4261714 C59.6132571,22.3484571 58.8052571,22.2147429 58.2681143,22.0238857 C57.8829714,21.8307429 57.7286857,21.5610286 57.8064,21.2147429 C57.9218286,20.9473143 58.1904,20.8513143 58.6132571,20.9278857 C59.2281143,21.0810286 60.0544,21.1953143 61.0921143,21.2730286 C62.3606857,21.3884571 63.3024,21.4067429 63.9161143,21.3313143 C65.0704,21.1004571 65.6841143,20.2924571 65.7618286,18.9096 C65.7995429,18.4878857 65.6658286,18.2753143 65.3584,18.2753143 L58.0361143,18.2753143 C57.2681143,18.2387429 57.0566857,17.8924571 57.4029714,17.2387429 C57.4029714,17.1998857 57.6326857,16.7187429 58.0944,15.7964571 L54.9252571,15.7964571 C54.6155429,15.7964571 54.4429714,15.6238857 54.4052571,15.2787429 C54.4429714,14.9324571 54.6349714,14.7404571 54.9824,14.7016 L67.9526857,14.7016 C68.3755429,14.7404571 68.6052571,14.9324571 68.6441143,15.2787429 C68.6052571,15.6238857 68.3755429,15.7964571 67.9526857,15.7964571 Z" id="Fill-18" fill="#009A99" mask="url(#mask-2)"></path>
                    <path d="M81.8445714,18.5066286 L79.2502857,18.5066286 C79.1725714,18.5832 79.0582857,18.7180571 78.904,18.9100571 C78.6342857,19.2563429 78.4811429,19.4666286 78.4434286,19.5443429 C78.4434286,19.6586286 79.096,19.8517714 80.4034286,20.1203429 C80.9405714,19.6974857 81.4205714,19.1603429 81.8445714,18.5066286 M76.656,10.1477714 C76.3874286,9.8792 76.3485714,9.60948571 76.5405714,9.33977143 C76.7725714,9.11005714 77.04,9.11005714 77.3474286,9.33977143 C77.9622857,9.91691429 78.4617143,10.4357714 78.8468571,10.8974857 C79.0388571,11.2426286 79.0194286,11.5512 78.7897143,11.8186286 C78.52,12.0117714 78.2708571,11.9546286 78.04,11.6472 C77.5782857,11.1477714 77.1177143,10.6472 76.656,10.1477714 M76.1954286,15.1626286 C77.1931429,14.6254857 78.04,13.9329143 78.7314286,13.0872 L76.4834286,13.0872 C76.0982857,13.0872 75.8868571,12.8963429 75.8491429,12.5112 C75.8868571,12.1660571 76.0982857,11.9740571 76.4834286,11.9352 L79.5382857,11.9352 L79.5382857,9.39805714 C79.5382857,9.05177143 79.7108571,8.86091429 80.0571429,8.82205714 C80.4034286,8.82205714 80.5954286,8.99462857 80.6331429,9.33977143 L80.6331429,11.9352 L81.4982857,11.9352 C81.2297143,11.7032 81.248,11.4152 81.5565714,11.0700571 C82.0937143,10.5317714 82.5554286,9.93634286 82.9394286,9.28262857 C83.1325714,8.93634286 83.3805714,8.84148571 83.6891429,8.99462857 C83.9577143,9.18777143 83.9954286,9.47577143 83.8045714,9.85977143 C83.4594286,10.4746286 82.9965714,11.0894857 82.4205714,11.7032 C82.3051429,11.8186286 82.2091429,11.8963429 82.1325714,11.9352 L84.0937143,11.9352 C84.3611429,11.9740571 84.5142857,12.1854857 84.5531429,12.5694857 C84.5142857,12.9146286 84.3428571,13.0872 84.0354286,13.0872 L81.4411429,13.0872 C82.0937143,14.0106286 83.112,14.7409143 84.496,15.2780571 C84.88,15.5089143 85.0148571,15.7969143 84.9005714,16.1432 C84.7062857,16.4506286 84.4,16.5077714 83.9771429,16.3157714 C82.5942857,15.7009143 81.4788571,14.8746286 80.6331429,13.8369143 L80.6331429,15.9112 C80.6331429,16.2209143 80.4811429,16.4117714 80.1725714,16.4883429 C80.2102857,16.6426286 80.192,16.8163429 80.1154286,17.0072 C80.0765714,17.1226286 80.0182857,17.2380571 79.9417143,17.3534857 L84.5531429,17.3534857 C84.8605714,17.3923429 85.0342857,17.5843429 85.0731429,17.9306286 C85.0342857,18.3146286 84.8605714,18.5066286 84.5531429,18.5066286 L83.0548571,18.5066286 C82.5942857,19.3523429 82.0742857,20.0254857 81.4982857,20.5249143 C82.6125714,20.8323429 83.496,21.1009143 84.1508571,21.3317714 C84.5337143,21.4837714 84.688,21.7352 84.6114286,22.0803429 C84.496,22.4266286 84.2457143,22.5409143 83.8628571,22.4266286 C82.5165714,21.8883429 81.4205714,21.5043429 80.576,21.2734857 C79.2297143,22.1180571 77.5588571,22.6186286 75.5611429,22.7729143 C75.1371429,22.7729143 74.888,22.6186286 74.8114286,22.3112 C74.7725714,21.9260571 74.9634286,21.7146286 75.3874286,21.6769143 C76.9622857,21.5226286 78.2708571,21.2734857 79.3074286,20.9283429 C77.5782857,20.5809143 76.7131429,20.2357714 76.7131429,19.8894857 C76.7131429,19.8129143 77.0788571,19.3523429 77.808,18.5066286 L75.9074286,18.5066286 C75.5611429,18.5066286 75.3874286,18.3146286 75.3874286,17.9306286 C75.3874286,17.5843429 75.5611429,17.3923429 75.9074286,17.3534857 L78.5005714,17.3534857 C78.5382857,17.3157714 78.6342857,17.1797714 78.7897143,16.9500571 C78.8662857,16.7969143 78.9417143,16.6814857 79.0194286,16.6037714 C79.2114286,16.3740571 79.4034286,16.2392 79.5965714,16.2003429 C79.5188571,16.1626286 79.4994286,16.0666286 79.5382857,15.9112 L79.5382857,13.8369143 C78.6937143,14.7980571 77.6937143,15.5854857 76.5405714,16.2003429 C76.232,16.3546286 76.0022857,16.3157714 75.8491429,16.0849143 C75.5028571,16.3157714 75.2148571,16.2780571 74.9851429,15.9694857 C74.8297143,15.7774857 74.5611429,15.4129143 74.1771429,14.8746286 L74.1771429,22.0803429 C74.1382857,22.4266286 73.9462857,22.6003429 73.6011429,22.6003429 C73.216,22.6003429 73.024,22.4266286 73.024,22.0803429 L73.024,15.6243429 C72.6777143,16.5077714 72.2937143,17.2769143 71.8708571,17.9306286 C71.5622857,18.3146286 71.256,18.4300571 70.9485714,18.2746286 C70.7188571,18.0072 70.6982857,17.6620571 70.8914286,17.2380571 C71.736,15.9694857 72.4091429,14.5477714 72.9085714,12.9717714 L71.8148571,12.9717714 C71.3908571,12.9717714 71.16,12.7809143 71.1211429,12.3957714 C71.16,12.0494857 71.3908571,11.8586286 71.8148571,11.8186286 L73.024,11.8186286 L73.024,9.1672 C73.024,8.86091429 73.216,8.6872 73.6011429,8.64948571 C73.9462857,8.6872 74.1382857,8.86091429 74.1771429,9.1672 L74.1771429,11.8186286 L75.1565714,11.8186286 C75.5028571,11.8586286 75.696,12.0494857 75.7337143,12.3957714 C75.7337143,12.7809143 75.5805714,12.9717714 75.272,12.9717714 L74.1771429,12.9717714 L74.1771429,13.2609143 C75.0605714,14.2220571 75.6377143,14.9134857 75.9074286,15.3352 L76.0217143,15.2780571 C76.0982857,15.2403429 76.1565714,15.2014857 76.1954286,15.1626286" id="Fill-19" fill="#009A99" mask="url(#mask-2)"></path>
                    <path d="M87.7296,12.5411429 L87.7730286,12.5068571 C88.8621714,11.6428571 89.6621714,10.5754286 90.1501714,9.33542857 L90.1661714,9.29542857 L90.1593143,9.252 C90.1113143,8.96514286 89.9501714,8.92171429 89.8587429,8.92171429 C89.7696,8.92171429 89.6781714,8.96171429 89.5741714,9.044 L89.5387429,9.07257143 L89.5238857,9.11371429 C89.1650286,10.1194286 88.4336,11.1057143 87.3501714,12.044 L87.3136,12.0771429 L87.3010286,12.1251429 C87.2656,12.2691429 87.3056,12.3617143 87.3478857,12.4142857 C87.4130286,12.4977143 87.5238857,12.5411429 87.6747429,12.5411429 L87.7296,12.5411429 Z" id="Fill-20" fill="#009A99" mask="url(#mask-2)"></path>
                    <path d="M88.3869714,14.9408 C88.4886857,15.1065143 88.7104,15.1750857 89.0726857,15.1488 C90.1572571,15.0756571 91.4852571,14.9659429 93.0189714,14.8253714 L93.3309714,15.4482286 L93.3869714,15.4699429 C93.4578286,15.4985143 93.5218286,15.5122286 93.5801143,15.5122286 C93.7241143,15.5122286 93.8784,15.4196571 93.8784,15.1579429 L93.8646857,15.0962286 C93.4921143,14.2402286 92.9664,13.2813714 92.3001143,12.2448 L92.2772571,12.2082286 L92.2384,12.1888 C92.0326857,12.0859429 91.8829714,12.0985143 91.7915429,12.2036571 C91.7309714,12.2756571 91.7126857,12.3808 91.7366857,12.5213714 L91.7572571,12.5762286 C92.1344,13.2070857 92.4498286,13.7499429 92.6955429,14.1945143 C91.3469714,14.3305143 90.1584,14.4345143 89.1504,14.5042286 L89.1492571,14.5042286 C89.7378286,13.6208 90.3332571,12.5956571 90.9206857,11.4573714 L90.9378286,11.3865143 C90.9378286,11.0356571 90.7241143,11.0082286 90.6578286,11.0082286 C90.5869714,11.0082286 90.5104,11.0333714 90.4235429,11.0848 L90.3846857,11.1088 L90.3641143,11.1499429 C89.7789714,12.3202286 89.1298286,13.4139429 88.4224,14.4219429 C88.3161143,14.6333714 88.3046857,14.8082286 88.3869714,14.9408" id="Fill-21" fill="#009A99" mask="url(#mask-2)"></path>
                    <path d="M94.2586286,12.1137143 L94.2449143,12.0737143 L94.2140571,12.0451429 C93.2003429,11.1411429 92.4289143,10.0954286 91.9237714,8.93771429 L91.8780571,8.87828571 C91.7740571,8.796 91.6814857,8.756 91.5934857,8.756 C91.5020571,8.756 91.3397714,8.79942857 91.2929143,9.08628571 L91.2860571,9.13085714 L91.3032,9.172 C91.8654857,10.5217143 92.7020571,11.644 93.7912,12.5068571 L93.8380571,12.5331429 C93.9112,12.5571429 93.9729143,12.5685714 94.0266286,12.5685714 C94.1523429,12.5685714 94.2174857,12.5045714 94.2449143,12.4668571 C94.3340571,12.3422857 94.2780571,12.1697143 94.2586286,12.1137143" id="Fill-22" fill="#009A99" mask="url(#mask-2)"></path>
                    <path d="M88.4969143,21.3843429 L88.4969143,20.6494857 C88.4969143,20.5146286 88.5380571,20.4734857 88.6740571,20.4734857 L90.4032,20.4734857 L90.4032,21.1672 C89.8020571,21.1980571 89.2397714,21.2152 88.7289143,21.2152 L88.6740571,21.2152 L88.6317714,21.2494857 C88.6032,21.2723429 88.5437714,21.3192 88.4969143,21.3843429 Z M88.9414857,18.1077714 L88.9414857,17.9866286 C88.9414857,17.8529143 88.9826286,17.8117714 89.1163429,17.8117714 L90.4032,17.8117714 L90.4032,18.1077714 L88.9414857,18.1077714 Z M90.4032,18.7546286 L90.4032,19.0506286 L89.0923429,19.0529143 C89.0729143,19.0563429 89.0557714,19.0574857 89.0386286,19.0574857 C88.9952,19.0574857 88.9414857,19.0574857 88.9414857,18.8746286 L88.9414857,18.7546286 L90.4032,18.7546286 Z M91.6809143,20.7866286 L91.6889143,20.8357714 L91.7243429,20.8712 C91.7597714,20.9066286 91.8043429,20.9557714 91.8580571,21.0197714 L91.0489143,21.0894857 L91.0489143,20.4734857 L91.7266286,20.4734857 C91.6740571,20.5500571 91.6592,20.6529143 91.6809143,20.7866286 Z M91.0489143,18.1077714 L91.0489143,17.8117714 L92.3346286,17.8117714 C92.4603429,17.8117714 92.4957714,17.8414857 92.5037714,17.8506286 C92.5186286,17.8689143 92.5220571,17.9077714 92.5106286,17.9866286 L92.5106286,18.1077714 L91.0489143,18.1077714 Z M91.0489143,19.0506286 L91.0489143,18.7546286 L92.5117714,18.7546286 L92.5129143,18.9557714 C92.5243429,19.0254857 92.5117714,19.0460571 92.5117714,19.0460571 C92.5117714,19.0460571 92.4957714,19.0597714 92.4363429,19.0597714 C92.4123429,19.0597714 92.3860571,19.0563429 92.3346286,19.0506286 L91.0489143,19.0506286 Z M93.6820571,20.0300571 C93.5609143,19.8963429 93.3689143,19.8277714 93.1117714,19.8277714 L91.0489143,19.8277714 L91.0489143,19.6974857 L92.4317714,19.6963429 C92.6980571,19.7214857 92.8900571,19.6632 93.0157714,19.5249143 C93.1312,19.3980571 93.1780571,19.2117714 93.1574857,18.9854857 L93.1563429,17.8917714 C93.1780571,17.6700571 93.1312,17.4940571 93.0180571,17.3683429 C92.8957714,17.2334857 92.7026286,17.1649143 92.4466286,17.1649143 L89.0066286,17.1649143 C88.5483429,17.1649143 88.2946286,17.4174857 88.2946286,17.8769143 L88.2946286,18.9854857 C88.2946286,19.2083429 88.3460571,19.3832 88.4477714,19.5043429 C88.5563429,19.6357714 88.7129143,19.7020571 88.9174857,19.7020571 C88.9506286,19.7020571 88.9860571,19.6997714 89.0066286,19.6974857 L90.4032,19.6974857 L90.4032,19.8277714 L88.5632,19.8277714 C88.1037714,19.8277714 87.8523429,20.0803429 87.8523429,20.5386286 L87.8523429,22.4780571 L87.8820571,22.5192 C88.0569143,22.7489143 88.2934857,22.7489143 88.4660571,22.5192 L88.4969143,22.4769143 L88.4969143,21.7340571 C88.5369143,21.7797714 88.5952,21.8186286 88.6706286,21.8483429 L88.7232,21.8609143 C89.7380571,21.8963429 90.9472,21.8254857 92.3197714,21.6483429 C92.4100571,21.7740571 92.4523429,21.8460571 92.4729143,21.8849143 L92.4957714,21.9317714 L92.5426286,21.9546286 C92.6386286,22.0037714 92.7220571,22.0266286 92.7974857,22.0266286 C92.8694857,22.0266286 93.1014857,21.9992 93.1014857,21.6483429 L93.1014857,21.6003429 L93.0752,21.5614857 C92.8569143,21.2346286 92.5837714,20.8689143 92.2614857,20.4734857 L92.9997714,20.4734857 C93.1266286,20.4734857 93.1620571,20.5043429 93.1689143,20.5134857 C93.1849143,20.5306286 93.1872,20.5717714 93.1769143,20.6494857 L93.1769143,21.7192 C93.1872,21.8094857 93.1860571,21.9283429 93.1300571,21.9900571 C93.0843429,22.0426286 92.9849143,22.0609143 92.8500571,22.0472 L92.8283429,22.0449143 L92.8077714,22.0494857 C92.6134857,22.0826286 92.2843429,22.0072 91.8363429,21.8357714 L91.7792,21.8129143 L91.7220571,21.8357714 C91.5803429,21.8917714 91.4969143,21.9763429 91.4740571,22.0837714 C91.4523429,22.1946286 91.4980571,22.3089143 91.6134857,22.4254857 L91.6717714,22.4609143 C92.1254857,22.6220571 92.4660571,22.7009143 92.7117714,22.7009143 C92.7654857,22.7009143 92.8157714,22.6974857 92.8237714,22.6917714 C93.2112,22.7180571 93.4843429,22.6369143 93.6512,22.4563429 C93.7837714,22.3134857 93.8409143,22.1123429 93.8226286,21.8700571 L93.8214857,20.5534857 C93.8443429,20.3329143 93.7974857,20.1569143 93.6820571,20.0300571 Z" id="Fill-23" fill="#009A99" mask="url(#mask-2)"></path>
                    <path d="M93.3886857,16.3888 L91.0915429,16.3888 C90.9909714,16.2219429 90.8744,16.0413714 90.7452571,15.8470857 L90.7155429,15.8025143 L90.6641143,15.7853714 C90.5841143,15.7590857 90.5155429,15.7465143 90.4526857,15.7465143 C90.2949714,15.7465143 90.1258286,15.8402286 90.1258286,16.1008 L90.1258286,16.1488 L90.1521143,16.1888 C90.2058286,16.2688 90.2481143,16.3339429 90.2835429,16.3888 L88.2298286,16.3888 C87.7715429,16.3888 87.5189714,16.6413714 87.5189714,17.0996571 L87.5189714,18.0985143 L87.5349714,18.1682286 C87.5658286,18.2310857 87.6618286,18.4208 87.8412571,18.4208 C88.0206857,18.4208 88.1166857,18.2310857 88.1486857,18.1682286 L88.1646857,17.2105143 C88.1646857,17.0756571 88.2058286,17.0333714 88.3406857,17.0333714 L93.3338286,17.0333714 C93.3932571,17.0333714 93.4092571,17.0550857 93.4172571,17.0665143 C93.4492571,17.1088 93.5315429,17.3065143 93.2949714,18.0516571 L93.2835429,18.0870857 L93.2892571,18.1248 C93.3384,18.4116571 93.4984,18.4550857 93.5909714,18.4550857 C93.6778286,18.4550857 93.7715429,18.4139429 93.8755429,18.3316571 L93.9109714,18.3019429 L93.9258286,18.2585143 C94.1852571,17.4790857 94.2069714,16.9556571 93.9921143,16.6573714 C93.8641143,16.4790857 93.6606857,16.3888 93.3886857,16.3888" id="Fill-24" fill="#009A99" mask="url(#mask-2)"></path>
                </g>
            </g>
        </g>
    </g>
</svg>