<?xml version="1.0" encoding="UTF-8"?>
<svg width="92px" height="31px" viewBox="0 0 92 31" version="1.1" xmlns="http://www.w3.org/2000/svg" xmlns:xlink="http://www.w3.org/1999/xlink">
    <!-- Generator: Sketch 49.3 (51167) - http://www.bohemiancoding.com/sketch -->
    <title>header_white</title>
    <desc>Created with Sketch.</desc>
    <defs>
        <polygon id="path-1" points="0.115435789 0.223769711 17.9108989 0.223769711 17.9108989 18.3171386 0.115435789 18.3171386"></polygon>
        <polygon id="path-3" points="0 30.0328985 91.8908105 30.0328985 91.8908105 0.223769711 0 0.223769711"></polygon>
    </defs>
    <g id="Page-1" stroke="none" stroke-width="1" fill="none" fill-rule="evenodd">
        <g id="header" transform="translate(-360.000000, -883.000000)">
            <g id="Group" transform="translate(320.000000, 863.000000)">
                <g id="header_white" transform="translate(40.000000, 20.000000)">
                    <g id="摩尔公寓-logo">
                        <polygon id="Fill-1" fill="#8B6F4B" points="0 17.8250668 1.74436842 17.8250668 1.74436842 9.02099648 8.03910526 14.2873391 14.4771684 8.99440998 14.4771684 17.8250668 16.2203263 17.8250668 16.2203263 5.28854725 8.04709474 12.0001615 0 5.26688417"></polygon>
                        <polygon id="Fill-2" fill="#8B6F4B" points="8.03896 7.77039705 1.09780211 1.96740102 2.21221263 0.600657969 8.04694947 5.48715825 14.0015284 0.596473057 15.0897916 1.97577085"></polygon>
                        <g id="Group-32" transform="translate(0.000000, 0.022402)">
                            <g id="Group-5" transform="translate(26.389474, 0.000000)">
                                <mask id="mask-2" fill="white">
                                    <use xlink:href="#path-1"></use>
                                </mask>
                                <g id="Clip-4"></g>
                                <path d="M9.01304632,1.99278128 C5.06600421,1.99278128 1.85835158,5.25725888 1.85835158,9.27108191 C1.85835158,13.2794892 5.06600421,16.5447053 9.01304632,16.5447053 C12.9600884,16.5447053 16.1660463,13.2794892 16.1660463,9.27108191 C16.1660463,5.25725888 12.9600884,1.99278128 9.01304632,1.99278128 M9.01304632,18.3171386 C4.10533053,18.3171386 0.115435789,14.2562969 0.115435789,9.27108191 C0.115435789,4.28045116 4.10533053,0.223548157 9.01304632,0.223548157 C13.9207621,0.223548157 17.9108989,4.28045116 17.9108989,9.27108191 C17.9108989,14.2562969 13.9207621,18.3171386 9.01304632,18.3171386" id="Fill-3" fill="#8B6F4B" mask="url(#mask-2)"></path>
                            </g>
                            <path d="M57.6534947,6.04005899 L63.4722526,6.04005899 C64.0763053,6.04005899 64.5786737,5.84976858 64.9086632,5.48666591 C65.2074211,5.16713556 65.3691474,4.61349631 65.3691474,4.13740102 C65.3691474,3.25044583 64.7818,2.23449688 63.4722526,2.23449688 L57.6534947,2.23449688 L57.6534947,6.04005899 Z M63.4722526,7.8137232 L55.9100947,7.8137232 L55.9100947,0.461325014 L63.4722526,0.461325014 C65.8611053,0.461325014 67.1123053,2.36841407 67.1123053,4.13740102 C67.1123053,5.06226659 66.7803789,6.04842881 66.1845579,6.69733636 C65.7080947,7.2081418 64.8590316,7.8137232 63.4722526,7.8137232 Z" id="Fill-6" fill="#8B6F4B"></path>
                            <polygon id="Fill-8" fill="#8B6F4B" points="57.6534947 17.8026652 55.9100947 17.8026652 55.9100947 10.7665972 64.7387053 10.7665972 67.9294105 16.6303975 66.4072947 17.4863351 63.7104842 12.5402614 57.6534947 12.5402614"></polygon>
                            <polygon id="Fill-10" fill="#8B6F4B" points="88.7786926 7.7749266 81.3601032 7.7749266 81.3601032 0.461423483 91.8907137 0.461423483 91.8907137 2.23434918 83.1047137 2.23434918 83.1047137 6.00150856 88.7786926 6.00150856"></polygon>
                            <polygon id="Fill-12" fill="#8B6F4B" points="91.8905926 18.0751769 81.3602242 18.0751769 81.3602242 10.7668433 88.7785716 10.7668433 88.7785716 12.5402614 83.1048347 12.5402614 83.1048347 16.3054514 91.8905926 16.3054514"></polygon>
                            <path d="M71.6029221,27.0593461 C72.0619537,27.6533575 72.5873221,28.4492293 72.8086063,28.9469876 L72.4447221,29.1345702 C72.2234379,28.6254879 71.7169537,27.8059837 71.2695432,27.2063104 L71.6029221,27.0593461 Z M69.27968,29.5958952 C69.6869011,29.6067267 69.9038274,29.6067267 70.01108,29.6008186 C70.1173642,29.5958952 70.1541642,29.5643853 70.1541642,29.4676399 L70.1541642,26.2048855 L70.5594484,26.2048855 L70.5594484,29.4676399 C70.5594484,29.7467982 70.4873011,29.8627449 70.3020905,29.9284726 C70.1009011,29.9961697 69.9486168,29.9961697 69.4164695,29.9961697 L69.27968,29.5958952 Z M67.7541747,28.8977534 C68.2437116,28.4492293 68.6802274,27.7449332 68.94848,27.041868 L69.3423853,27.1442752 C69.0438695,27.9096218 68.5729747,28.6491204 68.0953011,29.1461402 L67.7541747,28.8977534 Z M67.6839642,26.8168674 C68.2625958,26.2533813 68.7746484,25.3610103 69.0930168,24.4701164 L69.4852274,24.5725237 C69.3784589,24.8824533 69.2419116,25.1847517 69.0983432,25.476957 L72.5945853,25.476957 L72.6657642,25.4518475 L72.9589537,25.567548 C72.7490484,26.0574289 72.4672379,26.6120529 72.2067326,26.9559542 L71.8653642,26.8227755 C72.0503326,26.5810353 72.2483747,26.2167018 72.3967853,25.8644306 L68.8896484,25.8644306 C68.6320484,26.324771 68.3407958,26.7376002 68.0415537,27.0593461 L67.6839642,26.8168674 Z" id="Fill-14" fill="#8B6F4B"></path>
                            <path d="M82.2612432,27.2724566 C81.6402432,26.7084782 80.8708326,25.6767742 80.4173695,24.766679 L80.7986853,24.615776 C81.2042116,25.4576818 81.9753168,26.435228 82.5963168,26.9275706 L82.2612432,27.2724566 Z M80.8957695,27.7035026 C81.4271905,28.3410862 81.9944432,29.115295 82.2878747,29.6558871 L81.9048642,29.8680868 C81.8041484,29.6782887 81.7068221,29.5158157 81.5450958,29.2743216 C78.3703695,29.4867674 78.0602326,29.5039994 77.8580747,29.5842513 C77.8355589,29.4985837 77.7554221,29.2743216 77.7024011,29.1660062 C77.8525063,29.1285882 78.0125379,28.9274663 78.2352747,28.6490465 C78.4735063,28.3817045 79.1947379,27.3266143 79.6767695,26.3190352 L80.0958537,26.5132643 C79.6009905,27.428283 79.0163063,28.3585644 78.4183063,29.0687686 L81.2957274,28.9043261 C81.0502326,28.5459007 80.7756853,28.1818134 80.5323695,27.8721299 L80.8957695,27.7035026 Z M77.2012432,26.9817283 C77.8830116,26.4411361 78.4851274,25.5736285 78.8427168,24.6583636 L79.2545379,24.7716024 C78.85458,25.7617033 78.2280116,26.6713063 77.5726326,27.2667947 L77.2012432,26.9817283 Z" id="Fill-16" fill="#8B6F4B"></path>
                            <mask id="mask-4" fill="white">
                                <use xlink:href="#path-3"></use>
                            </mask>
                            <g id="Clip-19"></g>
                            <path d="M87.9299684,27.2117754 L89.1833474,27.2117754 L89.1833474,26.774329 L87.9299684,26.774329 L87.9299684,27.2117754 Z M87.9299684,26.4836007 L89.1833474,26.4836007 L89.1833474,26.0459081 L87.9299684,26.0459081 L87.9299684,26.4836007 Z M89.5523158,27.2117754 L90.8301474,27.2117754 L90.8301474,26.774329 L89.5523158,26.774329 L89.5523158,27.2117754 Z M89.5523158,26.4836007 L90.8301474,26.4836007 L90.8301474,26.0459081 L89.5523158,26.0459081 L89.5523158,26.4836007 Z M90.6456632,29.9903108 C91.0320632,29.9903108 91.2894211,29.9824334 91.4434,29.9285218 C91.5993158,29.8682099 91.6356316,29.7717107 91.6356316,29.5644345 L91.6356316,27.9286262 L89.5523158,27.9286262 L89.5523158,27.5081656 L91.1998421,27.5081656 L91.1998421,25.7500102 L87.5665684,25.7500102 L87.5665684,27.5081656 L89.1831053,27.5081656 L89.1831053,27.9286262 L87.1608,27.9286262 L87.1608,30.0021271 L87.5355789,30.0021271 L87.5355789,28.2725275 L89.1831053,28.2725275 L89.1831053,28.8731855 L87.7926947,28.8731855 L87.7926947,29.2097016 L90.5805368,29.2097016 L90.5924,29.2084708 C90.7241053,29.1909926 90.9754105,29.0686455 90.9754105,28.7363142 L90.9754105,28.412599 L90.6437263,28.412599 L90.6437263,28.7363142 C90.6437263,28.830844 90.5960316,28.8635848 90.5560842,28.8731855 L89.5523158,28.8731855 L89.5523158,28.2725275 L91.2533474,28.2725275 L91.2533474,29.5644345 C91.2533474,29.6323778 91.2361579,29.6560102 91.1519053,29.6560102 C91.0795158,29.6693035 90.8359579,29.6693035 90.5253368,29.6560102 L90.6456632,29.9903108 Z" id="Fill-18" fill="#8B6F4B" mask="url(#mask-4)"></path>
                            <path d="M89.7090547,24.9967014 C89.6361811,24.8265971 89.5236021,24.6040582 89.4151389,24.4393696 L89.0284968,24.5358687 C89.1108126,24.6697859 89.1945811,24.8457984 89.2609179,24.9967014 L86.9093495,24.9967014 L86.9093495,26.0574535 L87.2729916,26.0574535 L87.2729916,25.355373 L91.5098337,25.355373 L91.5098337,26.0574535 L91.8906653,26.0574535 L91.8906653,24.9967014 L89.7090547,24.9967014 Z" id="Fill-20" fill="#8B6F4B" mask="url(#mask-4)"></path>
                            <path d="M62.6221,27.399998 L61.3638789,27.399998 C61.3445105,27.533669 61.3328895,27.6533082 61.3212684,27.775163 L62.6221,27.775163 L62.6221,27.399998 Z M62.6221,28.0173956 L61.2796263,28.0173956 C61.2496053,28.1508204 61.2210368,28.2783372 61.1789105,28.4009305 L62.6221,28.4009305 L62.6221,28.0173956 Z M63.5229737,29.2568681 C63.4864158,29.7718584 63.3748053,29.8937132 62.9801737,29.8937132 L61.8357421,29.8937132 C61.3023842,29.8937132 61.1537316,29.820108 61.1537316,29.4675907 L61.1537316,28.7529554 L61.5064789,28.7529554 L61.5064789,29.4675907 C61.5064789,29.6007694 61.5595,29.6266174 61.8585,29.6266174 L62.9387737,29.6266174 C63.1649,29.6266174 63.2067842,29.564336 63.2234895,29.1517529 L63.5229737,29.2568681 Z M61.1200789,26.6235737 C61.4302158,26.5012265 61.7558474,26.2649021 61.9955316,26.0170076 L61.3328895,26.0170076 L61.3328895,25.7309566 L62.1383737,25.7309566 L62.1383737,25.3919787 L62.4548053,25.3919787 L62.4548053,25.7309566 L63.3748053,25.7309566 L63.3748053,26.0170076 L62.6170158,26.0170076 C62.8545211,26.2708102 63.2009737,26.5260898 63.4999737,26.6661613 L63.2772368,26.9076554 C63.0106789,26.7569985 62.6944895,26.4894103 62.4548053,26.2225606 L62.4548053,26.9192254 L62.1383737,26.9192254 L62.1383737,26.2341307 C61.9059526,26.4894103 61.6016263,26.7200728 61.3270789,26.8591596 L61.1200789,26.6235737 Z M60.7847632,28.4009305 C60.8322158,28.2783372 60.8685316,28.1584517 60.8966158,28.0173956 L59.7524263,28.0173956 L59.7524263,28.4009305 L60.7847632,28.4009305 Z M59.7524263,27.775163 L60.9385,27.775163 C60.9578684,27.6533082 60.9748158,27.533669 60.9808684,27.399998 L59.7524263,27.399998 L59.7524263,27.775163 Z M58.9776895,26.6523757 C59.2883105,26.5260898 59.6398474,26.2767183 59.8783211,26.0170076 L59.1263421,26.0170076 L59.1263421,25.7309566 L60.0153526,25.7309566 L60.0153526,25.3919787 L60.3259737,25.3919787 L60.3259737,25.7309566 L61.1733421,25.7309566 L61.1733421,26.0170076 L60.4090158,26.0170076 C60.6346579,26.1317234 61.0474474,26.3444154 61.1537316,26.4162974 L60.9578684,26.6408057 C60.8438368,26.543568 60.5465316,26.3559855 60.3259737,26.2166525 L60.3259737,26.9192254 L60.0153526,26.9192254 L60.0153526,26.2400388 C59.7826895,26.5012265 59.4723105,26.7510904 59.1871105,26.8960853 L58.9776895,26.6523757 Z M58.7929632,29.7041613 C59.8306263,29.504024 60.3731842,29.1768624 60.6591105,28.6736883 L59.4062158,28.6736883 L59.4062158,27.1326559 L60.6111737,27.1326559 C60.7005105,27.0159707 60.7961421,26.8768839 60.8438368,26.7801386 L61.2263632,26.8709758 C61.1537316,26.9677212 61.0837632,27.0533888 61.0116158,27.1326559 L62.9859842,27.1326559 L62.9859842,28.6736883 L61.0779526,28.6736883 C60.7731421,29.3477053 60.1887,29.7718584 58.9948789,30.0328 L58.7929632,29.7041613 Z M58.0049105,29.7718584 C58.4690263,28.9156746 58.5109105,27.7210053 58.5109105,26.8419276 L58.5109105,24.9717643 L60.8147842,24.9717643 C60.7622474,24.8265232 60.6949421,24.6699583 60.6288474,24.5419492 L61.0116158,24.462682 C61.1004684,24.6158006 61.1905316,24.8151993 61.2437947,24.9717643 L63.4527632,24.9717643 L63.4527632,25.2952334 L58.8820579,25.2952334 L58.8820579,26.8419276 C58.8820579,27.7695011 58.8101526,29.1170428 58.3089947,30.0199991 L58.0049105,29.7718584 Z" id="Fill-21" fill="#8B6F4B" mask="url(#mask-4)"></path>
                            <path d="M62.6890179,29.4113159 L62.6732811,29.4113159 L62.0014389,29.4113159 C61.8665863,29.4113159 61.7808811,29.3709438 61.7465021,29.2877379 C61.7099442,29.1966546 61.7559442,29.1060635 61.8111442,29.0494441 L62.2793758,28.5206682 L62.5248705,28.6329223 L62.0600284,29.1545593 L62.6815126,29.1545593 C62.7023337,29.155544 62.7311442,29.149882 62.7442179,29.1390505 C62.7476074,29.1321577 62.7519653,29.1208338 62.7519653,29.110987 L62.6853863,28.8869711 L62.9289442,28.8126273 L63.0037547,29.0590448 C63.0069021,29.0706149 63.0069021,29.0839081 63.0069021,29.0957243 C63.0069021,29.2156098 62.9587232,29.2877379 62.9158705,29.3263868 C62.8354916,29.4039308 62.7292074,29.4113159 62.6890179,29.4113159" id="Fill-22" fill="#8B6F4B" mask="url(#mask-4)"></path>
                            <path d="M0.580035789,27.4668088 L1.82687789,27.4668088 C2.09198316,27.4668088 2.29970947,27.4389915 2.44884632,27.3831106 C2.59846737,27.3274759 2.71201474,27.2381157 2.78997263,27.1155224 C2.86744632,26.9929291 2.90642526,26.8597504 2.90642526,26.7157402 C2.90642526,26.5050176 2.83137263,26.331713 2.68078316,26.1958264 C2.52995158,26.0599399 2.29220421,25.9922428 1.96754105,25.9922428 L0.580035789,25.9922428 L0.580035789,27.4668088 Z M-4.84210526e-05,29.9568315 L-4.84210526e-05,25.499654 L1.94357263,25.499654 C2.33433053,25.499654 2.63139368,25.5395337 2.83452,25.6195394 C3.03788842,25.6997913 3.20034105,25.8410936 3.32187789,26.0439387 C3.44365684,26.2465377 3.50442526,26.4705536 3.50442526,26.7157402 C3.50442526,27.0318242 3.40370947,27.2984277 3.20227789,27.5153046 C3.00108842,27.7324277 2.68998316,27.8702836 2.26944632,27.9288724 C2.42294105,28.0039546 2.53963579,28.077806 2.61953053,28.1506727 C2.78876211,28.3089609 2.94927789,28.5066364 3.10059368,28.7436994 L3.86322526,29.9568315 L3.13376211,29.9568315 L2.55343579,29.0295043 C2.38420421,28.7619161 2.24450947,28.5573477 2.13507789,28.415553 C2.02540421,28.2735122 1.92710947,28.1743052 1.84019368,28.1174396 C1.75376211,28.0608202 1.66539368,28.0209404 1.57581474,27.998785 C1.50996211,27.9847533 1.40222526,27.9776143 1.25284632,27.9776143 L0.580035789,27.9776143 L0.580035789,29.9568315 L-4.84210526e-05,29.9568315 Z" id="Fill-23" fill="#8B6F4B" mask="url(#mask-4)"></path>
                            <polygon id="Fill-24" fill="#8B6F4B" mask="url(#mask-4)" points="6.26263368 29.9569054 6.26263368 25.4997279 9.43227579 25.4997279 9.43227579 26.0255497 6.84271789 26.0255497 6.84271789 27.3908158 9.26788632 27.3908158 9.26788632 27.9136836 6.84271789 27.9136836 6.84271789 29.4308373 9.53371789 29.4308373 9.53371789 29.9569054"></polygon>
                            <path d="M11.9750589,28.5248285 L12.5224589,28.4760866 C12.5481221,28.6991178 12.6084063,28.882023 12.7030695,29.0250486 C12.7979747,29.1678279 12.9449326,29.2835284 13.1441853,29.3714116 C13.34368,29.4597871 13.5678695,29.5038517 13.8169958,29.5038517 C14.03828,29.5038517 14.2334168,29.4703724 14.4028905,29.4034138 C14.5726063,29.3367014 14.6987432,29.2448795 14.7813011,29.1281943 C14.8641011,29.0120015 14.9055011,28.8844847 14.9055011,28.746875 C14.9055011,28.6068035 14.8653116,28.4847026 14.7856589,28.3803259 C14.7060063,28.2759493 14.5745432,28.1883123 14.3910274,28.117415 C14.2733642,28.0708886 14.0133432,27.9982681 13.6107221,27.8997995 C13.2081011,27.8015772 12.9258063,27.7090168 12.7643221,27.6218721 C12.5551432,27.5103566 12.3992274,27.3720083 12.2965747,27.2068273 C12.1939221,27.0416464 12.1423537,26.8567718 12.1423537,26.6519572 C12.1423537,26.4269567 12.2053011,26.2167264 12.3311958,26.0210202 C12.4566063,25.825314 12.6396379,25.6768727 12.8812589,25.5756963 C13.1221537,25.4742737 13.3904063,25.4235625 13.6852905,25.4235625 C14.0104379,25.4235625 14.2968484,25.4767355 14.5452484,25.5830815 C14.7934063,25.6896736 14.9841853,25.8462386 15.1175853,26.0527763 C15.2512274,26.2595602 15.3231326,26.4939153 15.3330589,26.7553492 L14.7767011,26.7979368 C14.7471642,26.5163168 14.6457221,26.3033787 14.4733432,26.1593685 C14.3009642,26.0153583 14.0462695,25.9434762 13.7095011,25.9434762 C13.3586905,25.9434762 13.1027853,26.0087116 12.9425116,26.1396748 C12.7819958,26.2703917 12.7016168,26.4279413 12.7016168,26.6123237 C12.7016168,26.7725812 12.7582695,26.9042828 12.8720589,27.0076748 C12.9839116,27.1110667 13.2751642,27.2171665 13.7465432,27.3254819 C14.2181642,27.4337973 14.5418589,27.5285732 14.7171432,27.6095636 C14.9723221,27.729449 15.1604379,27.8808444 15.2822168,28.064242 C15.4037537,28.2478858 15.4647642,28.4588546 15.4647642,28.6981331 C15.4647642,28.935196 15.3979432,29.1587196 15.2643011,29.3684575 C15.1306589,29.5781955 14.9389116,29.741407 14.6885747,29.8580922 C14.43848,29.9745313 14.1569116,30.0328739 13.8441116,30.0328739 C13.4470589,30.0328739 13.1146484,29.9740389 12.84688,29.856369 C12.5783853,29.7389453 12.3682379,29.5619482 12.2157116,29.3258699 C12.0634274,29.0897916 11.9830484,28.8226957 11.9750589,28.5248285" id="Fill-25" fill="#8B6F4B" mask="url(#mask-4)"></path>
                            <polygon id="Fill-26" fill="#8B6F4B" mask="url(#mask-4)" points="18.1927579 29.9568315 18.7728421 29.9568315 18.7728421 25.499654 18.1927579 25.499654"></polygon>
                            <path d="M22.2129884,29.4309112 L23.1489674,29.4309112 C23.4380411,29.4309112 23.6648937,29.4035862 23.8295253,29.34869 C23.9936726,29.2940399 24.1246516,29.2169883 24.2227042,29.1177813 C24.3599779,28.977956 24.4674726,28.7898811 24.5439779,28.5538028 C24.6207253,28.3177246 24.65922,28.0311812 24.65922,27.6949112 C24.65922,27.2286627 24.5839253,26.8702373 24.4333358,26.6198811 C24.2827463,26.3697711 24.0999568,26.2018822 23.8847253,26.116707 C23.7292937,26.0561488 23.4789568,26.0256236 23.1341989,26.0256236 L22.2129884,26.0256236 L22.2129884,29.4309112 Z M21.6329042,29.9569792 L21.6329042,25.4995555 L23.1431568,25.4995555 C23.4837989,25.4995555 23.7440621,25.5209724 23.92322,25.5633139 C24.1747674,25.6221488 24.3887884,25.7284948 24.5664937,25.8825981 C24.7977042,26.0815045 24.9705674,26.3353071 25.0853253,26.6442521 C25.1998411,26.9534432 25.25722,27.306699 25.25722,27.7037733 C25.25722,28.0422589 25.2182411,28.3423417 25.1407674,28.6037756 C25.0628095,28.8654557 24.9630621,29.0818403 24.8412832,29.2529293 C24.7197463,29.4242645 24.5868305,29.5591664 24.4422937,29.6573888 C24.2977568,29.7558573 24.1234411,29.830201 23.9188621,29.8809123 C23.7145253,29.9316236 23.4799253,29.9569792 23.21482,29.9569792 L21.6329042,29.9569792 Z" id="Fill-27" fill="#8B6F4B" mask="url(#mask-4)"></path>
                            <polygon id="Fill-28" fill="#8B6F4B" mask="url(#mask-4)" points="27.9045926 29.9569054 27.9045926 25.4997279 31.0744768 25.4997279 31.0744768 26.0255497 28.4846768 26.0255497 28.4846768 27.3908158 30.9098453 27.3908158 30.9098453 27.9136836 28.4846768 27.9136836 28.4846768 29.4308373 31.1759189 29.4308373 31.1759189 29.9569054"></polygon>
                            <polygon id="Fill-29" fill="#8B6F4B" mask="url(#mask-4)" points="33.8087411 29.9569054 33.8087411 25.4997279 34.4033516 25.4997279 36.7060147 28.9990529 36.7060147 25.4997279 37.2621305 25.4997279 37.2621305 29.9569054 36.6672779 29.9569054 34.3648568 26.454134 34.3648568 29.9569054"></polygon>
                            <path d="M43.2018926,28.3940377 L43.7819768,28.5429713 C43.66044,29.0276826 43.4415768,29.3969395 43.1256295,29.6512345 C42.8096821,29.9057756 42.4232821,30.0328 41.9666716,30.0328 C41.4945663,30.0328 41.1103453,29.93507 40.8142505,29.7393638 C40.5181558,29.5439038 40.2927558,29.2605606 40.1385347,28.8898267 C39.9838295,28.5186003 39.90684,28.1205413 39.90684,27.6949112 C39.90684,27.2306321 39.9939979,26.8256803 40.1683137,26.4800558 C40.3426295,26.1346775 40.5907874,25.8720127 40.9130295,25.6925538 C41.2347874,25.5133411 41.5892295,25.4234886 41.9758716,25.4234886 C42.4145663,25.4234886 42.7832926,25.5372197 43.0820505,25.7641897 C43.3812926,25.9911596 43.5895032,26.3104438 43.7071663,26.721796 L43.13604,26.8586673 C43.0345979,26.5344597 42.8866716,26.2981352 42.6932295,26.1501863 C42.5002716,26.0022373 42.2569558,25.9283859 41.9640084,25.9283859 C41.6269979,25.9283859 41.3451874,26.010361 41.1190611,26.1745572 C40.8929347,26.3387535 40.7338716,26.5590768 40.6423558,26.8357733 C40.55084,27.1124699 40.5045979,27.3977824 40.5045979,27.6917109 C40.5045979,28.0708147 40.5590716,28.401669 40.6675347,28.6842736 C40.77624,28.9673706 40.9454716,29.1785856 41.1745032,29.3184109 C41.4035347,29.4582362 41.6519347,29.5281488 41.9189768,29.5281488 C42.2441242,29.5281488 42.5191558,29.4328805 42.7443137,29.242344 C42.9697137,29.0518074 43.1219979,28.7689566 43.2018926,28.3940377" id="Fill-30" fill="#8B6F4B" mask="url(#mask-4)"></path>
                            <polygon id="Fill-31" fill="#8B6F4B" mask="url(#mask-4)" points="46.3457263 29.9569054 46.3457263 25.4997279 49.5156105 25.4997279 49.5156105 26.0255497 46.9258105 26.0255497 46.9258105 27.3908158 49.3509789 27.3908158 49.3509789 27.9136836 46.9258105 27.9136836 46.9258105 29.4308373 49.6170526 29.4308373 49.6170526 29.9569054"></polygon>
                        </g>
                    </g>
                </g>
            </g>
        </g>
    </g>
</svg>